<?xml version="1.0" standalone="no"?>
<!DOCTYPE svg PUBLIC "-//W3C//DTD SVG 20010904//EN"
 "http://www.w3.org/TR/2001/REC-SVG-20010904/DTD/svg10.dtd">
<svg version="1.0" xmlns="http://www.w3.org/2000/svg"
 width="1024.000000pt" height="1024.000000pt" viewBox="0 0 1024.000000 1024.000000"
 preserveAspectRatio="xMidYMid meet">

<g transform="translate(0.000000,1024.000000) scale(0.100000,-0.100000)"
fill="#000000" stroke="none">
<path d="M3353 9319 c-84 -11 -157 -77 -218 -198 -68 -137 -80 -200 -79 -431
0 -184 3 -218 27 -331 29 -134 64 -244 118 -374 l34 -80 0 -180 c0 -212 1
-216 113 -365 52 -68 77 -112 89 -154 18 -63 116 -206 155 -227 19 -10 20 -17
14 -94 -7 -103 5 -124 77 -132 26 -3 47 -9 47 -13 0 -4 -7 -45 -16 -90 -19
-103 -43 -155 -94 -205 -43 -42 -50 -58 -22 -48 9 3 -7 -13 -35 -36 -29 -24
-53 -45 -53 -48 0 -3 21 -3 46 0 l46 5 -31 -32 c-17 -18 -31 -36 -31 -41 0 -5
7 0 16 11 15 19 15 19 5 -1 -5 -11 -21 -31 -35 -44 -27 -25 -34 -51 -16 -51 6
0 24 7 40 15 25 13 30 13 30 1 0 -7 -7 -19 -15 -26 -8 -6 -26 -33 -40 -58
l-25 -47 41 45 c39 43 40 44 34 16 -3 -16 -15 -48 -26 -70 -11 -23 -25 -52
-30 -66 l-10 -25 25 24 c14 14 29 21 33 17 11 -11 4 -76 -12 -107 -22 -42 -20
-68 5 -62 23 6 26 -9 6 -27 -8 -6 -12 -18 -10 -25 3 -7 -2 -24 -10 -38 -9 -13
-14 -31 -11 -39 3 -7 -5 -24 -19 -37 -13 -13 -22 -29 -20 -35 3 -7 -9 -31 -26
-54 -38 -53 -38 -71 0 -85 33 -12 38 -24 15 -33 -17 -7 -20 -40 -5 -49 7 -4 5
-14 -5 -28 -21 -30 -19 -46 5 -40 29 8 25 -1 -25 -62 -24 -30 -49 -64 -55 -75
-9 -17 -8 -20 10 -20 26 0 25 -8 -5 -32 -29 -22 -32 -36 -9 -34 27 2 26 -20
-1 -32 -28 -13 -35 -34 -7 -26 9 3 4 -5 -13 -20 -31 -27 -20 -35 18 -14 19 10
18 7 -6 -21 -32 -39 -35 -61 -7 -54 16 4 19 2 13 -13 -5 -13 -3 -16 10 -11 9
3 17 2 17 -3 0 -6 -4 -10 -8 -10 -5 0 -14 -11 -20 -25 -10 -21 -9 -23 6 -18
12 5 9 -3 -10 -29 -33 -43 -35 -52 -9 -38 30 16 31 13 11 -32 -11 -24 -20 -56
-20 -72 l0 -28 20 23 c17 21 19 22 20 5 0 -24 -24 -120 -61 -234 -33 -103 -36
-125 -14 -96 8 10 15 16 15 13 0 -4 -16 -73 -36 -155 -34 -144 -58 -208 -72
-201 -4 2 -95 45 -202 96 -107 51 -280 135 -385 186 -104 51 -224 107 -265
124 l-76 31 -54 -51 c-48 -45 -123 -98 -273 -191 -82 -52 -427 -312 -427 -322
0 -2 32 -15 71 -31 38 -15 68 -29 66 -32 -3 -2 -39 10 -80 27 -73 30 -77 31
-101 15 -34 -22 -33 -31 4 -39 33 -6 122 -43 260 -108 390 -182 606 -264 888
-339 46 -12 81 -24 78 -26 -7 -7 -346 85 -428 116 -40 16 -108 45 -151 65 -43
20 -81 36 -83 36 -3 0 -116 50 -252 111 -318 144 -345 153 -382 134 -28 -14
-45 -41 -32 -48 4 -3 34 -12 67 -22 33 -9 107 -37 165 -62 126 -54 363 -143
368 -139 9 10 -467 218 -525 231 -18 3 -36 11 -39 17 -5 8 3 9 23 5 48 -10
365 -148 566 -247 255 -125 614 -265 1092 -425 226 -76 471 -161 545 -190 74
-30 170 -63 212 -74 135 -36 409 -205 660 -406 68 -54 115 -101 132 -129 14
-25 32 -48 38 -52 7 -4 1 8 -12 27 -19 26 -20 30 -5 19 52 -42 187 -393 184
-479 -1 -14 -9 6 -18 45 -10 40 -24 87 -31 105 -24 62 -119 197 -173 245 -28
26 -46 44 -39 40 6 -4 12 -3 12 2 0 24 -224 213 -340 287 -41 26 -152 99 -247
162 -213 141 -309 182 -853 359 -355 116 -669 233 -995 371 -128 54 -131 55
-183 45 -29 -6 -96 -32 -148 -58 -98 -49 -132 -74 -99 -74 10 0 104 -24 209
-54 249 -71 693 -190 976 -261 369 -93 645 -170 825 -230 94 -32 177 -61 185
-65 25 -14 -77 -23 -123 -11 -23 6 -168 43 -322 82 -154 38 -334 86 -400 106
-66 20 -415 120 -775 223 l-655 187 -39 -26 c-38 -25 -38 -26 -15 -29 13 -2
76 -18 139 -37 121 -35 131 -38 680 -189 190 -52 398 -111 464 -131 199 -60
746 -245 834 -281 113 -47 340 -161 437 -221 44 -27 102 -62 128 -78 27 -17
112 -72 190 -122 77 -51 143 -93 145 -93 3 0 -5 12 -18 28 -13 15 15 -12 62
-59 65 -64 90 -98 106 -140 12 -30 21 -47 21 -39 1 34 -51 121 -110 184 -97
103 -404 312 -801 546 -64 38 -72 50 -13 20 22 -11 46 -20 54 -20 8 0 11 -3 8
-6 -4 -4 35 -30 86 -58 174 -97 359 -211 425 -264 37 -29 96 -72 132 -96 111
-75 196 -183 231 -297 22 -69 24 -112 4 -59 -16 41 -20 17 -4 -28 6 -17 9 -45
7 -64 -3 -30 -4 -29 -16 22 -28 118 -61 194 -107 245 -25 27 -45 55 -45 63 0
7 -4 10 -10 7 -5 -3 -20 1 -32 9 -13 8 -57 32 -98 53 -41 22 -120 66 -175 97
-107 62 -364 202 -455 248 -88 45 -1101 371 -1455 469 -234 64 -473 135 -674
200 -120 39 -196 59 -220 57 -48 -4 -49 -30 -1 -33 19 -2 179 -48 355 -104
176 -56 437 -135 580 -177 307 -89 833 -263 1029 -341 77 -30 203 -84 280
-120 78 -36 211 -94 296 -130 275 -115 536 -253 618 -327 13 -12 32 -40 43
-63 20 -45 50 -170 48 -206 0 -12 -7 9 -15 47 -35 180 -69 218 -270 310 -199
90 -389 170 -504 210 -113 41 -264 114 -429 209 -57 33 -140 72 -185 88 -45
15 -130 48 -191 72 -164 66 -349 118 -1120 317 -66 17 -196 52 -288 77 l-168
47 -27 -27 -27 -27 25 0 c14 0 108 -23 210 -50 237 -65 456 -121 645 -164 397
-92 792 -193 783 -201 -7 -7 -594 127 -908 206 -236 61 -779 181 -793 176 -5
-1 141 -40 324 -85 681 -169 752 -187 731 -190 -22 -3 -333 69 -632 147 -102
27 -230 59 -285 70 -55 12 -115 29 -132 36 -18 8 -33 11 -33 7 0 -10 101 -47
118 -44 6 2 12 -1 12 -7 0 -5 10 -7 22 -3 13 3 19 1 15 -5 -4 -6 4 -8 21 -6
22 4 24 2 12 -7 -12 -8 -9 -9 12 -4 17 4 65 -5 125 -21 54 -15 139 -38 188
-51 50 -14 118 -34 153 -45 35 -12 72 -19 82 -16 11 3 18 0 17 -6 -1 -6 7 -12
18 -14 17 -4 18 -2 5 7 -12 10 -12 11 5 5 118 -39 364 -86 411 -78 22 3 26 2
14 -6 -12 -8 -8 -11 20 -11 44 -1 180 -30 325 -71 119 -34 756 -309 715 -309
-15 0 -240 93 -371 154 -214 98 -348 138 -714 211 -93 19 -181 37 -195 40 -14
3 -9 -1 11 -9 20 -7 114 -30 210 -51 362 -76 492 -116 700 -214 177 -82 338
-146 633 -252 231 -82 502 -211 596 -282 30 -22 60 -66 60 -87 0 -8 -8 -1 -19
15 -26 42 -56 67 -126 104 -67 36 -292 134 -400 174 -38 14 -230 90 -425 168
-532 212 -571 227 -719 269 -75 21 -224 57 -331 80 -107 23 -251 57 -320 76
-69 20 -307 83 -529 140 -222 58 -411 109 -420 113 -12 7 -5 15 34 40 27 17
43 31 36 31 -7 0 -47 -21 -87 -46 -64 -40 -74 -50 -74 -74 0 -24 5 -30 33 -35
17 -4 97 -27 177 -52 273 -83 816 -222 1225 -314 152 -34 701 -189 935 -264
608 -195 746 -248 872 -332 73 -49 148 -131 148 -161 -1 -10 -7 -4 -14 13 -41
95 -200 178 -556 289 -441 138 -1578 441 -2210 587 -241 56 -262 59 -332 43
-110 -26 -173 -74 -107 -82 13 -2 74 -18 134 -37 61 -18 121 -35 135 -38 160
-32 466 -100 505 -111 28 -8 91 -27 140 -41 132 -40 482 -112 675 -140 171
-25 320 -56 675 -139 346 -81 503 -125 662 -187 115 -45 216 -107 208 -127 -2
-7 -1 -11 4 -7 5 3 23 -8 39 -25 17 -16 26 -32 21 -36 -5 -3 -9 -14 -9 -24 0
-10 -5 -22 -10 -25 -7 -4 -9 2 -4 19 10 40 -37 76 -210 161 -83 41 -148 75
-145 75 15 0 158 -65 228 -103 41 -22 71 -35 66 -28 -12 20 -253 134 -285 135
-15 1 -26 5 -23 9 3 5 -1 7 -8 5 -8 -1 -44 10 -81 24 -134 55 -733 188 -1133
253 -55 9 -152 27 -215 40 -63 14 -169 35 -235 48 -66 14 -160 36 -209 51
-145 44 -258 72 -499 125 -223 50 -292 58 -332 41 -17 -7 -16 -9 10 -10 25 -1
27 -3 10 -9 -19 -8 6 -13 155 -35 47 -6 500 -102 570 -120 30 -7 48 -14 40
-15 -8 0 -33 4 -55 9 -77 19 -181 39 -235 45 -30 3 -122 19 -205 35 -82 16
-179 34 -215 40 -36 6 -77 13 -92 16 -21 4 -28 2 -28 -10 0 -9 -5 -16 -12 -16
-7 0 -8 -3 -3 -9 12 -10 148 -42 330 -76 77 -14 196 -37 265 -50 69 -13 136
-26 150 -28 22 -4 22 -4 -5 -6 -16 0 -102 12 -190 29 -359 66 -402 73 -445 75
-25 1 -76 6 -115 10 -38 4 -68 5 -65 2 3 -3 105 -26 225 -51 308 -63 688 -145
700 -151 19 -9 -70 3 -270 38 -110 20 -287 50 -393 67 -107 17 -208 33 -225
37 l-32 5 20 -20 c26 -27 152 -77 240 -96 95 -21 559 -99 780 -131 442 -64
1194 -187 1178 -192 -6 -2 -229 30 -495 71 -265 42 -557 87 -648 101 -843 129
-864 132 -998 161 -134 28 -155 29 -177 8 -14 -15 -14 -17 0 -28 14 -10 11
-13 -19 -24 -36 -13 -45 -25 -26 -37 11 -7 316 -69 413 -85 55 -8 419 -54
1197 -150 335 -41 867 -121 765 -114 -44 3 -114 9 -155 14 -487 63 -1011 122
-1400 160 -118 11 -307 29 -420 40 -113 11 -236 24 -275 30 -38 5 -134 17
-212 26 -77 8 -165 21 -194 27 l-52 12 194 146 c107 81 246 181 309 224 71 48
104 75 86 71 -68 -17 -683 -455 -719 -513 -4 -7 -14 -13 -22 -13 -21 0 -55
-49 -55 -80 0 -15 -7 -33 -15 -40 -17 -14 -20 -36 -5 -45 14 -9 102 -22 260
-39 74 -9 199 -24 278 -36 79 -11 304 -36 500 -55 196 -20 447 -47 557 -60
110 -13 324 -38 475 -55 468 -52 999 -120 1095 -140 135 -28 354 -62 367 -58
7 3 -37 12 -97 22 -158 25 -226 38 -221 43 4 5 184 -18 408 -53 87 -13 160
-24 163 -24 3 0 5 -6 5 -13 0 -19 43 -57 64 -57 10 0 48 -13 85 -29 82 -36
146 -47 368 -61 251 -16 489 6 584 56 15 7 37 29 49 49 18 29 25 33 40 25 32
-17 204 -11 460 15 317 33 448 51 955 135 231 38 634 97 896 130 262 33 556
71 655 84 160 23 524 70 859 112 182 23 175 18 124 70 -44 45 -59 51 -40 16 9
-17 7 -21 -12 -26 -31 -8 -345 -42 -567 -61 -102 -9 -229 -22 -284 -31 -54 -8
-193 -26 -310 -39 -116 -14 -247 -32 -291 -40 -161 -31 -661 -90 -930 -110
-99 -8 -326 -32 -420 -45 -38 -6 -149 -21 -245 -35 -213 -29 -457 -54 -648
-64 -149 -9 -203 -21 -91 -21 144 0 568 39 868 80 168 23 416 46 586 55 66 3
142 8 170 11 27 3 46 2 43 -2 -7 -7 -50 -13 -468 -68 -208 -27 -559 -67 -865
-98 -148 -15 -410 -17 -423 -3 -6 6 -12 19 -16 30 -5 19 -1 20 69 22 72 2 168
19 340 62 112 28 357 59 805 101 118 12 325 32 459 46 134 13 320 29 415 35
338 21 372 27 116 22 -135 -2 -339 -13 -455 -24 -115 -11 -275 -26 -355 -34
-292 -28 -760 -87 -910 -115 -191 -36 -376 -56 -460 -50 -14 1 30 10 98 21 68
10 203 34 301 53 98 19 272 49 387 65 115 17 287 42 383 56 215 31 624 80 791
95 271 23 361 32 520 51 206 24 443 54 625 79 157 21 271 34 455 50 155 14
157 14 200 5 l35 -7 -50 36 c-27 20 -84 62 -125 94 -87 68 -425 299 -416 284
5 -9 159 -118 333 -236 123 -83 124 -81 -29 -95 -150 -14 -564 -64 -708 -86
-191 -29 -388 -55 -530 -70 -334 -37 -562 -69 -1035 -149 -115 -20 -302 -49
-415 -66 -180 -27 -628 -103 -762 -130 -26 -5 -54 -7 -63 -4 -11 5 -14 2 -9
-10 9 -23 -12 -20 -29 5 -9 12 -16 16 -19 9 -2 -7 -31 7 -70 33 -36 24 -91 57
-122 72 l-57 28 6 47 c3 26 12 61 20 77 24 48 92 120 159 168 80 56 285 160
356 179 14 4 34 11 45 16 18 7 125 40 150 46 6 2 35 9 65 18 215 58 456 103
699 131 121 14 284 38 362 55 173 37 387 75 534 95 158 21 843 133 954 155 51
10 96 22 99 25 4 4 -4 15 -18 25 -40 31 -139 26 -372 -20 -348 -69 -731 -130
-743 -118 -2 2 108 23 243 47 136 23 315 56 397 71 83 16 183 34 223 40 86 14
86 30 -1 30 -92 0 -57 23 68 44 97 17 411 81 448 92 10 3 16 8 14 11 -9 8
-168 -18 -352 -57 -184 -39 -303 -58 -255 -41 14 5 61 17 105 27 48 11 72 20
60 23 -11 2 23 13 75 22 l95 18 -70 -5 c-38 -2 -92 -6 -120 -9 -49 -4 -49 -4
-13 6 20 6 44 19 54 30 16 18 16 19 -2 20 -18 0 -18 1 1 9 17 7 17 9 3 9 -21
1 -23 12 -6 29 9 9 4 12 -25 12 -38 0 -51 -15 -19 -23 12 -3 11 -5 -6 -6 -13
0 -85 -17 -159 -36 -75 -19 -199 -49 -277 -65 -78 -16 -233 -50 -346 -75 -449
-100 -783 -167 -1053 -209 -351 -56 -520 -97 -741 -181 -38 -14 -70 -24 -72
-22 -10 10 135 67 286 112 69 21 161 50 205 65 125 42 173 55 426 114 319 75
812 174 1504 302 105 19 255 50 335 69 80 18 198 46 263 61 116 27 159 46 55
25 -81 -17 -377 -73 -427 -81 -42 -7 -53 -3 -158 51 -62 33 -124 59 -137 59
-14 0 -76 -18 -137 -40 -62 -21 -114 -38 -116 -36 -4 3 163 76 292 127 143 57
285 109 483 175 94 32 172 62 172 65 0 4 -11 21 -25 37 -17 21 -31 28 -45 25
-12 -3 -31 5 -51 21 -17 14 -38 26 -47 26 -51 0 -314 -87 -452 -150 -120 -55
-359 -145 -422 -160 -84 -19 -72 -8 22 19 184 55 491 183 476 198 -5 5 -92
-24 -111 -37 -10 -7 -269 -97 -302 -105 -10 -3 -155 -45 -323 -94 -358 -104
-743 -207 -960 -256 -85 -19 -216 -50 -290 -70 -74 -19 -189 -46 -255 -61
-218 -48 -449 -114 -530 -153 -139 -66 -407 -299 -495 -431 -71 -105 -102
-189 -121 -330 l-17 -125 4 105 c7 151 25 322 35 343 6 9 22 65 38 125 51 192
142 404 213 494 41 52 138 123 238 173 110 55 214 93 730 265 566 189 914 314
1140 409 257 109 310 132 420 181 63 29 147 66 186 82 l71 31 124 -102 c180
-148 357 -279 414 -309 l50 -26 -65 -21 c-87 -29 -188 -76 -173 -82 6 -2 25 3
41 11 17 9 78 29 138 46 59 16 109 32 112 34 8 9 -10 26 -27 26 -43 0 -211
111 -370 245 -46 38 -100 83 -120 99 -20 16 -52 45 -72 64 -29 27 -42 33 -60
27 -24 -7 -222 -92 -419 -180 -58 -26 -133 -57 -168 -70 l-62 -24 -31 42 c-17
23 -63 96 -102 162 -38 66 -111 185 -160 264 -49 80 -96 159 -103 178 -8 18
-19 33 -25 33 -5 0 -8 4 -5 8 3 5 -8 28 -25 50 -32 44 -30 55 4 25 20 -18 20
-18 1 16 -10 18 -29 41 -41 51 -25 19 -21 30 11 31 14 0 8 6 -21 19 -50 22
-56 34 -13 28 18 -3 31 0 34 9 3 7 0 13 -7 13 -7 0 -26 14 -43 31 l-29 32 45
-6 45 -5 -47 20 c-27 11 -48 24 -48 27 0 4 17 15 37 25 l37 17 -43 20 c-24 10
-62 22 -85 25 -37 5 -39 4 -23 -9 9 -8 17 -17 17 -21 0 -5 10 -16 22 -25 28
-23 16 -41 -30 -41 l-37 -1 35 -15 35 -15 -25 -19 c-14 -11 -35 -20 -47 -20
-26 0 -41 -19 -23 -30 9 -6 1 -12 -26 -19 -38 -10 -217 -121 -195 -121 22 0
10 -16 -21 -29 -18 -7 -27 -15 -20 -18 21 -8 13 -22 -30 -49 -24 -15 -56 -40
-72 -56 -16 -16 -43 -32 -59 -35 -24 -5 -28 -9 -23 -30 7 -25 -7 -35 -69 -48
-25 -6 -27 -8 -12 -16 28 -16 20 -28 -30 -50 -48 -20 -66 -36 -57 -51 3 -4 -8
-14 -23 -22 -30 -15 -103 -80 -103 -91 0 -4 16 2 35 14 19 11 35 19 35 17 0
-8 -130 -106 -165 -124 -51 -26 -200 -179 -252 -257 -93 -142 -93 -147 -2 -60
46 44 121 118 165 165 45 47 85 82 89 78 4 -4 -9 -37 -29 -73 -19 -36 -33 -65
-30 -65 11 0 101 66 169 125 99 85 111 94 100 75 -4 -8 -19 -30 -32 -48 -37
-49 -22 -49 15 0 33 44 44 45 16 3 -20 -30 -7 -32 40 -4 66 39 139 59 236 64
52 3 115 7 140 9 l45 4 -60 -19 c-33 -10 -76 -19 -95 -20 -32 -1 -33 -2 -10
-9 14 -4 44 -8 68 -9 23 -1 42 -4 42 -8 0 -5 -28 -20 -63 -35 l-62 -27 43 -1
c49 0 48 -14 -1 -30 -30 -9 -29 -10 13 -6 44 4 44 4 24 -12 -12 -9 -30 -23
-40 -30 -18 -12 -17 -12 6 -8 22 4 23 3 8 -7 -9 -7 -31 -20 -49 -30 -42 -23
-33 -29 25 -18 l48 9 -53 -54 c-52 -52 -52 -54 -26 -54 15 0 27 -4 27 -9 0 -5
-33 -30 -72 -56 -72 -45 -73 -46 -33 -40 l40 6 -48 -27 c-28 -16 -43 -30 -36
-34 6 -5 1 -10 -13 -13 -38 -10 -188 -103 -180 -112 4 -5 -1 -5 -11 -2 -10 4
-33 -3 -55 -15 -75 -42 -189 -96 -262 -123 -138 -51 -334 -150 -394 -199 l-59
-48 30 43 c47 69 48 77 3 29 -24 -26 -67 -96 -101 -165 -33 -66 -57 -111 -54
-100 65 216 75 256 55 225 -9 -13 -10 -13 -10 0 0 31 -40 -46 -41 -80 0 -26
-2 -30 -8 -16 -6 15 -9 11 -19 -20 -7 -22 -13 -55 -15 -74 -3 -29 -4 -27 -7
15 -3 49 -4 48 -10 -20 -6 -68 -7 -67 -8 36 -2 86 -7 117 -27 169 -30 78 -43
97 -109 169 -43 47 -61 78 -96 169 -23 62 -45 112 -48 112 -2 0 -2 -16 1 -36
l6 -37 -27 44 c-15 24 -40 64 -54 89 -28 49 -77 100 -65 68 19 -49 20 -53 10
-43 -5 6 -20 35 -32 65 -12 30 -29 66 -37 80 -15 25 -15 25 -9 -10 4 -19 9
-43 12 -54 11 -40 -16 -4 -32 42 -16 49 -41 89 -50 80 -3 -2 -1 -26 4 -51 11
-59 -1 -60 -27 -4 -40 89 -42 92 -38 72 3 -11 8 -33 12 -50 8 -36 3 -32 -26
20 -20 36 -21 37 -15 10 11 -47 -1 -27 -44 80 -23 54 -45 103 -51 109 -19 19
-11 -13 20 -81 l30 -67 -76 75 c-42 41 -85 88 -95 104 l-19 30 0 -30 0 -30
-33 39 c-19 22 -38 36 -45 32 -6 -3 -25 11 -43 34 -18 22 -38 40 -45 40 -7 0
-27 20 -44 45 -18 26 -38 44 -48 43 -9 -1 -30 0 -46 0 -25 2 -27 5 -22 26 5
19 1 26 -13 31 -22 7 -48 34 -53 55 -2 8 -18 24 -37 35 -19 11 -42 33 -50 48
-9 15 -29 37 -46 47 l-30 20 35 0 35 1 -23 19 c-13 11 -42 25 -63 30 -45 12
-61 37 -36 55 23 17 21 26 -5 24 -45 -4 -59 1 -68 25 -6 18 -21 28 -50 36 -45
12 -49 24 -19 56 l21 23 -57 -6 c-44 -5 -56 -3 -51 6 5 8 0 14 -13 18 -28 7
-27 14 10 49 33 31 64 79 38 58 -16 -13 -89 -24 -89 -14 0 4 10 12 23 19 12 6
14 9 5 7 -34 -10 -18 15 29 44 26 17 61 30 77 30 26 1 28 2 14 11 -23 13 -97
16 -123 5 l-20 -9 20 16 c20 16 20 16 -2 17 -29 0 -29 13 0 34 l22 17 -22 -5
c-29 -5 -29 8 -1 28 l22 16 -22 0 c-21 0 -22 1 -7 24 16 23 15 24 -5 19 -20
-5 -21 -4 -9 16 21 32 34 26 70 -34 18 -30 37 -55 41 -55 4 0 23 -16 43 -37
20 -21 56 -43 86 -53 38 -13 47 -19 33 -24 -11 -3 -37 -1 -59 4 -22 5 -41 7
-43 6 -6 -6 95 -60 148 -79 27 -10 -44 -7 -78 3 -62 17 -18 -14 77 -55 92 -41
105 -51 74 -57 -10 -2 18 -12 62 -22 44 -10 95 -24 114 -32 22 -9 38 -11 50
-4 13 8 12 9 -9 10 -43 1 -56 16 -19 24 31 6 32 7 14 20 -28 19 -83 36 -119
37 -28 1 -27 2 14 14 l45 13 -33 7 c-19 4 -29 11 -23 15 15 9 -16 35 -51 44
-16 3 -27 11 -25 18 1 6 -14 22 -33 36 -19 14 -27 22 -17 19 10 -4 16 -3 13 1
-3 5 -24 15 -46 22 -26 9 -45 22 -50 36 -5 12 -12 24 -17 26 -8 5 5 2 35 -8 9
-3 4 3 -13 12 -16 10 -55 23 -85 30 -55 12 -55 12 -15 13 35 1 37 3 21 13 -11
6 -40 16 -65 23 l-45 11 42 17 c23 9 42 20 42 23 0 4 -23 4 -52 2 -42 -5 -49
-3 -35 7 22 16 12 25 -27 25 l-31 1 24 19 c24 21 13 27 -19 10 -29 -16 -34 7
-6 25 14 9 48 23 77 30 71 19 80 31 33 44 -22 6 -44 11 -51 11 -28 0 -21 20 9
28 l33 9 -49 14 c-56 16 -69 34 -31 43 30 8 32 21 5 36 -11 6 -17 17 -14 25 4
10 -5 15 -39 17 l-46 3 44 65 c24 36 58 79 75 95 l32 30 71 -77 c105 -112 108
-113 270 -73 118 29 145 46 71 44 -42 -1 -44 -2 -19 -8 28 -7 26 -8 -20 -14
-32 -5 -70 -2 -105 7 l-55 14 75 2 75 3 -83 8 c-136 15 -157 39 -51 60 l60 12
-52 18 c-29 11 -65 19 -79 19 -14 0 -31 4 -39 9 -22 14 40 41 96 41 26 0 100
-14 163 -32 63 -17 129 -30 147 -30 38 2 108 25 182 59 49 23 53 28 47 53 -3
19 0 33 10 41 9 7 47 57 86 111 67 94 71 97 126 113 124 34 205 86 285 183 50
60 112 173 142 257 27 77 53 95 133 94 37 0 82 -5 101 -12 30 -11 36 -20 66
-103 63 -178 153 -308 265 -382 88 -59 142 -73 300 -79 122 -4 183 1 233 22
13 6 17 2 17 -17 0 -36 72 -142 117 -172 l38 -26 -35 0 c-43 0 -34 -8 65 -53
l80 -36 135 10 c74 5 149 14 165 18 27 7 25 8 -27 15 -32 4 -58 11 -58 15 0 9
77 22 114 20 19 -1 18 -2 -4 -9 -23 -7 -22 -8 10 -9 19 -1 53 -4 75 -8 l40 -7
-55 -17 -55 -17 40 -2 c35 -1 37 -2 17 -11 -13 -5 -53 -13 -90 -19 -135 -21
-135 -21 -41 -40 78 -16 157 -46 147 -56 -3 -2 -37 5 -77 17 -41 11 -75 18
-77 16 -3 -2 16 -15 41 -28 60 -32 42 -38 -113 -37 -68 0 -126 -3 -129 -6 -4
-3 2 -6 13 -7 10 0 42 -11 69 -25 28 -13 41 -22 30 -19 -48 11 -120 23 -123
20 -2 -2 10 -11 26 -19 17 -9 34 -21 38 -27 5 -8 2 -10 -7 -5 -18 9 11 -14 81
-66 60 -44 60 -44 -37 -21 -31 7 -29 -3 5 -22 26 -16 26 -16 2 -10 -14 3 -43
9 -65 12 l-40 6 75 -71 c73 -69 74 -71 45 -71 -16 0 -51 4 -77 8 l-47 8 36
-41 c20 -22 48 -50 62 -62 30 -26 23 -41 -11 -24 -17 9 -16 6 7 -13 42 -35 29
-39 -29 -11 -28 13 -52 24 -54 24 -2 0 11 -21 30 -47 49 -69 54 -78 37 -68 -8
5 -26 17 -41 27 -41 28 -34 8 12 -37 45 -44 46 -54 1 -31 -29 15 -30 15 -24
-1 5 -14 0 -12 -20 6 -35 31 -35 10 -1 -35 32 -42 21 -43 -25 -4 -19 16 -37
28 -39 25 -3 -3 7 -28 22 -57 20 -39 23 -48 9 -36 -10 8 -23 13 -30 11 -6 -2
-14 1 -18 6 -3 6 -13 11 -22 11 -12 0 -12 -6 6 -35 24 -41 21 -44 -13 -10 -31
31 -51 34 -36 6 15 -29 13 -33 -12 -21 -21 10 -21 9 2 -9 21 -18 23 -22 10
-31 -8 -6 -25 -8 -37 -5 -16 4 -23 1 -23 -10 0 -8 5 -15 10 -15 22 0 8 -21
-32 -47 -32 -20 -39 -28 -25 -31 27 -6 20 -28 -15 -51 -34 -20 -88 -82 -88
-99 0 -6 -7 -12 -15 -16 -8 -3 -27 -31 -43 -63 -15 -32 -37 -71 -48 -88 l-19
-30 32 23 c17 12 35 22 40 22 4 0 15 13 24 28 19 34 84 80 194 139 93 49 93
56 0 14 -36 -17 -65 -28 -65 -26 0 17 123 81 205 108 l100 32 -50 5 c-54 5
-52 13 8 24 21 4 35 11 32 16 -3 5 18 21 47 36 29 15 47 29 40 31 -23 8 -1 23
34 23 19 0 33 4 30 8 -5 8 58 41 104 56 9 2 5 5 -9 5 -19 1 -21 4 -12 15 7 8
29 22 49 32 20 9 31 19 24 22 -18 6 14 42 37 42 13 0 13 2 2 9 -18 11 -5 31
20 31 10 0 18 6 16 13 -1 6 5 11 13 9 11 -2 10 2 -3 12 -18 14 -18 15 2 25 40
22 141 -18 141 -56 0 -11 -9 -12 -37 -7 -21 4 -35 4 -32 0 8 -8 112 -26 118
-20 3 3 -15 25 -39 49 -44 45 -44 45 -17 45 32 0 33 7 8 34 -10 12 -26 33 -36
48 l-17 28 33 -6 34 -5 -38 33 c-41 36 -46 54 -19 61 14 4 13 5 -4 6 -20 1
-54 29 -54 46 0 4 27 5 60 2 33 -3 62 -2 65 3 2 4 -15 15 -38 26 l-42 18 50 3
c83 6 84 13 3 39 -43 14 -78 29 -78 33 0 4 31 11 69 15 38 3 77 9 85 12 21 8
10 22 -66 81 -59 45 -66 63 -25 63 31 0 97 19 97 28 0 4 -14 16 -31 26 -18 11
-28 24 -25 32 3 7 -2 18 -12 23 -14 8 -10 12 25 26 57 23 62 42 15 55 -42 12
-96 49 -72 50 9 0 5 6 -10 15 -14 8 -21 14 -16 15 5 0 -1 12 -15 26 l-24 27
25 -5 c14 -3 33 -9 43 -13 12 -5 17 -3 17 8 0 16 -76 97 -92 97 -5 0 -6 5 -2
11 3 6 -9 26 -27 45 -27 28 -31 37 -20 44 11 6 2 20 -40 62 -67 65 -80 85
-107 168 -22 69 -72 261 -72 279 0 6 16 11 36 11 51 0 99 48 90 91 -5 28 -2
31 32 46 57 23 94 55 175 150 155 183 192 270 267 633 18 88 37 136 116 300
103 214 152 353 183 511 106 551 -10 812 -350 786 -156 -12 -366 -111 -532
-250 -45 -39 -598 -620 -624 -658 -7 -9 -32 -32 -54 -50 -36 -28 -40 -30 -30
-10 7 12 10 25 7 28 -3 3 -13 -11 -22 -31 -21 -44 -49 -50 -40 -8 l7 27 -21
-25 c-21 -26 -39 -81 -59 -181 -8 -39 -22 -68 -44 -93 l-32 -35 -275 11 c-290
13 -386 14 -620 9 l-145 -3 -23 29 c-42 51 -52 86 -52 195 0 103 -8 137 -29
124 -6 -4 -11 -3 -11 2 0 6 -9 8 -20 5 -11 -3 -20 -12 -20 -19 0 -8 -4 -14 -8
-14 -5 0 -14 -12 -21 -27 -13 -27 -13 -27 -40 43 -55 141 -406 604 -587 775
-193 181 -382 261 -561 238z m230 -399 c14 -11 56 -63 93 -115 37 -52 69 -95
71 -95 9 0 -61 116 -96 160 -20 25 31 -18 112 -95 81 -77 155 -150 163 -163
32 -49 23 -12 -14 54 -46 84 -91 151 -146 219 l-41 50 35 -26 c50 -37 162
-169 222 -261 28 -43 53 -78 55 -78 3 0 2 17 -2 38 -9 50 5 34 22 -25 l13 -48
-5 50 -5 49 25 -34 c46 -62 70 -147 92 -320 8 -65 8 -65 13 50 l5 115 17 -35
c10 -19 18 -29 18 -22 0 7 4 11 9 8 5 -3 12 -32 16 -63 6 -44 9 -53 16 -38 16
41 9 -14 -13 -102 -14 -57 -24 -80 -28 -69 -5 14 -10 8 -20 -25 -13 -41 -15
-42 -18 -16 -4 35 -22 25 -22 -14 0 -36 -15 -37 -35 -1 l-16 27 5 -30 c3 -16
8 -61 11 -100 3 -38 8 -92 11 -120 5 -47 4 -49 -11 -30 -32 38 -67 131 -81
213 -23 128 -51 182 -152 284 -87 90 -295 278 -306 278 -4 0 20 -33 51 -74
142 -182 183 -236 178 -236 -3 0 -21 17 -41 38 -25 26 -11 -1 47 -88 45 -69
100 -144 123 -167 22 -24 36 -43 30 -43 -5 0 -14 4 -20 9 -27 27 -244 95 -244
77 0 -3 21 -17 48 -31 26 -14 36 -23 23 -19 -19 5 -17 0 15 -28 22 -19 48 -41
60 -49 41 -28 86 -70 81 -75 -3 -3 -13 3 -23 13 -11 11 -32 25 -49 32 -26 11
-22 4 28 -46 31 -32 57 -62 57 -65 0 -4 -21 -8 -47 -10 -59 -4 -68 -26 -20
-49 41 -20 49 -49 13 -49 -44 0 -38 -18 19 -50 51 -29 95 -72 95 -92 0 -5 -19
2 -42 16 -39 22 -53 25 -139 23 -90 -2 -98 0 -144 28 -53 33 -73 62 -36 52 28
-7 27 1 -5 26 -24 19 -25 21 -9 27 15 5 11 12 -25 41 -124 99 -183 167 -195
225 -5 22 -4 25 4 13 15 -23 101 -92 108 -86 2 3 -9 26 -26 51 -17 24 -44 81
-60 125 l-28 81 45 -37 c41 -33 44 -34 37 -12 -4 13 -26 62 -49 109 -45 93
-53 113 -37 90 7 -11 13 -12 21 -4 7 7 8 37 0 100 -13 120 -13 124 9 124 26 0
37 18 46 70 13 72 6 111 -30 178 -19 34 -30 62 -25 62 6 0 10 -3 10 -7 1 -5
12 -21 26 -38 l26 -30 -7 35 c-4 19 -9 46 -12 60 -8 36 9 17 46 -50 28 -51 31
-53 30 -25 0 17 -6 47 -13 68 -16 44 -4 49 37 17z m-162 -133 c23 -28 26 -36
10 -22 -26 23 -71 82 -54 72 6 -4 26 -26 44 -50z m48 -21 c-2 -2 -13 8 -23 22
l-19 27 24 -22 c12 -12 21 -24 18 -27z m-48 -13 c13 -16 12 -17 -3 -4 -10 7
-18 15 -18 17 0 8 8 3 21 -13z m-31 -44 c19 -17 26 -26 15 -20 -30 15 -71 51
-60 51 6 -1 26 -14 45 -31z m3520 -49 c-36 -33 -69 -59 -75 -59 -5 0 19 27 55
59 36 33 70 60 75 60 6 -1 -19 -27 -55 -60z m88 18 c-25 -33 -124 -95 -135
-84 -3 3 9 12 28 21 19 8 54 33 79 54 55 49 60 51 28 9z m-304 -20 c-17 -18
-43 -51 -59 -73 l-29 -40 34 28 c71 56 165 117 182 117 22 0 22 2 -2 -54 -19
-42 -40 -61 -40 -36 0 6 5 10 12 10 6 0 8 3 5 7 -4 4 -21 -4 -38 -16 -16 -12
-51 -37 -77 -54 -52 -35 -222 -195 -222 -208 0 -5 33 15 73 44 39 29 109 78
154 110 l81 56 20 -33 20 -34 -41 -39 c-23 -22 -88 -79 -144 -127 -127 -109
-184 -193 -208 -306 -22 -107 -32 -134 -60 -160 -30 -28 -30 -28 -14 104 8 67
8 90 -1 96 -9 5 -9 17 -1 46 8 27 7 49 -1 76 -8 29 -8 44 1 64 17 37 10 38
-30 4 -39 -34 -61 -40 -34 -10 18 20 18 21 1 14 -16 -6 -17 -3 -11 17 4 13 32
74 63 134 60 118 121 190 217 255 l50 34 -40 -49 c-23 -28 -47 -63 -54 -80
-11 -26 -4 -22 46 27 87 85 218 153 147 76z m334 -82 c-56 -83 -57 -104 -1
-81 19 8 37 15 40 15 13 0 -14 -129 -47 -227 -21 -62 -36 -113 -33 -113 3 0
21 17 40 38 42 45 36 33 -44 -87 -69 -102 -82 -141 -35 -100 15 13 51 46 79
73 29 27 55 48 58 45 2 -3 -20 -43 -50 -89 -84 -129 -69 -139 38 -26 37 39 38
40 23 10 -8 -17 -27 -62 -41 -100 -14 -38 -47 -107 -73 -154 -57 -103 -61
-112 -34 -80 l21 25 -14 -40 c-13 -38 -12 -40 6 -43 11 -2 19 -7 17 -10 -8
-18 -61 -111 -80 -140 -24 -38 -22 -41 23 -48 46 -7 86 21 163 115 71 86 92
100 83 52 -15 -74 -71 -187 -112 -227 -50 -49 -168 -108 -196 -99 -11 4 -31 0
-44 -9 -23 -15 -24 -15 -18 1 7 18 -7 13 -41 -16 -18 -16 -18 -15 -3 15 l16
32 -41 -9 c-50 -12 -59 -6 -18 11 38 16 39 33 3 26 -76 -14 -113 -17 -128 -9
-13 7 -6 15 34 42 53 34 78 60 47 48 -11 -4 -15 -3 -11 4 4 6 14 8 22 5 9 -4
30 6 49 24 38 33 30 39 -17 14 -39 -20 -50 -11 -12 10 l28 16 -29 -6 c-22 -5
-27 -4 -21 6 8 13 3 13 -132 -6 -29 -3 -53 -4 -53 -2 0 3 17 17 38 30 61 41
168 136 198 176 l27 37 -34 -32 c-42 -40 -62 -44 -28 -5 l24 27 -25 -21 c-78
-64 -240 -150 -240 -126 0 10 90 104 120 124 25 16 24 17 -30 12 -52 -5 -54
-4 -35 11 11 9 52 37 90 62 84 54 118 84 65 57 -36 -18 -160 -48 -168 -40 -9
10 13 29 56 48 25 12 60 29 76 40 l31 19 -62 -7 c-35 -4 -63 -3 -63 2 0 5 41
43 90 83 49 41 88 77 86 79 -4 3 -71 -13 -102 -25 -27 -10 -14 16 39 76 29 33
61 75 71 92 l18 31 -25 -17 c-14 -9 -27 -15 -29 -14 -3 3 -69 -37 -131 -79
-20 -14 -39 -23 -42 -21 -8 9 44 104 77 140 18 20 71 68 118 107 47 38 119
105 160 147 72 74 179 155 206 155 7 0 -10 -33 -38 -74z m-278 -10 c0 -2 -8
-10 -17 -17 -16 -13 -17 -12 -4 4 13 16 21 21 21 13z m-2875 -551 l20 -16 -20
10 c-11 5 -29 17 -40 26 l-20 16 20 -10 c11 -5 29 -17 40 -26z m1472 -113 c27
-2 89 -55 109 -94 30 -58 42 -300 14 -283 -14 9 -22 -85 -19 -244 1 -108 -3
-188 -14 -258 -10 -57 -17 -118 -17 -137 0 -36 -35 -90 -52 -80 -22 14 -136
35 -193 36 -66 1 -141 -9 -167 -23 -12 -7 -22 -3 -36 16 -16 20 -21 48 -26
157 -6 98 -14 155 -33 218 -20 66 -28 81 -34 65 -4 -11 -8 -31 -9 -45 -1 -23
-2 -23 -15 9 -8 18 -14 45 -14 60 1 26 2 25 9 -4 l8 -30 1 30 c2 40 -41 275
-50 275 -4 0 -5 -10 -1 -22 5 -21 4 -22 -14 -8 -43 32 -64 54 -64 67 0 10 5
11 19 3 11 -5 27 -10 37 -10 14 0 14 3 4 15 -11 14 -10 14 14 6 26 -11 26 -11
10 15 -24 36 -12 38 23 4 l30 -29 -5 49 c-2 27 -1 62 3 77 7 28 7 28 25 -17
l18 -45 7 40 c4 22 16 70 28 107 19 62 23 67 44 62 16 -4 23 -2 23 7 0 11 31
14 158 13 86 0 167 -1 179 -2z m-909 -114 c-85 -84 -112 -118 -149 -188 -30
-58 -68 -111 -121 -166 -61 -65 -87 -103 -130 -188 -49 -101 -144 -226 -170
-226 -5 0 11 24 36 53 27 29 73 105 108 176 49 99 75 139 133 200 42 46 92
114 121 165 53 96 124 174 212 235 31 22 59 40 61 40 2 1 -43 -45 -101 -101z
m1614 7 c26 -31 70 -101 97 -154 29 -55 76 -125 110 -161 74 -83 95 -125 115
-231 35 -187 78 -271 168 -330 69 -44 69 -50 0 -15 -56 29 -112 86 -140 141
-18 37 -62 193 -62 222 0 38 -48 131 -101 194 -32 39 -84 117 -115 174 -31 57
-81 136 -111 176 -65 86 -33 73 39 -16z m-2543 -171 c39 -51 61 -59 139 -51
46 5 62 2 90 -15 39 -24 37 -33 -4 -17 -89 34 -83 16 21 -71 47 -39 85 -73 85
-75 0 -3 -19 8 -42 24 -24 16 -54 32 -68 36 l-25 6 25 -18 c13 -10 36 -29 50
-42 l25 -23 -27 16 c-16 9 -38 22 -50 30 -13 8 -41 19 -63 26 -22 7 -48 19
-58 28 -25 22 -30 10 -19 -41 l9 -44 -61 20 c-73 24 -100 47 -131 107 -35 69
-83 213 -91 272 l-7 53 84 -89 c46 -48 99 -108 118 -132z m139 55 c59 -51 79
-84 26 -42 -46 37 -91 83 -80 83 4 0 29 -18 54 -41z m2036 -18 c3 -4 -6 -13
-19 -19 -27 -12 -33 -4 -13 16 14 14 25 15 32 3z m92 -46 c-11 -8 -25 -15 -30
-15 -6 0 -5 -4 3 -9 11 -7 7 -13 -17 -25 -17 -9 -36 -16 -42 -16 -12 0 -9 22
5 33 6 5 -5 6 -22 3 -18 -3 -33 -3 -33 0 0 3 15 12 33 20 l32 15 -35 -6 c-26
-5 -31 -4 -20 4 8 6 44 11 80 11 59 -1 63 -2 46 -15z m-1986 -29 c8 -4 -1 -4
-20 -1 -19 3 -39 10 -44 15 -10 10 19 3 64 -14z m989 -50 c8 -9 10 -16 5 -16
-16 0 -74 39 -74 50 0 13 51 -12 69 -34z m1115 25 c21 -5 44 -15 50 -21 8 -10
6 -10 -11 -1 -12 6 -46 10 -75 9 l-53 -1 60 -6 c54 -5 124 -35 112 -47 -2 -3
-24 0 -48 5 -39 9 -42 8 -25 -5 22 -16 5 -18 -29 -4 -14 6 -16 9 -5 10 37 5
-43 18 -115 20 -44 1 -73 4 -65 7 8 3 18 10 21 15 15 23 118 34 183 19z
m-1172 -29 c9 -9 9 -12 -2 -12 -9 0 -8 -5 6 -16 18 -14 18 -15 -6 -8 -25 7
-25 7 -6 -15 25 -28 14 -27 -34 4 -52 33 -51 24 3 -25 l42 -40 -74 0 -75 0 34
-25 c37 -28 19 -35 -20 -8 -32 21 -16 4 38 -41 47 -39 37 -47 -25 -21 -20 8
-38 14 -40 11 -6 -5 64 -45 92 -52 45 -11 14 -26 -43 -22 -46 4 -59 10 -79 34
l-23 29 22 17 c19 13 20 19 9 32 -7 8 -11 21 -8 28 2 7 0 23 -4 35 -7 18 -5
21 8 16 11 -4 14 -3 9 5 -5 9 6 12 36 12 29 0 38 3 29 9 -12 8 -12 12 2 25 9
9 14 22 11 29 -6 16 81 16 98 -1z m1206 -68 c45 -13 20 -24 -52 -24 -111 0
-108 22 4 28 14 1 35 -1 48 -4z m-41 -40 c-3 -3 -12 -4 -19 -1 -8 3 -5 6 6 6
11 1 17 -2 13 -5z m15 -40 c21 -4 35 -10 32 -15 -7 -13 -34 -10 -69 6 -33 15
-20 18 37 9z m1178 -106 c-12 -29 -33 -68 -47 -85 -21 -29 -29 -33 -73 -33
-27 0 -52 5 -56 11 -9 15 42 65 102 99 28 16 59 39 69 50 28 31 30 16 5 -42z
m-2470 -48 c0 -5 -21 -16 -47 -24 l-48 -15 55 -1 55 -2 -60 -14 c-64 -16 -124
-14 -76 1 20 7 22 9 8 14 -11 4 -13 11 -8 20 14 22 121 41 121 21z m287 -37
c-3 -10 -5 -2 -5 17 0 19 2 27 5 18 2 -10 2 -26 0 -35z m-163 -49 c36 -27 66
-86 66 -130 0 -63 -8 -68 -76 -50 -32 8 -86 18 -119 22 -33 3 -69 8 -80 9 -11
2 -26 4 -34 4 -8 1 2 17 25 39 21 20 37 38 36 40 -8 9 2 22 26 30 l27 10 -34
1 c-40 1 -35 10 22 33 50 21 105 18 141 -8z m1056 -70 c26 -11 51 -31 70 -59
l29 -42 -92 -7 c-51 -4 -118 -9 -149 -13 l-57 -5 -6 35 c-4 19 -2 44 4 54 26
49 126 67 201 37z m-1155 -113 c39 -5 97 -16 130 -26 53 -15 69 -27 138 -98
l77 -81 76 18 c83 20 178 16 240 -10 59 -25 77 -19 133 45 67 78 126 106 261
127 172 26 391 5 680 -66 68 -16 138 -30 155 -31 16 0 39 -4 50 -9 17 -6 13
-9 -20 -15 -130 -22 -120 -17 -120 -55 0 -34 2 -35 40 -38 21 -2 54 -1 73 3
27 5 33 10 30 28 -3 23 -24 22 -22 -1 3 -19 -57 -11 -70 10 -14 22 -10 24 50
33 l51 6 6 -43 c7 -49 3 -53 -64 -62 -68 -9 -92 -41 -119 -163 -64 -281 -141
-385 -324 -438 -126 -37 -366 -16 -461 40 -107 62 -216 216 -276 388 -38 111
-110 156 -225 141 -88 -11 -112 -34 -160 -151 -70 -173 -170 -301 -274 -351
-182 -87 -438 -61 -573 58 -66 57 -112 173 -157 393 -15 74 -42 104 -105 120
l-50 12 -3 58 c-2 32 2 64 8 72 13 16 78 28 315 59 281 37 379 42 510 27z
m-880 -46 c-25 -8 -115 -11 -115 -4 0 5 28 9 63 8 34 0 58 -2 52 -4z m2715
-168 c0 -5 -4 -5 -10 -2 -5 3 -10 14 -10 23 0 15 2 15 10 2 5 -8 10 -19 10
-23z m-2742 -684 c23 -15 44 -34 47 -42 5 -12 3 -12 -12 1 -10 9 -40 27 -68
41 -33 17 -43 26 -30 27 12 0 40 -12 63 -27z m32 -58 c19 -13 55 -44 80 -70
25 -25 66 -62 93 -82 26 -19 47 -39 47 -43 0 -5 -12 -11 -27 -13 l-28 -4 30
-2 c17 -1 39 -8 49 -16 18 -14 17 -15 -25 -14 -35 0 -40 2 -24 10 15 7 9 8
-20 4 -29 -4 -36 -3 -25 4 11 8 -1 11 -46 11 -98 0 -214 12 -208 21 3 5 20 9
37 10 l32 1 -32 10 c-50 16 -40 28 23 28 34 0 53 4 49 10 -3 6 -18 10 -33 10
-15 0 -34 4 -41 9 -16 10 0 19 63 38 l30 9 -36 22 c-32 20 -68 61 -68 77 0 10
42 -6 80 -30z m3140 -133 c19 -8 -6 -11 -105 -11 -102 0 -126 2 -110 11 44 26
152 26 215 0z m55 -682 c16 -16 25 -30 19 -30 -16 0 -74 39 -74 50 0 19 26 10
55 -20z m-3439 -25 c-7 -18 -26 -20 -26 -2 0 18 24 41 28 27 2 -6 1 -17 -2
-25z m3584 -781 c18 -30 30 -57 28 -59 -5 -5 -43 38 -40 45 1 3 -3 5 -10 5 -6
0 -12 7 -14 15 -1 8 -5 23 -9 33 -16 40 16 13 45 -39z m-4671 -4 c55 -22 207
-93 338 -159 379 -189 549 -259 1048 -427 105 -36 253 -83 330 -105 291 -83
458 -144 610 -223 44 -22 86 -40 93 -39 6 0 12 -3 12 -7 0 -4 33 -31 73 -61
127 -94 244 -214 280 -288 l32 -66 3 -200 c4 -209 -7 -343 -36 -430 l-16 -50
-8 60 c-17 128 -156 345 -335 522 -136 135 -194 181 -328 265 -159 99 -325
171 -500 216 -88 23 -103 30 -93 41 7 8 -1 6 -19 -5 -18 -10 -31 -19 -30 -20
1 -2 45 -11 97 -22 462 -95 934 -458 1157 -892 33 -65 45 -141 39 -255 -3 -55
-8 -163 -12 -240 -3 -77 -8 -148 -10 -157 -9 -32 -25 -19 -24 20 4 91 -12 361
-25 433 -23 132 -80 229 -258 440 -123 144 -211 224 -380 342 -176 123 -304
163 -727 227 -298 46 -330 54 -790 200 -157 50 -319 100 -360 111 -103 28
-203 60 -215 69 -5 4 -41 18 -80 30 -38 13 -170 63 -293 112 -123 49 -248 96
-278 105 -30 10 -54 20 -54 23 0 3 12 13 28 22 15 9 65 46 112 83 47 37 162
118 255 180 94 63 186 130 204 149 19 20 41 36 48 36 7 0 58 -18 112 -40z
m4691 -93 c0 -17 -2 -17 -30 3 -20 14 -30 30 -30 48 l0 26 30 -29 c17 -16 30
-37 30 -48z m-29 -51 c10 -22 18 -50 18 -61 0 -14 -4 -12 -11 10 -6 17 -19 42
-29 57 -11 14 -19 31 -19 38 0 21 22 -2 41 -44z m-43 -48 c23 -70 37 -136 29
-128 -6 6 -67 174 -67 184 0 3 4 6 9 6 5 0 18 -28 29 -62z m-433 -44 c-11 -8
-29 -21 -40 -29 -19 -14 -18 -15 10 -9 23 4 26 3 15 -5 -8 -6 -24 -11 -35 -11
-27 -1 -97 -45 -87 -55 4 -4 2 -5 -5 -1 -7 4 -25 -1 -40 -9 -62 -37 41 41 116
87 76 47 103 60 66 32z m54 -68 c-2 -2 -38 -6 -79 -9 -48 -4 -68 -3 -55 3 19
8 143 14 134 6z m-2330 -247 c42 -41 96 -97 120 -124 27 -29 46 -44 49 -36 3
9 12 5 31 -11 14 -12 20 -16 14 -8 -21 24 -14 34 9 14 l21 -19 -18 28 c-12 19
-20 24 -26 16 -4 -8 -13 0 -23 22 -15 31 -15 32 -1 14 9 -11 20 -19 25 -18 5
2 23 -14 39 -34 32 -39 40 -59 19 -47 -8 4 -10 3 -5 -2 5 -5 12 -8 15 -7 9 3
112 -98 112 -109 0 -5 -17 0 -37 11 -114 57 -200 87 -723 247 -85 26 -161 50
-169 54 -9 5 4 13 37 24 56 19 83 41 35 30 -15 -4 -43 -13 -62 -20 -61 -25
-57 -13 9 22 44 23 55 33 35 29 l-30 -7 23 20 c30 26 104 46 144 38 116 -22
112 -22 105 10 -3 16 -4 23 -1 17 6 -14 134 -106 140 -100 2 2 -1 18 -6 36 -6
21 -5 42 2 59 10 27 10 26 26 -23 12 -39 33 -67 91 -126z m2699 105 c25 -28
26 -43 8 -93 l-12 -35 -33 47 c-22 32 -30 54 -26 67 4 11 12 18 18 14 7 -3 4
1 -5 9 -10 8 -18 17 -18 21 0 14 46 -6 68 -30z m-5203 -114 c88 -44 207 -97
265 -118 172 -64 370 -145 366 -150 -8 -7 -388 139 -521 200 -142 66 -320 138
-345 139 -10 0 -9 3 5 9 32 13 60 3 230 -80z m5163 -10 c12 -12 22 -28 22 -36
0 -10 -12 -5 -40 17 -22 18 -40 34 -40 36 0 11 40 0 58 -17z m-5258 0 c8 -5
11 -10 5 -10 -5 0 -17 5 -25 10 -8 5 -10 10 -5 10 6 0 17 -5 25 -10z m80 -35
c14 -8 21 -14 15 -14 -5 0 -21 6 -35 14 -14 8 -20 14 -15 14 6 0 21 -6 35 -14z
m5167 -12 c49 -20 53 -30 20 -38 -15 -4 -40 2 -67 16 -37 19 -40 24 -24 30 27
11 24 11 71 -8z m-5057 -38 c14 -8 21 -14 15 -14 -5 0 -21 6 -35 14 -14 8 -20
14 -15 14 6 0 21 -6 35 -14z m5015 -15 c8 0 15 -4 15 -10 0 -5 -2 -10 -5 -10
-15 0 -73 29 -80 40 -4 7 5 5 23 -4 17 -9 38 -16 47 -16z m-2436 -25 c0 -5 -6
-1 -14 9 -8 11 -15 24 -15 30 0 5 7 1 15 -10 8 -10 14 -23 14 -29z m-2481 0
c24 -10 41 -19 39 -22 -3 -2 -29 8 -58 22 -59 27 -50 28 19 0z m82 -35 c8 -5
11 -10 5 -10 -5 0 -17 5 -25 10 -8 5 -10 10 -5 10 6 0 17 -5 25 -10z m423 -69
c268 -102 505 -195 561 -220 28 -12 58 -19 70 -16 15 5 17 4 8 -3 -10 -7 4
-16 50 -34 101 -40 198 -69 209 -62 10 6 323 -125 316 -132 -3 -4 -147 55
-201 82 -33 16 -59 19 -36 4 8 -5 13 -10 10 -10 -17 0 -320 113 -510 190 -295
121 -362 147 -440 175 -120 43 -245 94 -232 95 7 0 94 -31 195 -69z m-353 39
c8 -5 11 -10 5 -10 -5 0 -17 5 -25 10 -8 5 -10 10 -5 10 6 0 17 -5 25 -10z
m495 -50 c13 -5 14 -9 5 -9 -8 0 -24 4 -35 9 -13 5 -14 9 -5 9 8 0 24 -4 35
-9z m6274 5 c-8 -7 -193 -75 -196 -71 -6 6 161 73 186 75 8 1 12 -1 10 -4z
m-6614 -15 c13 -6 15 -9 5 -9 -8 0 -22 4 -30 9 -18 12 -2 12 25 0z m6740 2
c-6 -5 -80 -35 -165 -67 -140 -52 -295 -116 -405 -165 -51 -23 -266 -109 -370
-148 -124 -47 -792 -237 -970 -277 -88 -19 -177 -39 -197 -43 -20 -5 -42 -6
-48 -2 -6 3 31 14 82 24 98 19 263 58 338 80 25 8 90 28 145 45 55 17 201 60
324 96 296 87 545 176 831 294 384 160 468 191 435 163z m-6489 -48 c54 -19
125 -45 157 -56 32 -11 56 -22 54 -24 -4 -5 -281 92 -307 107 -28 16 -4 9 96
-27z m189 26 c13 -5 14 -9 5 -9 -8 0 -24 4 -35 9 -13 5 -14 9 -5 9 8 0 24 -4
35 -9z m-260 -41 c64 -23 114 -43 111 -46 -4 -4 -168 53 -221 77 -47 21 2 7
110 -31z m535 -44 c129 -41 319 -100 422 -130 102 -30 209 -63 236 -74 67 -27
402 -194 398 -199 -2 -2 -21 5 -43 16 -21 11 -112 47 -203 82 -149 55 -217 85
-150 65 51 -16 54 -15 15 3 -44 21 -274 98 -485 162 -196 60 -440 141 -440
146 0 8 16 3 250 -71z m-330 -32 c30 -11 31 -12 6 -8 -16 4 -43 13 -60 20 -23
11 -25 13 -6 8 14 -3 41 -12 60 -20z m3710 12 c-14 -8 -45 -21 -70 -29 -25 -8
-78 -26 -118 -40 -41 -14 -77 -26 -80 -26 -17 1 28 21 75 35 29 9 52 20 50 27
-1 6 5 13 13 15 13 4 13 3 0 -6 -13 -10 -13 -11 0 -11 8 0 22 5 30 10 13 9 13
10 0 10 -9 1 -6 5 8 10 12 5 28 7 35 4 7 -2 24 0 38 5 36 15 47 12 19 -4z
m-3413 -114 c103 -43 195 -81 203 -85 8 -3 2 -3 -15 0 -16 3 -97 34 -180 69
-82 35 -176 71 -207 80 -32 9 -58 19 -58 22 0 14 85 -14 257 -86z m-182 9 c13
-5 14 -9 5 -9 -8 0 -24 4 -35 9 -13 5 -14 9 -5 9 8 0 24 -4 35 -9z m395 0 c18
-12 2 -12 -25 0 -13 6 -15 9 -5 9 8 0 22 -4 30 -9z m65 -20 c13 -5 14 -9 5 -9
-8 0 -24 4 -35 9 -13 5 -14 9 -5 9 8 0 24 -4 35 -9z m75 -26 l25 -15 -25 7
c-14 3 -32 10 -40 15 -13 7 -13 8 0 8 8 0 26 -6 40 -15z m4553 9 c-7 -2 -19
-2 -25 0 -7 3 -2 5 12 5 14 0 19 -2 13 -5z m37 -7 c0 -5 -104 -36 -117 -35 -8
1 95 37 110 38 4 1 7 -1 7 -3z m-125 -16 c-11 -5 -27 -9 -35 -9 -13 -1 -13 0
0 9 8 5 24 9 35 9 l20 0 -20 -9z m-90 -20 c-3 -5 -12 -10 -18 -10 -7 0 -6 4 3
10 19 12 23 12 15 0z m51 -16 c-22 -8 -45 -13 -50 -10 -6 2 5 8 24 14 52 15
71 13 26 -4z m-87 2 c-12 -10 -69 -24 -69 -16 0 5 10 11 23 13 31 6 51 8 46 3z
m-4479 -36 c19 -11 31 -19 25 -19 -5 0 -26 8 -45 19 -19 11 -30 19 -25 19 6 0
26 -8 45 -19z m4499 16 c-8 -8 -222 -77 -226 -72 -2 2 42 20 99 39 94 32 138
44 127 33z m-131 -16 c-14 -4 -31 -11 -37 -15 -6 -3 -11 -2 -11 4 0 10 23 19
55 19 14 0 12 -2 -7 -8z m-68 -20 c0 -5 -12 -10 -27 -9 l-28 1 25 8 c14 4 26
8 28 9 1 1 2 -3 2 -9z m-160 -45 c-107 -24 -159 -31 -105 -14 55 18 150 37
180 37 17 0 -17 -10 -75 -23z m105 -5 c-27 -12 -43 -12 -25 0 8 5 22 9 30 9
10 0 8 -3 -5 -9z m-3263 -50 c77 -33 153 -80 253 -156 85 -65 177 -147 128
-114 -18 11 -35 26 -39 31 -3 6 -51 44 -107 85 -84 63 -191 122 -327 183 l-25
11 25 -6 c14 -4 55 -19 92 -34z m-412 15 c14 -8 21 -14 15 -14 -5 0 -21 6 -35
14 -14 8 -20 14 -15 14 6 0 21 -6 35 -14z m3370 -5 c-14 -4 -34 -8 -45 -8
l-20 -1 20 9 c11 5 31 8 45 8 l25 0 -25 -8z m-3430 -94 c238 -78 314 -108 460
-181 364 -182 519 -314 630 -536 28 -54 50 -104 49 -111 0 -7 -20 27 -45 76
-110 220 -243 342 -563 516 -197 107 -282 144 -421 185 -166 49 -428 143 -400
145 3 0 133 -42 290 -94z m120 74 c8 -5 11 -10 5 -10 -5 0 -17 5 -25 10 -8 5
-10 10 -5 10 6 0 17 -5 25 -10z m3075 -35 c-93 -24 -215 -58 -270 -75 -206
-66 -264 -82 -410 -115 -82 -18 -181 -43 -220 -55 -38 -12 -85 -25 -103 -30
-97 -24 -291 -141 -396 -239 -40 -38 -168 -226 -213 -314 -35 -69 -83 -200
-95 -262 -11 -56 -27 -93 -28 -63 0 9 9 72 20 140 29 172 72 258 204 412 72
84 302 278 372 315 72 37 238 85 528 152 122 28 268 64 326 80 91 25 177 46
360 87 25 5 56 10 70 10 14 0 -51 -19 -145 -43z m-2440 -44 c141 -96 238 -179
277 -236 11 -17 4 -12 -16 12 -44 51 -185 163 -282 225 -40 26 -75 52 -79 58
-9 15 -6 13 100 -59z m-492 16 c50 -24 162 -89 247 -144 85 -56 186 -121 224
-145 109 -69 276 -217 328 -291 12 -18 -10 2 -50 45 -64 67 -205 184 -295 244
-205 136 -371 238 -457 281 -127 63 -126 70 3 10z m162 23 c3 -6 -1 -7 -9 -4
-18 7 -21 14 -7 14 6 0 13 -4 16 -10z m3212 -6 c-3 -3 -12 -4 -19 -1 -8 3 -5
6 6 6 11 1 17 -2 13 -5z m-3167 -14 c8 -5 11 -10 5 -10 -5 0 -17 5 -25 10 -8
5 -10 10 -5 10 6 0 17 -5 25 -10z m1154 -69 c-20 -85 -31 -88 -14 -4 16 76 19
87 26 80 3 -3 -2 -37 -12 -76z m1966 75 c0 -2 -87 -25 -192 -51 -416 -99 -560
-138 -746 -201 -106 -36 -198 -64 -204 -62 -5 2 16 12 48 22 33 10 115 38 183
63 137 49 367 111 681 184 210 48 230 52 230 45z m1377 -32 c-3 -3 -12 -4 -19
-1 -8 3 -5 6 6 6 11 1 17 -2 13 -5z m-1102 -14 c-11 -5 -27 -9 -35 -9 -9 0 -8
4 5 9 11 5 27 9 35 9 9 0 8 -4 -5 -9z m1012 -6 c-3 -3 -12 -4 -19 -1 -8 3 -5
6 6 6 11 1 17 -2 13 -5z m-1082 -14 c-27 -12 -43 -12 -25 0 8 5 22 9 30 9 10
0 8 -3 -5 -9z m962 -6 c-3 -3 -12 -4 -19 -1 -8 3 -5 6 6 6 11 1 17 -2 13 -5z
m-1008 -8 c-2 -2 -56 -18 -119 -35 -63 -18 -149 -42 -190 -55 -41 -13 -158
-45 -260 -70 -102 -25 -223 -58 -270 -74 -84 -29 -193 -59 -360 -102 -153 -40
-249 -78 -366 -144 -63 -36 -117 -66 -120 -66 -10 0 -85 -60 -171 -138 -94
-84 -164 -168 -216 -262 -20 -36 -37 -61 -37 -57 0 19 72 136 125 201 30 38
81 92 112 120 32 28 72 64 88 79 17 15 94 66 172 113 167 101 278 144 547 214
105 27 225 61 266 76 76 26 370 105 560 149 58 14 125 31 150 39 42 13 99 21
89 12z m958 -2 c-3 -3 -12 -4 -19 -1 -8 3 -5 6 6 6 11 1 17 -2 13 -5z m-40
-10 c-3 -3 -12 -4 -19 -1 -8 3 -5 6 6 6 11 1 17 -2 13 -5z m-150 -40 c-3 -3
-12 -4 -19 -1 -8 3 -5 6 6 6 11 1 17 -2 13 -5z m-54 -14 c-52 -21 -297 -80
-412 -99 -191 -32 -176 -23 34 19 105 22 231 50 280 63 93 25 137 32 98 17z
m332 -15 c-38 -7 -86 -16 -105 -20 -19 -4 -32 -4 -29 -1 10 10 130 34 169 34
22 0 9 -5 -35 -13z m-4054 -12 c13 -16 12 -17 -3 -4 -10 7 -18 15 -18 17 0 8
8 3 21 -13z m2418 13 c-2 -2 -52 -16 -111 -30 -59 -14 -180 -50 -269 -81 -89
-30 -164 -53 -166 -51 -2 2 31 15 74 30 43 15 101 36 128 46 41 16 198 61 290
83 26 6 59 8 54 3z m1466 -37 c-16 -5 -97 -20 -180 -34 -82 -14 -166 -30 -185
-35 -19 -6 -46 -10 -60 -9 -43 1 29 18 230 54 188 33 251 41 195 24z m-3809
-41 l29 -33 -32 29 c-31 28 -38 36 -30 36 2 0 16 -15 33 -32z m-1881 -18 c13
-6 15 -9 5 -9 -8 0 -22 4 -30 9 -18 12 -2 12 25 0z m2602 -22 c-3 -8 -6 -5 -6
6 -1 11 2 17 5 13 3 -3 4 -12 1 -19z m-666 -5 c13 -16 12 -17 -3 -4 -17 13
-22 21 -14 21 2 0 10 -8 17 -17z m3007 10 c-10 -2 -26 -2 -35 0 -10 3 -2 5 17
5 19 0 27 -2 18 -5z m-1599 -7 c-8 -8 -142 -56 -146 -52 -2 2 27 15 64 29 65
25 91 32 82 23z m1534 -3 c-7 -2 -21 -2 -30 0 -10 3 -4 5 12 5 17 0 24 -2 18
-5z m347 1 c-8 -2 -87 -12 -175 -23 -88 -12 -248 -34 -355 -50 -107 -17 -283
-42 -390 -56 -188 -24 -257 -34 -385 -56 -81 -14 -370 -93 -475 -131 -190 -68
-408 -198 -536 -320 -22 -21 -43 -36 -46 -33 -7 7 -78 -87 -106 -140 -12 -22
-21 -36 -22 -31 0 5 15 37 34 70 38 67 110 154 100 121 -4 -16 -1 -15 15 6 31
39 145 129 232 182 271 166 597 277 959 327 85 12 201 28 258 36 56 8 126 14
156 14 50 0 97 6 356 46 160 25 300 42 350 42 25 0 38 -2 30 -4z m-440 -14
c-34 -11 -60 -11 -35 0 11 5 29 8 40 8 16 0 15 -2 -5 -8z m-2620 -63 c0 -6
-11 4 -25 23 -14 19 -25 36 -25 39 1 11 50 -50 50 -62z m-179 36 c13 -16 12
-17 -3 -4 -10 7 -18 15 -18 17 0 8 8 3 21 -13z m2726 11 c-3 -3 -12 -4 -19 -1
-8 3 -5 6 6 6 11 1 17 -2 13 -5z m-5737 -8 c0 -6 -93 -37 -97 -32 -2 2 15 11
39 19 47 17 58 19 58 13z m2348 -31 c28 -13 52 -26 52 -29 0 -4 -57 18 -130
53 l-25 11 25 -6 c14 -3 49 -16 78 -29z m2340 20 c-10 -10 -232 -85 -236 -80
-6 5 -7 5 123 49 100 34 123 41 113 31z m959 -1 c-3 -3 -12 -4 -19 -1 -8 3 -5
6 6 6 11 1 17 -2 13 -5z m-1437 -9 c0 -2 -13 -11 -30 -20 -38 -19 -40 -11 -2
9 31 17 32 18 32 11z m1393 -2 c-7 -2 -19 -2 -25 0 -7 3 -2 5 12 5 14 0 19 -2
13 -5z m-50 -10 c-7 -2 -19 -2 -25 0 -7 3 -2 5 12 5 14 0 19 -2 13 -5z m-2332
-68 c7 -13 3 -12 -10 5 -11 14 -21 30 -21 35 0 11 14 -7 31 -40z m-771 9 c0
-2 -9 0 -20 6 -11 6 -20 13 -20 16 0 2 9 0 20 -6 11 -6 20 -13 20 -16z m680
-10 c0 -8 -19 -13 -24 -6 -3 5 1 9 9 9 8 0 15 -2 15 -3z m1235 -32 c-27 -15
-63 -36 -80 -47 -23 -14 -27 -15 -15 -2 17 18 120 77 135 77 6 0 -12 -13 -40
-28z m-1017 -95 c50 -87 77 -187 91 -336 12 -126 4 -308 -12 -292 -7 7 -11 94
-12 223 -2 212 -2 213 -33 297 -18 46 -50 114 -73 150 -23 36 -33 58 -22 49
11 -10 38 -51 61 -91z m-793 75 c-3 -3 -11 0 -18 7 -9 10 -8 11 6 5 10 -3 15
-9 12 -12z m65 -32 c8 -5 11 -10 5 -10 -5 0 -21 10 -35 21 -24 20 -5 13 30
-11z m1575 2 c-6 -5 -34 -26 -63 -46 -29 -21 -51 -41 -48 -44 7 -6 -40 -63
-68 -81 -12 -8 -1 7 24 32 53 56 43 63 -15 10 l-40 -38 35 38 c31 34 166 137
179 137 3 0 1 -4 -4 -8z m-3325 -52 c80 -16 197 -38 260 -50 63 -12 121 -26
127 -32 7 -6 24 -8 38 -6 14 3 22 1 18 -5 -3 -5 -29 -7 -62 -3 -69 8 -306 52
-381 71 -30 8 -66 16 -80 19 -14 3 -56 15 -95 26 -67 19 -68 20 -20 15 28 -4
115 -19 195 -35z m1816 9 c4 -8 1 -8 -14 0 -12 6 -24 16 -28 22 -4 8 -1 8 14
0 12 -6 24 -16 28 -22z m2449 26 c-12 -5 -272 -57 -396 -79 -105 -19 -232 -57
-287 -85 -23 -12 -52 -21 -64 -21 -13 0 -32 -6 -43 -13 -11 -7 -56 -28 -100
-47 -44 -18 -88 -40 -97 -48 -10 -9 -18 -10 -18 -4 0 15 74 54 255 134 187 82
365 132 435 123 34 -4 41 -3 30 5 -12 9 -11 10 7 5 12 -3 41 -1 65 6 59 16
247 37 213 24z m-5122 -22 c-7 -2 -21 -2 -30 0 -10 3 -4 5 12 5 17 0 24 -2 18
-5z m4087 3 c0 -2 -8 -10 -17 -17 -16 -13 -17 -12 -4 4 13 16 21 21 21 13z
m-4043 -12 c-3 -3 -12 -4 -19 -1 -8 3 -5 6 6 6 11 1 17 -2 13 -5z m46 -11 c-7
-2 -19 -2 -25 0 -7 3 -2 5 12 5 14 0 19 -2 13 -5z m4307 3 c0 -2 -9 -6 -20 -9
-11 -3 -18 -1 -14 4 5 9 34 13 34 5z m-4200 -20 c36 -8 99 -17 140 -21 85 -7
210 -27 350 -55 52 -10 104 -18 115 -18 25 1 365 -51 374 -57 7 -4 172 -36
440 -86 68 -13 118 -25 112 -27 -13 -4 -278 41 -426 73 -177 38 -262 52 -390
65 -66 6 -210 29 -320 50 -110 21 -227 41 -260 45 -64 7 -217 35 -224 41 -8 7
24 4 89 -10z m3830 -10 c-14 -13 -56 -52 -95 -86 -61 -55 -100 -99 -183 -205
-36 -46 -14 -7 34 60 45 64 127 148 209 214 56 45 72 53 35 17z m-1260 -23 c0
-7 -39 17 -46 28 -3 6 5 3 20 -6 14 -10 26 -19 26 -22z m2107 -18 c-70 -19
-155 -39 -188 -46 -33 -6 -62 -16 -65 -20 -3 -5 -13 -9 -23 -9 -32 0 -314 -97
-402 -139 -96 -45 -227 -120 -278 -160 -19 -14 -64 -55 -100 -91 -36 -36 -61
-58 -55 -50 96 132 134 176 197 224 41 31 77 56 82 56 4 0 -12 -14 -36 -31
-24 -18 -53 -41 -63 -53 -58 -63 -65 -76 -21 -34 52 48 162 128 177 128 4 0
43 16 85 36 153 70 376 140 608 190 197 42 243 41 82 -1z m-1603 -1 c3 -8 2
-12 -4 -9 -6 3 -10 10 -10 16 0 14 7 11 14 -7z m-1754 -50 c132 -28 111 -31
-30 -4 -58 12 -123 21 -145 22 -30 0 -35 3 -20 9 23 9 48 5 195 -27z m2320 33
c0 -2 -12 -14 -27 -28 l-28 -24 24 28 c23 25 31 32 31 24z m-540 -42 c0 -5 -5
-3 -10 5 -5 8 -10 20 -10 25 0 6 5 3 10 -5 5 -8 10 -19 10 -25z m673 3 c-3 -7
-33 -38 -67 -68 l-61 -54 65 67 c67 70 73 75 63 55z m-1675 -33 c29 -9 52 -19
49 -21 -5 -5 -127 36 -127 43 0 3 6 3 13 1 6 -3 36 -13 65 -23z m-641 9 c-3
-3 -12 -4 -19 -1 -8 3 -5 6 6 6 11 1 17 -2 13 -5z m1677 -79 l5 -50 -12 52
c-7 28 -15 55 -19 59 -5 4 -8 12 -8 18 0 31 29 -37 34 -79z m456 81 c0 -2 -8
-10 -17 -17 -16 -13 -17 -12 -4 4 13 16 21 21 21 13z m-432 -78 c20 -113 21
-132 13 -223 l-8 -90 -2 88 c0 56 -5 86 -11 82 -6 -4 -9 12 -9 42 l2 48 8 -40
c5 -28 6 -19 3 32 -3 40 -9 86 -14 103 -5 17 -5 28 -1 25 5 -2 14 -33 19 -67z
m41 -92 c2 -73 -5 -52 -12 34 -3 44 -2 63 3 45 4 -16 8 -52 9 -79z m706 54
c-3 -5 -16 -15 -28 -21 -22 -12 -22 -12 -3 10 19 21 43 30 31 11z m-4655 -100
c47 -6 168 -24 270 -40 102 -16 237 -31 300 -35 63 -3 151 -10 195 -16 44 -5
226 -23 405 -39 595 -55 787 -74 880 -90 30 -5 109 -12 175 -15 66 -3 127 -8
135 -10 8 -3 110 -14 225 -25 543 -51 553 -53 807 -119 l148 -38 -26 -24 c-30
-28 -54 -70 -54 -97 0 -20 20 -22 -260 23 -52 8 -194 30 -315 50 -389 61 -419
66 -490 85 -79 22 -215 43 -590 95 -371 51 -633 85 -680 87 l-40 1 40 7 c28 6
20 7 -30 4 -38 -2 -110 2 -160 10 -151 25 -290 44 -510 71 -205 25 -430 56
-530 75 -46 8 -44 8 25 5 61 -3 68 -2 35 5 -22 5 -62 9 -89 9 -42 1 -47 3 -36
16 15 18 55 19 170 5z m8365 -19 c19 -5 -20 -10 -110 -15 -169 -9 -580 -50
-763 -77 -73 -10 -145 -19 -160 -18 -68 2 575 86 823 108 123 10 171 11 210 2z
m-4119 -57 c-8 -21 -15 -34 -15 -28 -1 15 20 76 25 71 2 -2 -2 -21 -10 -43z
m-309 -61 c-2 -21 -4 -6 -4 32 0 39 2 55 4 38 2 -18 2 -50 0 -70z m-3862 42
c61 -2 162 -13 225 -25 160 -29 560 -82 1085 -145 771 -92 748 -89 1070 -150
99 -18 245 -46 325 -60 80 -15 240 -44 355 -65 116 -21 231 -41 256 -44 26 -4
55 -13 65 -21 18 -14 18 -14 -8 -15 -80 -1 -462 57 -798 120 -241 45 -789 123
-1135 160 -144 15 -282 35 -602 86 -156 24 -379 55 -495 69 -117 13 -287 36
-378 50 -91 14 -196 30 -234 35 -77 12 -99 20 -71 30 10 3 66 0 124 -7 58 -7
156 -15 216 -18z m3822 -57 c-2 -18 -4 -4 -4 32 0 36 2 50 4 33 2 -18 2 -48 0
-65z m244 45 c-12 -20 -14 -14 -5 12 4 9 9 14 11 11 3 -2 0 -13 -6 -23z m46
-35 c-3 -8 -6 -5 -6 6 -1 11 2 17 5 13 3 -3 4 -12 1 -19z m3101 5 c-10 -2 -28
-2 -40 0 -13 2 -5 4 17 4 22 1 32 -1 23 -4z m-80 -10 c-10 -2 -26 -2 -35 0
-10 3 -2 5 17 5 19 0 27 -2 18 -5z m-69 -7 c-2 -2 -40 -6 -84 -9 -51 -3 -65
-2 -40 2 43 9 131 14 124 7z m-7044 -32 c157 -17 277 -35 271 -41 -2 -2 -64 3
-138 11 -73 9 -198 20 -278 26 -181 13 -256 32 -95 24 61 -3 169 -12 240 -20z
m2573 19 c-10 -2 -26 -2 -35 0 -10 3 -2 5 17 5 19 0 27 -2 18 -5z m1588 -44
c-9 -19 -15 -29 -16 -22 0 15 22 64 27 60 2 -2 -3 -19 -11 -38z m-309 -21 c-2
-13 -4 -5 -4 17 -1 22 1 32 4 23 2 -10 2 -28 0 -40z m-3524 -5 c-7 -2 -21 -2
-30 0 -10 3 -4 5 12 5 17 0 24 -2 18 -5z m-195 -10 c-10 -2 -28 -2 -40 0 -13
2 -5 4 17 4 22 1 32 -1 23 -4z m347 -18 c66 -8 190 -23 275 -32 85 -10 142
-19 127 -21 -16 -2 -133 9 -260 23 -127 15 -286 30 -352 34 l-120 8 105 1 c58
1 159 -5 225 -13z m3093 -50 c0 -16 -2 -15 -8 5 -4 14 -8 34 -8 45 0 16 2 15
8 -5 4 -14 8 -34 8 -45z m89 33 c-3 -7 -5 -2 -5 12 0 14 2 19 5 13 2 -7 2 -19
0 -25z m617 -65 c9 -21 -18 -77 -46 -95 -34 -22 -117 -30 -218 -20 l-85 8 144
6 c152 7 181 16 167 55 -7 17 -8 16 -24 -5 -17 -22 -21 -23 -221 -23 -112 0
-207 3 -212 8 -5 5 48 7 122 5 72 -2 165 -1 207 3 133 14 31 26 -168 20 -165
-5 -175 -6 -178 -25 -6 -39 -38 -14 -48 38 -4 18 -5 33 -3 34 7 4 524 13 541
10 9 -2 19 -11 22 -19z m76 -112 c0 -9 5 -23 11 -31 8 -12 9 -10 4 8 -6 21 -5
23 13 13 12 -6 24 -16 27 -21 4 -6 11 -8 16 -4 5 3 17 -12 25 -33 16 -38 15
-121 -1 -168 -6 -17 -4 -16 10 3 10 14 20 51 24 90 l6 67 6 -70 5 -70 3 65 c2
47 5 59 11 45 13 -31 11 -77 -5 -105 -8 -14 -14 -21 -15 -17 0 4 -10 -3 -22
-16 -50 -54 -92 -60 -467 -65 -300 -3 -350 -2 -395 13 -28 9 -61 26 -74 38
-13 12 -27 20 -30 18 -4 -2 -16 9 -27 24 -15 20 -20 42 -20 96 0 61 3 71 27
96 34 34 43 27 23 -20 -8 -20 -14 -53 -14 -74 l1 -38 8 45 c8 42 39 126 40
107 0 -5 -7 -32 -15 -60 -10 -36 -12 -61 -6 -82 9 -28 9 -27 10 17 1 52 36
158 53 158 6 0 7 -8 3 -17 -21 -56 -28 -103 -19 -134 8 -30 9 -27 10 27 0 32
4 67 9 76 7 12 10 -10 10 -72 0 -48 -3 -83 -7 -77 -9 15 -10 4 -2 -17 3 -9 10
-14 14 -11 4 3 11 -2 14 -11 4 -9 2 -13 -5 -8 -7 4 -1 -7 12 -25 13 -17 34
-34 47 -38 13 -3 165 -4 337 -1 288 4 316 6 335 23 12 11 20 30 20 49 l-1 31
-15 -27 c-8 -16 -26 -30 -42 -34 -15 -3 -33 -8 -41 -10 -39 -12 -264 -21 -409
-15 -156 6 -165 7 -183 30 -21 26 -25 46 -7 35 7 -5 19 -9 28 -10 8 -1 56 -7
105 -15 121 -17 416 -18 474 -1 24 7 54 25 68 40 21 23 24 33 18 71 -4 25 -15
67 -26 93 -24 62 -24 76 1 53 11 -10 20 -25 20 -34z m-493 23 c-3 -3 -12 -4
-19 -1 -8 3 -5 6 6 6 11 1 17 -2 13 -5z m56 -11 c-7 -2 -19 -2 -25 0 -7 3 -2
5 12 5 14 0 19 -2 13 -5z m-269 -49 c-12 -28 -15 -57 -11 -104 l4 -65 -18 40
c-29 63 -23 109 19 158 22 25 24 15 6 -29z m164 -10 c68 -30 306 -45 387 -23
23 6 51 23 68 42 15 17 27 26 27 19 0 -21 -47 -62 -98 -85 -41 -19 -64 -22
-187 -22 -162 0 -215 15 -265 71 -39 45 -38 62 3 34 17 -12 47 -28 65 -36z
m512 -3 c0 -36 -49 -83 -125 -117 -57 -26 -68 -28 -205 -28 -177 0 -246 16
-285 68 -13 18 -27 48 -31 67 l-5 34 19 -42 c30 -63 55 -74 189 -84 154 -13
290 2 350 36 46 28 73 60 73 88 0 10 5 15 10 12 6 -3 10 -19 10 -34z m235 9
c3 -5 2 -10 -4 -10 -5 0 -13 5 -16 10 -3 6 -2 10 4 10 5 0 13 -4 16 -10z"/>
<path d="M3810 8560 c0 -21 42 -93 79 -133 21 -23 46 -53 55 -67 27 -38 15
-12 -24 53 -19 31 -46 78 -60 104 -25 45 -50 67 -50 43z"/>
<path d="M3392 7652 c16 -37 73 -140 76 -138 5 5 -67 146 -74 146 -3 0 -4 -3
-2 -8z"/>
<path d="M4255 6901 c-55 -10 -113 -25 -130 -33 -94 -49 -127 -169 -90 -326
23 -97 74 -217 110 -260 66 -76 180 -116 331 -116 127 0 201 24 271 87 120
110 198 324 163 446 -15 54 -3 49 14 -5 10 -35 15 -42 15 -23 1 27 -44 106
-88 152 -63 68 -173 97 -366 96 -77 0 -171 -8 -230 -18z m404 -12 c67 -11 142
-41 162 -66 9 -9 1 -8 -22 5 -107 62 -431 79 -601 32 -45 -13 -93 -52 -115
-94 -18 -33 -23 -172 -10 -251 6 -34 5 -36 -4 -15 -17 39 -23 199 -10 248 17
60 68 108 138 128 103 30 314 36 462 13z m-131 -107 c3 -19 -1 -23 -15 -20
-10 2 -19 14 -21 26 -3 19 1 23 15 20 10 -2 19 -14 21 -26z m98 -106 c-44
-114 -225 -95 -225 24 l-1 35 28 -50 c27 -50 82 -91 90 -67 2 7 14 12 27 12
29 0 74 51 83 94 4 22 7 25 10 12 2 -10 -3 -37 -12 -60z m-539 -238 c-3 -7 -5
-2 -5 12 0 14 2 19 5 13 2 -7 2 -19 0 -25z m762 0 c-7 -13 -21 -36 -33 -53
-11 -16 -20 -35 -18 -41 4 -18 -77 -103 -118 -124 -62 -32 -167 -44 -267 -30
-116 15 -180 41 -228 91 l-40 42 52 -41 c61 -47 119 -68 224 -81 137 -18 252
13 320 86 l34 37 -46 -37 c-60 -48 -68 -47 -28 6 30 39 150 167 157 167 1 0
-3 -10 -9 -22z"/>
<path d="M5642 6890 c-29 -4 -64 -16 -79 -26 -78 -50 -143 -160 -151 -250 -10
-123 87 -318 201 -402 81 -61 126 -74 259 -80 136 -5 221 15 304 70 77 53 140
187 166 356 21 131 -11 217 -98 268 -84 49 -171 66 -369 69 -99 2 -204 0 -233
-5z m301 -10 c201 -17 316 -65 359 -150 19 -37 24 -133 10 -205 -6 -32 -8 -19
-12 67 -5 98 -7 110 -35 150 -60 84 -108 102 -335 120 -163 13 -257 7 -329
-21 -30 -11 -57 -19 -59 -17 -10 11 59 42 117 52 86 16 132 16 284 4z m18 -62
c26 -19 75 -95 67 -103 -2 -3 -30 22 -62 55 -32 33 -63 60 -67 60 -5 0 -9 5
-9 11 0 14 37 2 71 -23z m-286 -97 c-8 -23 -10 -39 -5 -36 6 3 10 0 10 -9 0
-21 47 -74 81 -91 67 -35 147 -5 179 68 11 23 20 54 20 70 0 32 15 35 31 6 14
-27 8 -103 -12 -144 -28 -59 -176 -119 -281 -114 -13 1 13 8 57 15 145 26 227
84 224 159 -2 27 -2 28 -6 5 -12 -67 -132 -125 -207 -100 -40 13 -96 72 -96
100 0 28 -20 25 -21 -2 -2 -23 -2 -23 -6 -1 -4 20 35 128 43 120 3 -2 -2 -23
-11 -46z m-204 -64 c-12 -36 -8 -55 38 -170 50 -125 77 -171 136 -235 62 -67
91 -78 225 -89 70 -5 88 -2 181 27 90 29 110 39 152 80 57 57 63 47 7 -14
-109 -118 -372 -148 -526 -60 -58 32 -164 150 -196 215 -40 81 -52 171 -33
243 8 31 16 60 16 64 1 4 3 -1 6 -11 2 -9 0 -32 -6 -50z m347 40 c4 -20 -25
-34 -40 -19 -15 15 -1 44 19 40 10 -2 19 -11 21 -21z m479 -249 c-3 -7 -5 -2
-5 12 0 14 2 19 5 13 2 -7 2 -19 0 -25z"/>
<path d="M3824 6836 c-3 -8 -4 -27 -2 -43 3 -26 7 -28 52 -31 72 -5 109 34 68
71 -24 22 -110 23 -118 3z m94 -12 c22 -6 13 -34 -15 -45 -40 -15 -73 -4 -73
25 0 12 3 25 6 29 6 5 51 1 82 -9z"/>
<path d="M2707 3861 c-4 -17 -3 -21 5 -13 5 5 8 16 6 23 -3 8 -7 3 -11 -10z"/>
<path d="M3070 3832 c0 -5 7 -9 15 -9 8 0 12 4 9 9 -3 4 -9 8 -15 8 -5 0 -9
-4 -9 -8z"/>
<path d="M3125 3820 c-3 -5 1 -10 10 -10 9 0 13 5 10 10 -3 6 -8 10 -10 10 -2
0 -7 -4 -10 -10z"/>
<path d="M3051 3744 c0 -11 3 -14 6 -6 3 7 2 16 -1 19 -3 4 -6 -2 -5 -13z"/>
<path d="M2758 3733 c7 -3 16 -2 19 1 4 3 -2 6 -13 5 -11 0 -14 -3 -6 -6z"/>
<path d="M2795 3730 c-3 -5 -1 -10 4 -10 6 0 11 5 11 10 0 6 -2 10 -4 10 -3 0
-8 -4 -11 -10z"/>
<path d="M2830 3720 c0 -5 5 -10 11 -10 5 0 7 5 4 10 -3 6 -8 10 -11 10 -2 0
-4 -4 -4 -10z"/>
<path d="M3276 3682 c-3 -5 1 -9 9 -9 8 0 12 4 9 9 -3 4 -7 8 -9 8 -2 0 -6 -4
-9 -8z"/>
<path d="M2995 3670 c-3 -5 -1 -10 4 -10 6 0 11 5 11 10 0 6 -2 10 -4 10 -3 0
-8 -4 -11 -10z"/>
<path d="M3326 3663 c-6 -14 -5 -15 5 -6 7 7 10 15 7 18 -3 3 -9 -2 -12 -12z"/>
<path d="M3040 3659 c0 -5 5 -7 10 -4 6 3 10 8 10 11 0 2 -4 4 -10 4 -5 0 -10
-5 -10 -11z"/>
<path d="M3490 3619 c0 -5 5 -7 10 -4 6 3 10 8 10 11 0 2 -4 4 -10 4 -5 0 -10
-5 -10 -11z"/>
<path d="M3540 3605 c-7 -9 -8 -15 -2 -15 5 0 12 7 16 15 3 8 4 15 2 15 -2 0
-9 -7 -16 -15z"/>
<path d="M3597 3594 c5 -13 2 -15 -18 -9 -18 5 -21 4 -9 -4 8 -6 21 -11 28
-11 14 0 16 26 2 35 -6 4 -7 -1 -3 -11z"/>
<path d="M3637 3586 c-4 -10 -5 -21 -2 -24 9 -9 17 6 13 25 -3 17 -4 17 -11
-1z"/>
<path d="M4071 3588 c-1 -9 -11 -24 -23 -32 -12 -9 -18 -16 -12 -16 17 0 47
38 41 52 -4 9 -6 7 -6 -4z"/>
<path d="M3667 3576 c-6 -14 0 -26 13 -26 3 0 6 9 6 20 0 23 -11 27 -19 6z"/>
<path d="M3711 3554 c0 -11 3 -14 6 -6 3 7 2 16 -1 19 -3 4 -6 -2 -5 -13z"/>
<path d="M3768 3560 c12 -5 22 -15 22 -21 0 -7 2 -10 5 -7 12 11 -9 38 -29 37
-21 0 -21 0 2 -9z"/>
<path d="M3810 3529 c0 -18 2 -19 15 -5 8 8 15 17 15 20 0 3 -7 6 -15 6 -9 0
-15 -9 -15 -21z"/>
<path d="M3870 3542 c0 -7 -4 -10 -10 -7 -5 3 -10 2 -10 -3 0 -5 9 -12 20 -15
22 -6 25 0 10 23 -7 11 -10 11 -10 2z"/>
<path d="M3910 3526 c0 -8 4 -17 9 -20 5 -4 7 3 4 14 -6 23 -13 26 -13 6z"/>
<path d="M3960 3514 c0 -8 5 -12 10 -9 6 4 8 11 5 16 -9 14 -15 11 -15 -7z"/>
<path d="M4030 3521 c0 -5 7 -12 16 -15 14 -5 15 -4 4 9 -14 17 -20 19 -20 6z"/>
<path d="M4093 3465 c0 -8 4 -12 9 -9 4 3 8 9 8 15 0 5 -4 9 -8 9 -5 0 -9 -7
-9 -15z"/>
<path d="M4120 3455 c-7 -9 -8 -15 -2 -15 5 0 12 7 16 15 3 8 4 15 2 15 -2 0
-9 -7 -16 -15z"/>
<path d="M3684 3449 c-3 -5 3 -9 13 -9 11 0 24 -5 31 -12 8 -8 15 -9 22 -2 6
6 -3 13 -26 20 -19 6 -37 7 -40 3z"/>
<path d="M4165 3450 c-8 -13 3 -30 18 -30 7 0 6 4 -3 10 -13 9 -13 11 0 20 9
6 10 10 3 10 -6 0 -15 -4 -18 -10z"/>
<path d="M4262 3440 c0 -14 2 -19 5 -12 2 6 2 18 0 25 -3 6 -5 1 -5 -13z"/>
<path d="M4219 3442 c7 -5 10 -15 7 -21 -4 -6 -2 -11 4 -11 17 0 8 33 -10 37
-12 4 -13 3 -1 -5z"/>
<path d="M4260 3399 c0 -5 5 -7 10 -4 6 3 10 8 10 11 0 2 -4 4 -10 4 -5 0 -10
-5 -10 -11z"/>
<path d="M4336 3395 c-3 -8 -1 -15 4 -15 6 0 10 7 10 15 0 8 -2 15 -4 15 -2 0
-6 -7 -10 -15z"/>
<path d="M4405 3380 c-5 -8 10 -50 19 -50 2 0 3 14 4 30 1 29 -11 40 -23 20z"/>
<path d="M4311 3364 c0 -11 3 -14 6 -6 3 7 2 16 -1 19 -3 4 -6 -2 -5 -13z"/>
<path d="M4440 3321 c0 -9 30 -24 36 -18 2 1 -6 8 -16 15 -11 7 -20 8 -20 3z"/>
<path d="M4500 3310 c0 -11 5 -20 11 -20 5 0 8 4 4 9 -3 6 3 14 12 20 16 9 16
10 -4 11 -16 0 -23 -6 -23 -20z"/>
<path d="M4546 3285 c-3 -8 -1 -15 3 -15 5 0 11 7 15 15 3 8 1 15 -3 15 -5 0
-11 -7 -15 -15z"/>
<path d="M4606 3253 c-6 -14 -5 -15 5 -6 7 7 10 15 7 18 -3 3 -9 -2 -12 -12z"/>
<path d="M4640 3237 c0 -14 5 -29 10 -32 7 -4 8 3 4 22 -9 38 -14 42 -14 10z"/>
<path d="M5040 2930 c22 -35 42 -73 45 -85 2 -11 8 -40 14 -65 l10 -45 -5 54
c-6 62 -32 121 -75 171 -24 29 -23 23 11 -30z"/>
<path d="M6986 3910 c5 -8 12 -19 16 -25 5 -5 15 -19 23 -30 8 -11 15 -15 15
-10 0 6 -14 26 -31 45 -17 19 -27 28 -23 20z"/>
<path d="M7010 3916 c0 -2 7 -9 15 -16 13 -11 14 -10 9 4 -5 14 -24 23 -24 12z"/>
<path d="M3450 3225 c14 -8 32 -14 40 -14 9 0 4 6 -10 14 -14 8 -32 14 -40 14
-9 0 -4 -6 10 -14z"/>
<path d="M6448 2443 c7 -3 16 -2 19 1 4 3 -2 6 -13 5 -11 0 -14 -3 -6 -6z"/>
<path d="M1150 2039 c25 -4 61 -7 80 -7 29 1 26 2 -15 8 -69 11 -126 10 -65
-1z"/>
<path d="M1303 2023 c9 -2 25 -2 35 0 9 3 1 5 -18 5 -19 0 -27 -2 -17 -5z"/>
<path d="M1735 1989 c77 -4 163 -12 192 -18 67 -13 176 -26 381 -46 89 -8 227
-25 305 -36 78 -12 160 -23 182 -25 l40 -3 -35 9 c-29 7 -25 8 20 4 30 -3 89
-10 130 -15 91 -12 263 -27 385 -34 50 -3 128 -12 175 -20 96 -16 339 -39 345
-33 5 5 -409 56 -515 64 -36 2 -110 11 -165 19 -136 19 -263 33 -365 40 -113
8 -168 13 -270 25 -162 18 -275 29 -375 35 -55 4 -160 15 -233 26 -75 10 -179
18 -235 17 l-102 -1 140 -8z"/>
<path d="M1828 1953 c6 -2 18 -2 25 0 6 3 1 5 -13 5 -14 0 -19 -2 -12 -5z"/>
<path d="M1893 1943 c9 -2 23 -2 30 0 6 3 -1 5 -18 5 -16 0 -22 -2 -12 -5z"/>
<path d="M2000 1924 c85 -17 133 -16 55 1 -33 8 -73 13 -90 13 -18 0 -3 -6 35
-14z"/>
<path d="M2133 1903 c9 -2 25 -2 35 0 9 3 1 5 -18 5 -19 0 -27 -2 -17 -5z"/>
<path d="M2423 1883 c9 -2 25 -2 35 0 9 3 1 5 -18 5 -19 0 -27 -2 -17 -5z"/>
<path d="M2503 1873 c9 -2 25 -2 35 0 9 3 1 5 -18 5 -19 0 -27 -2 -17 -5z"/>
<path d="M2848 1853 c7 -3 16 -2 19 1 4 3 -2 6 -13 5 -11 0 -14 -3 -6 -6z"/>
<path d="M2910 1841 c14 -5 138 -21 275 -35 138 -14 283 -30 324 -36 41 -6 76
-8 78 -6 9 9 -110 28 -237 37 -74 5 -142 11 -150 14 -8 2 -71 9 -140 15 -69 6
-136 13 -150 16 l-25 4 25 -9z"/>
<path d="M3073 1783 c9 -2 25 -2 35 0 9 3 1 5 -18 5 -19 0 -27 -2 -17 -5z"/>
<path d="M3600 1760 c0 -3 78 -16 173 -29 94 -12 241 -33 325 -47 152 -24 189
-28 181 -20 -7 7 -231 44 -409 66 -91 12 -189 25 -217 29 -29 4 -53 5 -53 1z"/>
<path d="M3448 1753 c12 -2 32 -2 45 0 12 2 2 4 -23 4 -25 0 -35 -2 -22 -4z"/>
<path d="M3508 1723 c7 -3 16 -2 19 1 4 3 -2 6 -13 5 -11 0 -14 -3 -6 -6z"/>
<path d="M3558 1713 c12 -2 30 -2 40 0 9 3 -1 5 -23 4 -22 0 -30 -2 -17 -4z"/>
<path d="M3658 1703 c6 -2 18 -2 25 0 6 3 1 5 -13 5 -14 0 -19 -2 -12 -5z"/>
<path d="M3743 1693 c9 -2 23 -2 30 0 6 3 -1 5 -18 5 -16 0 -22 -2 -12 -5z"/>
<path d="M3865 1675 c88 -15 141 -18 85 -5 -19 5 -64 11 -100 14 l-65 5 80
-14z"/>
<path d="M4000 1657 c7 -7 236 -37 270 -36 14 1 -15 7 -63 14 -132 20 -213 28
-207 22z"/>
<path d="M4298 1653 c6 -2 18 -2 25 0 6 3 1 5 -13 5 -14 0 -19 -2 -12 -5z"/>
<path d="M4355 1620 c-60 -7 -59 -7 21 -7 44 0 86 -3 92 -7 7 -4 12 -2 12 3 0
6 -9 11 -19 11 -11 0 -25 1 -33 3 -7 2 -40 0 -73 -3z"/>
<path d="M4498 1603 c7 -3 16 -2 19 1 4 3 -2 6 -13 5 -11 0 -14 -3 -6 -6z"/>
<path d="M1170 1984 c40 -10 344 -54 347 -50 7 7 -88 25 -210 41 -110 14 -175
18 -137 9z"/>
<path d="M4695 1599 c-4 -6 -5 -12 -2 -15 2 -3 7 2 10 11 7 17 1 20 -8 4z"/>
<path d="M5637 1555 c3 -22 7 -42 9 -44 8 -9 2 45 -6 64 -7 14 -8 8 -3 -20z"/>
<path d="M5581 1564 c0 -11 3 -14 6 -6 3 7 2 16 -1 19 -3 4 -6 -2 -5 -13z"/>
<path d="M4676 1543 c-3 -16 -2 -41 2 -58 7 -25 9 -21 9 28 0 63 -3 71 -11 30z"/>
<path d="M5631 1464 c0 -11 3 -14 6 -6 3 7 2 16 -1 19 -3 4 -6 -2 -5 -13z"/>
<path d="M4711 1454 c0 -11 3 -14 6 -6 3 7 2 16 -1 19 -3 4 -6 -2 -5 -13z"/>
<path d="M4691 1445 c0 -5 6 -21 14 -35 8 -14 14 -20 14 -15 0 6 -6 21 -14 35
-8 14 -14 21 -14 15z"/>
<path d="M5587 1393 c-4 -3 -7 -11 -7 -17 0 -6 5 -5 12 2 6 6 9 14 7 17 -3 3
-9 2 -12 -2z"/>
<path d="M4964 6122 c-87 -26 -148 -65 -165 -104 -17 -41 -17 -172 0 -213 7
-16 12 -32 12 -35 0 -3 7 -13 16 -22 8 -10 13 -24 10 -33 -4 -10 -1 -15 11
-15 15 0 15 -2 2 -10 -13 -9 -13 -10 0 -10 24 0 43 17 36 31 -9 17 12 -9 60
-76 33 -45 34 -48 8 -24 -23 21 -34 25 -51 18 -13 -4 -23 -14 -23 -20 0 -7 -2
-10 -5 -8 -2 3 -2 15 2 28 4 16 11 21 24 18 18 -5 27 7 12 16 -13 8 -55 -12
-48 -23 3 -5 1 -10 -4 -10 -6 0 -11 -9 -11 -20 0 -11 -5 -20 -11 -20 -5 0 -7
-5 -3 -11 4 -8 9 -7 15 2 6 10 10 9 15 -5 4 -10 2 -27 -4 -37 -19 -30 -13 -36
8 -10 16 18 20 20 20 7 0 -10 4 -15 9 -11 9 5 2 -27 -15 -69 -6 -15 -4 -17 6
-11 9 5 11 4 6 -4 -4 -6 -12 -9 -17 -6 -5 4 -9 2 -9 -3 0 -15 -58 -32 -109
-32 -84 1 -175 55 -239 143 -59 81 -134 218 -128 233 3 9 -14 5 -52 -13 -31
-14 -96 -40 -144 -57 -49 -17 -88 -34 -88 -37 0 -3 18 -14 40 -24 22 -10 47
-26 56 -36 9 -10 38 -25 64 -35 l48 -17 -57 -28 c-31 -16 -67 -29 -81 -29 -14
-1 -34 -5 -45 -10 -18 -8 -18 -9 5 -10 46 -3 -49 -30 -127 -37 -71 -6 -103
-23 -44 -23 17 0 33 -5 37 -11 14 -23 117 10 174 57 25 20 113 42 136 34 46
-18 33 -50 -19 -50 -19 0 -18 -2 9 -19 17 -10 40 -21 50 -23 15 -3 10 -9 -21
-25 l-39 -21 42 -7 c51 -8 54 -22 7 -31 -48 -9 -55 -24 -8 -17 36 6 37 5 23
-12 -8 -10 -28 -26 -45 -37 -43 -26 -21 -22 68 13 44 16 84 28 90 26 6 -2 -10
-18 -36 -37 -26 -18 -45 -35 -43 -38 3 -2 28 4 56 13 28 9 53 15 56 12 3 -2
-20 -31 -51 -63 -61 -64 -73 -84 -22 -38 69 63 79 64 15 1 -74 -73 -87 -92
-35 -53 40 31 143 79 158 74 6 -2 -19 -30 -55 -62 -37 -32 -76 -77 -87 -100
l-20 -41 28 31 c30 35 62 54 88 54 13 0 12 -6 -8 -32 -28 -38 -51 -82 -62
-118 -4 -14 11 2 33 35 39 59 94 116 142 149 37 24 44 19 20 -14 -12 -17 -25
-28 -29 -26 -4 3 -25 -14 -47 -37 l-39 -42 43 40 c23 21 42 36 42 32 0 -3 -18
-34 -40 -68 -35 -54 -47 -79 -37 -79 1 0 22 27 46 60 54 73 65 72 18 -1 -47
-75 -63 -108 -71 -149 l-7 -35 26 45 c35 60 126 170 139 170 4 0 -1 -12 -12
-27 -51 -73 -85 -158 -88 -223 l-3 -65 27 50 c43 79 84 134 157 213 68 74 98
91 52 30 -31 -41 -148 -250 -143 -255 2 -2 14 12 26 32 12 20 24 34 26 32 2
-2 -6 -27 -17 -56 -11 -30 -18 -55 -17 -57 2 -1 20 30 40 69 21 40 51 88 67
107 l30 35 -31 -80 c-21 -54 -32 -103 -34 -150 -4 -70 -4 -70 9 -30 17 49 60
133 82 160 14 17 16 17 11 3 -7 -25 1 -22 15 3 8 15 8 19 0 15 -35 -22 41 86
77 110 l25 17 -20 -34 c-30 -50 -71 -176 -77 -239 l-6 -55 18 37 c27 55 28 54
25 -20 -1 -52 0 -59 6 -32 28 124 79 250 101 250 5 0 0 -19 -10 -43 -15 -33
-17 -52 -11 -78 5 -19 14 -61 21 -94 10 -47 15 -56 21 -40 4 11 8 36 8 55 2
68 66 319 78 306 3 -3 -2 -36 -11 -73 -24 -105 -37 -232 -29 -298 l7 -60 8 45
c4 25 12 81 17 125 10 85 29 173 40 179 7 5 5 -115 -4 -201 -4 -35 -4 -63 0
-63 13 0 44 88 71 202 16 64 30 116 31 114 2 -2 -3 -43 -12 -91 -8 -49 -13
-90 -11 -93 7 -6 26 65 33 123 6 44 7 47 14 23 4 -17 1 -47 -7 -74 -8 -26 -14
-57 -14 -68 1 -12 16 29 35 89 19 61 34 117 34 125 -1 8 -5 -1 -11 -20 -11
-40 -30 -65 -21 -29 14 66 25 91 34 78 7 -11 9 -9 9 7 0 11 7 29 16 40 15 19
15 19 10 -1 -2 -11 -7 -36 -10 -55 l-6 -35 14 35 c8 19 15 46 17 60 1 21 3 19
9 -10 l7 -35 2 41 c1 27 6 44 16 47 19 8 21 3 30 -63 12 -88 23 -104 26 -35 1
33 5 74 8 90 7 28 8 25 20 -30 22 -103 30 -106 26 -11 -4 81 5 106 18 51 3
-11 5 1 6 26 1 26 -5 53 -14 65 -8 10 -15 26 -15 35 0 9 38 51 85 94 47 42 85
79 83 80 -6 7 -101 -15 -134 -31 -21 -10 -49 -38 -70 -69 -79 -119 -158 -148
-404 -147 -135 0 -192 20 -286 102 -38 33 -96 73 -129 90 -67 34 -116 77 -152
133 -32 51 -24 57 12 9 57 -76 178 -142 263 -142 15 0 63 -18 107 -40 44 -22
88 -40 98 -40 10 0 21 -10 26 -22 7 -19 14 -21 87 -19 43 1 97 8 119 16 22 8
66 21 98 30 66 18 97 44 97 81 0 20 4 25 17 20 23 -9 118 20 180 56 29 16 77
51 105 77 29 27 78 64 109 84 68 43 114 95 145 161 18 39 21 54 12 70 -15 28
-28 36 -59 36 -34 0 -99 -75 -159 -185 -77 -140 -169 -216 -281 -231 -84 -11
-253 39 -247 74 2 10 -3 16 -11 14 -10 -2 -12 4 -7 23 4 14 2 25 -3 25 -5 0
-7 10 -4 21 5 19 3 21 -20 17 -15 -3 -24 -1 -21 3 3 5 10 9 15 9 35 0 176 157
211 236 17 39 20 61 16 125 -6 99 -21 122 -106 162 -62 30 -76 32 -187 34 -92
2 -134 -2 -181 -15z m255 -42 c112 -19 171 -65 171 -135 0 -26 -1 -26 -52 20
-44 39 -56 45 -77 39 -14 -5 -94 -8 -176 -9 -145 0 -152 -1 -197 -28 -56 -33
-58 -33 -58 -6 0 37 61 84 131 102 112 29 162 32 258 17z m-229 -309 c-6 -12
-22 -26 -36 -31 -43 -17 -51 -11 -15 11 18 11 36 29 38 40 4 13 9 17 15 11 6
-6 6 -18 -2 -31z m264 -16 c35 -15 94 -7 124 17 15 12 16 11 3 -4 -17 -22 -86
-41 -118 -33 -27 6 -63 39 -63 58 0 6 5 4 11 -6 6 -11 26 -25 43 -32z m-394
-1 l25 -15 -25 7 c-14 3 -29 10 -34 15 -16 14 6 10 34 -7z m48 -169 c-8 -18
-14 -22 -22 -15 -8 8 -6 15 8 26 26 19 27 18 14 -11z m52 -7 c0 -4 -4 -8 -9
-8 -6 0 -12 4 -15 8 -3 5 1 9 9 9 8 0 15 -4 15 -9z m259 -40 c-9 -16 -14 -19
-17 -9 -2 7 2 17 9 22 20 13 21 11 8 -13z m-264 -47 c3 -5 2 -12 -3 -15 -5 -3
-9 1 -9 9 0 17 3 19 12 6z m-236 -537 c-7 -9 -37 -62 -66 -118 -29 -55 -52
-93 -53 -84 0 31 108 218 127 218 3 0 -1 -7 -8 -16z m152 -111 c-5 -10 -17
-27 -26 -38 -16 -19 -17 -19 -3 5 26 46 29 50 34 50 3 0 0 -8 -5 -17z"/>
<path d="M4885 5680 c-3 -5 -1 -10 4 -10 6 0 11 5 11 10 0 6 -2 10 -4 10 -3 0
-8 -4 -11 -10z"/>
<path d="M7010 5650 c14 -11 29 -20 34 -20 5 0 -3 9 -17 20 -14 11 -29 20 -34
20 -4 0 3 -9 17 -20z"/>
<path d="M5335 5581 c-3 -5 -1 -12 4 -15 5 -3 11 1 15 9 6 16 -9 21 -19 6z"/>
<path d="M5275 5570 c-3 -5 -1 -10 4 -10 6 0 11 5 11 10 0 6 -2 10 -4 10 -3 0
-8 -4 -11 -10z"/>
<path d="M5395 5569 c-11 -17 1 -21 15 -4 8 9 8 15 2 15 -6 0 -14 -5 -17 -11z"/>
<path d="M4798 5562 c-10 -2 -18 -8 -18 -13 0 -11 11 -11 30 1 18 11 11 18
-12 12z"/>
<path d="M5506 5555 c-3 -9 0 -15 9 -15 16 0 20 16 6 24 -5 3 -11 -1 -15 -9z"/>
<path d="M5257 5543 c-6 -10 19 -34 27 -26 3 4 6 12 6 20 0 14 -26 18 -33 6z"/>
<path d="M5320 5536 c0 -9 5 -16 10 -16 6 0 10 4 10 9 0 6 -4 13 -10 16 -5 3
-10 -1 -10 -9z"/>
<path d="M5360 5526 c0 -3 9 -10 20 -16 11 -6 20 -8 20 -6 0 3 -9 10 -20 16
-11 6 -20 8 -20 6z"/>
<path d="M5447 5523 c-10 -9 -9 -23 2 -23 5 0 11 7 15 15 5 15 -5 20 -17 8z"/>
<path d="M4878 5514 c-4 -6 -12 -24 -18 -40 l-11 -29 21 21 c12 12 20 30 18
40 -2 12 -6 15 -10 8z"/>
<path d="M4810 5492 c0 -4 4 -12 8 -19 6 -9 11 -8 19 5 9 15 7 18 -8 19 -11 1
-19 -1 -19 -5z"/>
<path d="M5335 5490 c-3 -5 -2 -10 4 -10 5 0 13 5 16 10 3 6 2 10 -4 10 -5 0
-13 -4 -16 -10z"/>
<path d="M5290 5475 c10 -12 10 -15 0 -15 -8 0 -11 -3 -7 -6 3 -3 10 -3 16 0
12 8 3 36 -11 36 -6 0 -5 -6 2 -15z"/>
<path d="M4755 5470 c-17 -8 -16 -9 7 -7 15 2 30 6 34 10 10 10 -17 8 -41 -3z"/>
<path d="M5400 5460 c0 -6 7 -10 15 -10 8 0 15 2 15 4 0 2 -7 6 -15 10 -8 3
-15 1 -15 -4z"/>
<path d="M4265 5414 c-11 -3 -46 -9 -78 -16 -32 -6 -56 -13 -54 -15 5 -5 179
25 185 32 6 6 -22 5 -53 -1z"/>
<path d="M6467 5369 c7 -7 15 -10 18 -7 3 3 -2 9 -12 12 -14 6 -15 5 -6 -5z"/>
<path d="M5435 5014 c-3 -22 -10 -56 -15 -78 -5 -25 -5 -35 1 -29 6 6 14 39
19 74 10 68 5 97 -5 33z"/>
<path d="M6998 5023 c7 -3 16 -2 19 1 4 3 -2 6 -13 5 -11 0 -14 -3 -6 -6z"/>
<path d="M6980 4989 c-22 -9 -23 -11 -8 -20 10 -5 39 -10 65 -11 26 0 61 -5
77 -9 l30 -9 -24 24 c-29 28 -101 41 -140 25z"/>
<path d="M6360 4961 c11 -22 30 -37 30 -24 -1 11 -26 43 -34 43 -4 0 -2 -9 4
-19z"/>
<path d="M5361 4894 c0 -11 3 -14 6 -6 3 7 2 16 -1 19 -3 4 -6 -2 -5 -13z"/>
<path d="M5171 4764 c0 -11 3 -14 6 -6 3 7 2 16 -1 19 -3 4 -6 -2 -5 -13z"/>
<path d="M5162 4710 c0 -19 2 -27 5 -17 2 9 2 25 0 35 -3 9 -5 1 -5 -18z"/>
<path d="M4971 4634 c0 -11 3 -14 6 -6 3 7 2 16 -1 19 -3 4 -6 -2 -5 -13z"/>
<path d="M4961 4594 c0 -11 3 -14 6 -6 3 7 2 16 -1 19 -3 4 -6 -2 -5 -13z"/>
<path d="M5801 3830 c-29 -27 -80 -67 -112 -90 l-58 -40 9 32 c14 45 4 47 -10
1 -12 -37 -84 -173 -117 -223 -10 -14 15 9 55 50 88 92 98 74 13 -25 -37 -43
41 38 123 129 57 64 102 125 150 204 12 19 4 14 -53 -38z"/>
<path d="M4607 3829 c4 -13 8 -18 11 -10 2 7 -1 18 -6 23 -8 8 -9 4 -5 -13z"/>
<path d="M8348 3683 c-16 -2 -28 -8 -28 -13 0 -5 17 -4 38 2 61 17 57 21 -10
11z"/>
<path d="M5513 3639 c-3 -17 -12 -33 -19 -36 -8 -3 -14 -11 -14 -18 0 -7 -14
-45 -30 -85 -37 -90 -34 -102 5 -18 16 34 31 56 33 48 3 -8 0 -16 -6 -18 -7
-2 -12 -15 -12 -29 0 -15 -17 -49 -40 -80 -23 -29 -39 -53 -37 -53 12 0 100
116 102 135 2 12 11 35 21 51 11 16 13 25 6 20 -13 -8 -12 14 4 92 2 12 2 22
-1 22 -3 0 -8 -14 -12 -31z"/>
<path d="M8275 3660 c3 -5 8 -10 11 -10 2 0 4 5 4 10 0 6 -5 10 -11 10 -5 0
-7 -4 -4 -10z"/>
<path d="M8175 3640 c-3 -5 1 -10 9 -10 9 0 16 5 16 10 0 6 -4 10 -9 10 -6 0
-13 -4 -16 -10z"/>
<path d="M8520 3620 c-186 -40 -1156 -296 -1180 -311 -11 -7 -8 -8 9 -3 13 3
218 55 455 115 571 144 806 205 813 213 9 8 0 7 -97 -14z"/>
<path d="M8138 3623 c7 -3 16 -2 19 1 4 3 -2 6 -13 5 -11 0 -14 -3 -6 -6z"/>
<path d="M8016 3604 c-11 -8 -16 -14 -10 -14 13 0 39 18 34 24 -3 2 -14 -2
-24 -10z"/>
<path d="M8055 3610 c-2 -4 7 -6 21 -4 35 3 41 12 9 12 -14 0 -27 -4 -30 -8z"/>
<path d="M5442 3585 c-7 -14 -12 -33 -12 -41 0 -8 -4 -13 -9 -10 -4 3 -13 -6
-20 -20 -6 -14 -14 -23 -19 -21 -4 2 -18 -9 -32 -26 -14 -17 -20 -28 -13 -24
7 4 -8 -28 -32 -72 -46 -81 -57 -110 -29 -75 15 19 16 19 10 -1 -10 -34 29 21
69 98 38 70 51 86 35 40 -9 -26 -9 -27 5 -9 16 21 69 175 63 182 -3 2 -10 -7
-16 -21z m-113 -222 c-12 -21 -27 -42 -32 -48 -11 -11 9 29 31 63 24 37 25 25
1 -15z"/>
<path d="M7940 3585 c-24 -13 -24 -14 -2 -12 12 1 22 5 22 9 0 4 7 5 15 2 8
-4 15 -1 15 5 0 15 -20 13 -50 -4z"/>
<path d="M7890 3570 c-8 -5 -18 -6 -22 -4 -4 3 -8 0 -8 -6 0 -10 36 -5 49 6
10 9 -6 12 -19 4z"/>
<path d="M7818 3543 c-10 -2 -18 -9 -18 -14 0 -13 13 -11 36 6 19 14 14 17
-18 8z"/>
<path d="M5285 3480 c-5 -30 -9 -63 -9 -72 0 -9 -2 -15 -6 -13 -4 2 -14 -13
-24 -33 l-17 -37 21 25 c21 24 21 24 15 3 -10 -35 1 -27 29 21 27 46 35 73 13
43 -10 -15 -12 -11 -9 26 6 74 -3 98 -13 37z"/>
<path d="M7775 3521 c-3 -6 -10 -9 -15 -6 -5 3 -11 1 -15 -5 -3 -5 0 -10 7
-10 18 0 44 18 36 25 -3 4 -9 1 -13 -4z"/>
<path d="M7080 3500 c-18 -12 -2 -12 25 0 13 6 15 9 5 9 -8 0 -22 -4 -30 -9z"/>
<path d="M7715 3490 c-3 -5 -1 -10 4 -10 6 0 11 5 11 10 0 6 -2 10 -4 10 -3 0
-8 -4 -11 -10z"/>
<path d="M6992 3473 c-24 -8 -41 -17 -39 -19 2 -2 28 5 58 15 30 11 47 20 39
19 -8 0 -34 -6 -58 -15z"/>
<path d="M7618 3452 c-21 -10 -38 -20 -38 -24 0 -7 75 23 87 35 10 11 -9 6
-49 -11z"/>
<path d="M9095 3433 c-113 -24 -374 -87 -371 -90 6 -6 425 83 435 93 5 5 -36
3 -64 -3z"/>
<path d="M7541 3419 c-13 -5 -22 -11 -20 -14 8 -7 49 7 49 16 0 5 -1 9 -2 8
-2 0 -14 -5 -27 -10z"/>
<path d="M7490 3395 c-11 -13 -10 -14 4 -9 9 3 16 10 16 15 0 13 -6 11 -20 -6z"/>
<path d="M5226 3385 c-3 -9 -6 -22 -5 -28 0 -7 5 -1 10 12 5 13 8 26 5 28 -2
2 -6 -3 -10 -12z"/>
<path d="M7092 3350 c0 -14 2 -19 5 -12 2 6 2 18 0 25 -3 6 -5 1 -5 -13z"/>
<path d="M5191 3319 c-6 -18 -9 -34 -7 -36 2 -2 9 10 16 27 7 17 10 33 8 36
-3 3 -11 -9 -17 -27z"/>
<path d="M5342 3274 c-18 -35 -32 -68 -32 -72 1 -4 17 24 36 62 19 37 34 70
32 72 -2 2 -18 -26 -36 -62z"/>
<path d="M8688 3333 c7 -3 16 -2 19 1 4 3 -2 6 -13 5 -11 0 -14 -3 -6 -6z"/>
<path d="M7290 3310 c-13 -9 -13 -10 0 -11 8 0 -1 -7 -20 -14 -19 -7 -28 -14
-20 -14 20 0 79 27 60 28 -13 1 -13 2 0 11 8 5 11 10 5 10 -5 0 -17 -5 -25
-10z"/>
<path d="M7238 3293 c7 -3 16 -2 19 1 4 3 -2 6 -13 5 -11 0 -14 -3 -6 -6z"/>
<path d="M7165 3280 c-13 -5 -14 -9 -5 -9 8 0 24 4 35 9 13 5 14 9 5 9 -8 0
-24 -4 -35 -9z"/>
<path d="M5809 3243 l-24 -28 28 24 c15 14 27 26 27 28 0 8 -8 1 -31 -24z"/>
<path d="M6546 3257 c3 -10 9 -15 12 -12 3 3 0 11 -7 18 -10 9 -11 8 -5 -6z"/>
<path d="M7208 3263 c7 -3 16 -2 19 1 4 3 -2 6 -13 5 -11 0 -14 -3 -6 -6z"/>
<path d="M8475 3260 c-16 -7 -17 -9 -3 -9 9 -1 20 4 23 9 7 11 7 11 -20 0z"/>
<path d="M7068 3253 c7 -3 16 -2 19 1 4 3 -2 6 -13 5 -11 0 -14 -3 -6 -6z"/>
<path d="M7108 3243 c7 -3 16 -2 19 1 4 3 -2 6 -13 5 -11 0 -14 -3 -6 -6z"/>
<path d="M6305 3230 c3 -5 8 -10 11 -10 2 0 4 5 4 10 0 6 -5 10 -11 10 -5 0
-7 -4 -4 -10z"/>
<path d="M6560 3225 c0 -5 5 -17 10 -25 5 -8 10 -10 10 -5 0 6 -5 17 -10 25
-5 8 -10 11 -10 5z"/>
<path d="M7028 3223 c7 -3 16 -2 19 1 4 3 -2 6 -13 5 -11 0 -14 -3 -6 -6z"/>
<path d="M6795 3210 c3 -5 8 -10 11 -10 2 0 4 5 4 10 0 6 -5 10 -11 10 -5 0
-7 -4 -4 -10z"/>
<path d="M6321 3209 c-1 -3 6 -30 15 -60 18 -61 37 -90 25 -38 -8 34 -39 109
-40 98z"/>
<path d="M8600 3206 c0 -2 8 -10 18 -17 15 -13 16 -12 3 4 -13 16 -21 21 -21
13z"/>
<path d="M6711 3174 c0 -11 3 -14 6 -6 3 7 2 16 -1 19 -3 4 -6 -2 -5 -13z"/>
<path d="M6600 3130 c0 -5 5 -10 11 -10 5 0 7 5 4 10 -3 6 -8 10 -11 10 -2 0
-4 -4 -4 -10z"/>
<path d="M6152 3089 c6 -16 12 -28 14 -26 5 5 -13 57 -20 57 -3 0 0 -14 6 -31z"/>
<path d="M5262 3040 c0 -14 2 -19 5 -12 2 6 2 18 0 25 -3 6 -5 1 -5 -13z"/>
<path d="M6011 3000 c0 -8 4 -22 9 -30 12 -18 12 -2 0 25 -6 13 -9 15 -9 5z"/>
<path d="M6045 2945 c-39 -17 -21 -18 25 0 19 7 28 14 20 14 -8 0 -28 -6 -45
-14z"/>
<path d="M5970 2920 c-8 -5 -10 -10 -5 -10 6 0 17 5 25 10 8 5 11 10 5 10 -5
0 -17 -5 -25 -10z"/>
<path d="M2350 2790 c8 -5 20 -10 25 -10 6 0 3 5 -5 10 -8 5 -19 10 -25 10 -5
0 -3 -5 5 -10z"/>
<path d="M2438 2763 c7 -3 16 -2 19 1 4 3 -2 6 -13 5 -11 0 -14 -3 -6 -6z"/>
<path d="M2478 2753 c7 -3 16 -2 19 1 4 3 -2 6 -13 5 -11 0 -14 -3 -6 -6z"/>
<path d="M8967 2653 c-3 -4 -43 -7 -89 -6 -156 3 -400 -31 -1043 -147 -478
-86 -694 -120 -815 -130 -514 -40 -906 -128 -1210 -271 -129 -62 -198 -113
-256 -191 -47 -64 -63 -108 -17 -48 99 130 210 191 482 264 235 63 460 102
946 161 413 51 939 131 1411 215 148 27 321 56 383 64 63 9 124 19 136 22 13
3 26 1 29 -4 6 -11 -53 -25 -149 -37 -27 -3 -148 -24 -268 -46 -612 -112
-1145 -194 -1513 -234 -506 -54 -817 -114 -1093 -210 -152 -53 -222 -90 -277
-147 l-49 -50 49 36 c48 36 108 66 130 66 6 -1 -16 -15 -49 -32 -33 -17 -74
-41 -91 -54 -17 -13 -33 -21 -36 -18 -3 3 -15 -8 -27 -24 -23 -32 -27 -47 -11
-37 6 3 10 1 10 -6 0 -9 3 -9 14 0 25 21 151 78 241 109 328 114 1398 315
1925 362 118 11 153 16 490 69 107 18 240 38 295 47 55 8 149 24 209 34 136
25 177 25 216 2 30 -19 30 -32 1 -32 -14 0 -14 2 -1 11 21 15 -66 5 -340 -37
-546 -84 -715 -107 -895 -124 -137 -12 -220 -23 -390 -51 -114 -19 -146 -24
-275 -48 -30 -6 -77 -13 -105 -16 -27 -4 -84 -13 -125 -20 -41 -8 -140 -26
-220 -41 -308 -56 -554 -110 -605 -134 -11 -5 -62 -23 -112 -39 -51 -17 -116
-43 -145 -57 -74 -38 -161 -94 -155 -101 3 -3 19 4 36 16 58 42 178 91 306
126 290 80 1024 221 1345 260 69 8 149 19 179 24 30 5 72 6 93 3 36 -4 85 0
348 34 122 15 507 49 675 59 219 13 609 46 615 52 3 3 -38 4 -90 1 -52 -2
-106 -1 -120 4 -18 5 -14 6 13 2 29 -4 37 -2 32 7 -6 8 -38 10 -119 5 -111 -7
-175 -15 -526 -60 -204 -27 -391 -47 -430 -45 -35 1 92 26 175 34 39 3 151 19
250 35 310 51 427 68 533 81 102 13 104 13 148 -10 70 -38 62 -17 -9 23 -36
19 -75 47 -88 61 -42 44 -131 36 -789 -70 -157 -25 -343 -55 -413 -66 -71 -11
-222 -36 -335 -55 -114 -20 -254 -42 -312 -50 -58 -7 -132 -18 -165 -24 -33
-5 -170 -26 -305 -45 -135 -19 -276 -40 -315 -45 -140 -22 -372 -72 -444 -96
-40 -14 -78 -23 -84 -21 -12 4 149 58 253 85 41 11 129 27 195 37 171 26 216
36 130 29 -38 -3 -67 -3 -64 0 8 8 360 48 367 42 3 -3 -10 -6 -28 -6 -18 0
-31 -3 -28 -6 4 -3 33 -2 65 2 50 7 54 9 28 14 -21 4 5 10 85 19 174 19 589
79 740 107 47 8 114 19 150 24 92 13 399 64 565 95 283 52 354 67 530 110 201
49 319 64 354 45 43 -22 29 -5 -32 42 -62 46 -110 67 -120 51z m73 -36 l45
-22 -62 -3 c-42 -2 -72 2 -93 13 -16 8 -30 17 -30 19 0 2 19 2 42 -1 29 -4 39
-3 34 5 -11 18 14 14 64 -11z m-773 -73 c-3 -3 -12 -4 -19 -1 -8 3 -5 6 6 6
11 1 17 -2 13 -5z m-50 -10 c-3 -3 -12 -4 -19 -1 -8 3 -5 6 6 6 11 1 17 -2 13
-5z m-60 -10 c-3 -3 -12 -4 -19 -1 -8 3 -5 6 6 6 11 1 17 -2 13 -5z m-44 -11
c-7 -2 -21 -2 -30 0 -10 3 -4 5 12 5 17 0 24 -2 18 -5z m-60 -10 c-7 -2 -19
-2 -25 0 -7 3 -2 5 12 5 14 0 19 -2 13 -5z m-48 -8 c-61 -23 -736 -140 -758
-132 -7 2 11 8 38 12 28 3 95 15 150 25 55 10 138 23 185 30 47 7 144 25 215
40 112 24 202 37 170 25z m-130 -295 c-16 -4 -43 -8 -60 -8 -29 1 -29 1 5 8
19 4 46 7 60 8 22 0 22 -1 -5 -8z"/>
<path d="M9105 2453 c6 -5 73 -57 149 -114 76 -57 183 -141 237 -186 119 -99
175 -137 99 -67 -128 118 -395 326 -463 360 -18 9 -27 12 -22 7z"/>
<path d="M1648 2423 c7 -3 16 -2 19 1 4 3 -2 6 -13 5 -11 0 -14 -3 -6 -6z"/>
<path d="M9028 2313 c6 -2 18 -2 25 0 6 3 1 5 -13 5 -14 0 -19 -2 -12 -5z"/>
<path d="M9130 2230 c21 -8 19 -9 -15 -6 -62 5 -729 -35 -900 -54 -44 -5 -118
-12 -165 -15 -47 -3 -146 -12 -220 -20 -74 -8 -229 -24 -345 -35 -366 -35
-543 -58 -790 -101 -315 -56 -870 -185 -958 -223 -18 -8 -52 -28 -76 -46 l-43
-32 48 -32 c44 -30 50 -31 74 -19 35 17 227 67 355 92 90 18 585 95 775 122
99 13 212 30 530 79 306 46 425 60 495 59 32 -1 9 -6 -65 -14 -108 -12 -178
-23 -295 -45 -27 -6 -162 -28 -300 -50 -137 -22 -302 -49 -365 -60 -63 -11
-198 -34 -300 -50 -251 -41 -447 -77 -555 -101 -49 -11 -101 -23 -115 -26 -14
-3 -20 -7 -14 -10 7 -2 56 6 110 17 121 26 276 55 409 75 120 18 217 34 470
76 105 17 228 37 275 44 401 61 758 118 865 140 85 17 175 30 644 95 309 43
430 64 579 97 50 12 3 39 -80 47 -40 4 -47 3 -28 -4z m74 -19 c3 -4 -6 -6 -19
-3 -14 2 -25 6 -25 8 0 8 39 4 44 -5z m-1206 -208 c-10 -2 -26 -2 -35 0 -10 3
-2 5 17 5 19 0 27 -2 18 -5z"/>
<path d="M6543 2133 c9 -2 23 -2 30 0 6 3 -1 5 -18 5 -16 0 -22 -2 -12 -5z"/>
<path d="M7428 2133 c7 -3 16 -2 19 1 4 3 -2 6 -13 5 -11 0 -14 -3 -6 -6z"/>
<path d="M6458 2123 c12 -2 30 -2 40 0 9 3 -1 5 -23 4 -22 0 -30 -2 -17 -4z"/>
<path d="M8980 1929 c-58 -5 -202 -18 -320 -29 -118 -11 -273 -25 -345 -31
-71 -6 -155 -15 -185 -20 -88 -13 235 -1 400 15 273 27 645 67 660 70 28 7
-105 3 -210 -5z"/>
<path d="M5605 1800 c-3 -5 -1 -10 4 -10 6 0 11 5 11 10 0 6 -2 10 -4 10 -3 0
-8 -4 -11 -10z"/>
<path d="M5815 1630 c3 -5 12 -7 20 -3 21 7 19 13 -6 13 -11 0 -18 -4 -14 -10z"/>
</g>
</svg>
