<?xml version="1.0" standalone="no"?>
<!DOCTYPE svg PUBLIC "-//W3C//DTD SVG 20010904//EN"
 "http://www.w3.org/TR/2001/REC-SVG-20010904/DTD/svg10.dtd">
<svg version="1.0" xmlns="http://www.w3.org/2000/svg"
 width="511.000000pt" height="449.000000pt" viewBox="0 0 511.000000 449.000000"
 preserveAspectRatio="xMidYMid meet">

<g transform="translate(0.000000,449.000000) scale(0.100000,-0.100000)"
fill="#000000" stroke="none">
<path d="M1431 4153 c-131 -65 -287 -464 -336 -860 -18 -146 -14 -202 21 -256
23 -35 25 -79 5 -91 -9 -6 -321 -59 -531 -91 -219 -33 -299 -52 -329 -79 -43
-39 -29 -104 159 -760 94 -330 180 -637 190 -683 22 -94 55 -166 100 -216 16
-19 30 -43 30 -53 0 -69 101 -177 196 -208 32 -11 158 -59 279 -107 121 -47
231 -90 245 -94 51 -15 571 -239 720 -310 195 -93 266 -117 360 -122 65 -4 81
-1 120 19 25 13 275 145 555 292 919 483 1023 542 1053 598 33 60 61 85 106
97 33 8 53 21 73 47 15 20 45 57 65 82 48 59 70 124 59 177 -16 86 -69 158
-142 195 -34 18 -89 82 -118 137 -6 12 -12 69 -14 125 -2 88 -6 110 -28 154
-22 41 -27 68 -31 155 -7 133 -31 198 -99 270 -27 29 -57 65 -66 80 -22 38
-78 64 -106 52 -16 -7 -34 -4 -67 11 -61 27 -181 27 -266 -2 -44 -16 -75 -20
-115 -15 -36 3 -69 0 -98 -10 -39 -14 -48 -14 -72 -1 -45 23 -98 17 -192 -22
-88 -35 -88 -35 -134 -20 -52 18 -135 21 -162 6 -14 -7 -23 -4 -37 12 -11 11
-36 31 -56 44 -21 14 -38 32 -38 41 0 9 -6 24 -14 32 -8 9 -15 41 -17 71 -2
47 3 62 29 104 65 102 79 200 43 316 -10 36 -36 141 -56 233 -20 93 -43 187
-51 210 -8 23 -19 62 -25 87 -19 89 -62 236 -80 271 -24 47 -74 89 -106 89
-33 0 -84 -39 -112 -84 -12 -18 -42 -94 -67 -167 -25 -74 -70 -186 -99 -249
-29 -63 -60 -138 -69 -165 l-16 -50 -45 3 c-25 2 -53 1 -63 -3 -32 -14 -101
-11 -107 4 -4 10 -19 13 -63 9 -31 -3 -70 -2 -86 1 -29 6 -30 7 -47 121 -48
316 -72 427 -110 501 -19 38 -72 89 -92 89 -7 0 -27 -8 -46 -17z m114 -118
c28 -63 42 -126 55 -240 5 -49 14 -110 19 -135 46 -226 46 -221 5 -277 -18
-26 -4 -32 17 -7 16 19 63 44 84 44 14 0 14 -4 0 -36 -20 -50 -19 -52 13 -22
58 55 106 63 116 22 l7 -27 15 22 c19 27 44 27 80 -1 21 -17 26 -19 22 -6 -19
48 84 49 133 2 31 -30 47 -28 30 3 -14 27 2 90 48 193 21 47 64 163 96 257 70
210 106 277 152 281 26 3 39 -4 71 -36 51 -51 56 -70 133 -467 17 -88 47 -212
67 -275 60 -188 49 -273 -46 -368 -40 -41 -47 -44 -88 -40 -53 4 -57 -6 -9
-22 40 -13 42 -18 18 -36 -13 -10 -14 -13 -4 -14 24 0 77 -47 91 -79 10 -25
10 -34 0 -46 -17 -20 -89 -19 -119 2 -18 12 -23 13 -19 2 2 -8 21 -23 41 -34
42 -23 50 -60 18 -89 -18 -17 -19 -17 -25 2 -4 11 -16 28 -27 38 l-21 19 20
-40 c40 -77 34 -182 -11 -209 -15 -9 -22 -6 -38 14 l-20 25 7 -36 c4 -27 0
-51 -15 -85 -12 -26 -19 -49 -17 -51 8 -9 46 51 52 83 3 19 10 31 15 28 19
-12 51 10 66 43 8 20 13 57 12 83 -2 39 2 53 24 80 15 17 27 37 27 43 1 23 49
-43 61 -83 7 -22 16 -37 20 -34 14 8 10 52 -6 84 l-16 30 42 0 c36 0 48 -6 81
-41 39 -41 39 -41 36 -13 -4 37 25 44 122 27 84 -14 204 -8 235 13 26 18 138
17 190 -1 50 -18 50 -18 35 0 -10 12 -9 16 5 21 27 11 175 -2 238 -21 79 -23
82 -13 5 18 l-63 25 44 12 c63 17 198 15 241 -3 39 -17 89 -66 114 -112 l17
-30 -6 39 -6 38 32 -23 c18 -12 39 -40 47 -61 10 -24 18 -34 23 -27 4 8 13 0
25 -22 22 -42 31 -178 15 -234 -13 -48 -8 -56 12 -18 l15 28 7 -29 c4 -15 5
-60 2 -100 -5 -66 -1 -68 18 -11 6 17 9 14 22 -20 19 -51 12 -166 -15 -250
-14 -41 -16 -62 -9 -67 8 -5 7 -14 -1 -32 -12 -27 -4 -34 16 -14 15 15 16 45
0 50 -7 3 -8 10 -4 17 6 9 14 7 31 -9 13 -12 45 -36 72 -54 31 -20 56 -46 71
-76 20 -40 22 -41 22 -17 0 34 10 34 42 0 92 -99 89 -180 -10 -288 -26 -28
-55 -61 -64 -73 -10 -12 -30 -25 -44 -28 -22 -6 -32 -2 -51 20 -13 16 -23 40
-23 59 0 18 -5 39 -10 47 -7 11 -10 1 -10 -36 0 -36 6 -59 20 -77 26 -33 26
-34 -11 -42 -48 -11 -69 15 -69 84 0 35 6 65 16 79 16 23 6 30 -14 10 -9 -9
-12 -6 -12 16 0 17 -11 39 -30 58 -28 28 -35 30 -81 26 l-50 -5 23 25 c27 30
11 22 -57 -29 -74 -55 -109 -69 -166 -69 -47 0 -50 1 -38 17 12 15 12 16 -2
11 -34 -13 -105 -18 -133 -10 l-30 8 37 23 c20 12 37 24 37 26 0 2 -30 -8 -67
-21 -99 -34 -175 -33 -236 6 -26 16 -56 44 -67 62 -11 18 -36 43 -57 54 -41
23 -85 85 -66 91 7 3 3 17 -12 40 -46 67 -46 172 0 263 31 62 27 75 -9 28 -58
-77 -74 -188 -37 -261 10 -20 22 -52 25 -71 4 -19 15 -45 26 -59 l20 -25 -42
-20 c-61 -29 -101 -35 -147 -22 l-41 11 15 29 c25 48 17 52 -21 11 -47 -53
-107 -76 -176 -67 -29 4 -62 7 -72 7 -11 0 -28 5 -39 10 -15 9 -18 8 -15 -3 3
-7 18 -13 34 -14 33 -1 84 -23 84 -36 0 -14 -92 -68 -136 -80 l-41 -11 19 -33
c11 -19 18 -40 16 -49 -2 -13 -9 -12 -37 10 -51 37 -57 31 -17 -19 24 -28 36
-53 36 -73 0 -40 -8 -45 -31 -22 -28 28 -44 23 -20 -7 15 -19 21 -41 21 -75 0
-46 -11 -62 -25 -39 -12 20 -26 10 -14 -11 15 -29 3 -82 -25 -110 -13 -13 -27
-39 -30 -56 -4 -18 -27 -54 -50 -80 l-43 -48 -99 -7 c-87 -6 -102 -4 -124 12
-21 14 -25 26 -24 64 0 39 6 52 34 81 37 38 28 47 -13 15 -37 -30 -64 -104
-49 -142 10 -27 9 -29 -11 -22 -36 10 -58 39 -64 81 -7 51 16 97 60 119 28 15
30 18 12 24 -17 6 -17 7 6 13 38 10 49 8 43 -8 -4 -8 -2 -15 4 -15 5 0 15 26
22 59 11 53 10 63 -8 104 -11 25 -18 48 -14 51 3 4 -8 21 -25 39 -16 17 -40
50 -53 71 l-23 39 45 -5 45 -5 -48 64 c-27 35 -49 68 -49 74 0 5 -5 9 -10 9
-12 0 14 -67 35 -90 22 -24 19 -30 -17 -30 -53 0 -106 19 -126 45 -22 28 -34
33 -26 10 13 -34 -62 -7 -103 37 -12 13 -29 39 -38 58 l-16 35 5 -35 c2 -19 6
-44 8 -55 4 -23 -50 -55 -94 -55 -26 0 -27 2 -17 27 6 16 6 30 0 36 -5 5 -12
0 -16 -14 -9 -31 -43 -67 -78 -86 -36 -18 -44 -12 -17 12 11 10 20 23 20 28 0
6 -12 -1 -27 -15 -44 -40 -115 -88 -131 -88 -12 0 -12 3 -2 15 16 19 11 19
-33 0 -20 -8 -55 -15 -77 -15 -33 0 -48 7 -84 40 -24 22 -48 40 -53 40 -18 0
-53 46 -59 78 -6 28 -1 37 34 72 33 34 46 40 81 40 28 0 47 -6 61 -20 20 -20
20 -20 20 0 0 26 -29 40 -84 40 -39 0 -52 -6 -86 -36 -22 -20 -43 -34 -46 -31
-12 12 26 76 59 95 40 25 80 28 128 8 52 -21 89 -28 89 -16 0 5 -7 10 -16 10
-13 0 -12 4 5 26 27 34 36 86 20 115 -7 15 -14 19 -16 12 -7 -20 -39 2 -53 37
-7 17 -10 48 -7 71 5 38 4 40 -12 25 -10 -9 -20 -16 -23 -16 -13 0 -15 58 -3
104 15 57 13 69 -6 34 -14 -28 -28 -38 -51 -38 -40 0 -4 96 60 162 l35 37 31
-23 c39 -29 62 -37 81 -30 23 9 18 24 -9 24 -14 0 -38 11 -54 25 -23 19 -28
30 -24 52 l5 28 -22 -27 c-31 -39 -47 -35 -66 15 -12 33 -14 52 -7 85 6 24 6
42 1 42 -5 0 -9 -5 -9 -12 0 -19 -41 -98 -51 -98 -5 0 -15 13 -24 30 -20 38
-18 132 4 195 15 41 23 52 52 62 24 8 28 12 14 14 -33 3 -47 -2 -76 -24 -42
-31 -44 -16 -4 31 l36 41 -46 -16 c-25 -8 -49 -13 -52 -10 -18 19 48 126 79
127 28 0 31 20 4 20 -37 0 -32 18 19 67 25 24 39 43 32 43 -8 0 -26 9 -41 21
-22 17 -25 24 -14 36 8 10 22 13 40 9 38 -7 36 8 -3 24 -45 19 -76 74 -91 158
-12 70 -11 81 26 270 21 108 42 211 46 227 16 59 100 286 124 333 28 56 101
141 130 152 29 11 63 -21 91 -85z m1115 -1171 c0 -26 -1 -27 -24 -18 -16 6
-22 45 -9 57 11 12 33 -14 33 -39z m-1460 18 c0 -4 -12 -17 -27 -30 -24 -20
-28 -21 -31 -7 -5 22 26 55 44 48 8 -3 14 -8 14 -11z m-90 -11 c0 -11 -4 -23
-10 -26 -15 -9 -299 -55 -342 -55 -22 0 -38 -5 -38 -12 0 -16 170 -3 290 22
52 11 102 17 110 15 22 -7 19 -49 -6 -77 -48 -52 -59 -116 -25 -141 21 -14 41
-103 41 -187 0 -25 9 -64 20 -87 15 -34 24 -43 44 -43 14 0 28 5 31 11 4 6 14
-4 24 -23 16 -32 16 -34 -7 -62 -73 -90 -91 -206 -33 -206 14 0 20 -10 25 -40
4 -27 14 -45 31 -56 14 -9 25 -24 25 -33 0 -26 37 -79 59 -86 29 -9 28 -55 -3
-84 -20 -19 -28 -21 -44 -12 -36 19 -106 13 -142 -11 -59 -41 -75 -72 -73
-141 3 -64 20 -100 59 -121 10 -6 40 -30 65 -52 49 -45 92 -59 143 -50 21 4
44 1 64 -9 29 -15 33 -15 59 1 15 10 37 25 48 35 11 9 37 22 57 28 20 7 42 19
48 27 8 9 30 14 59 14 l46 -1 -65 -25 c-36 -13 -71 -27 -79 -29 -8 -3 -12 -8
-9 -10 3 -3 49 6 103 20 116 29 140 26 33 -5 -112 -32 -398 -126 -443 -146
-22 -10 -43 -19 -47 -20 -5 -1 -10 -3 -13 -4 -3 -1 -8 -3 -12 -4 -5 -1 -13 -5
-19 -8 -19 -13 -176 -69 -239 -87 -82 -22 -130 -19 -161 10 -69 64 -103 142
-174 404 -23 83 -59 206 -80 275 -21 69 -64 213 -94 320 -30 107 -64 222 -76
255 -34 98 -71 255 -77 327 -6 67 -6 67 23 79 37 14 225 51 374 73 63 10 169
25 235 35 169 26 195 26 195 2z m1600 -186 c0 -20 -17 -27 -42 -19 l-21 6 24
18 c25 20 39 18 39 -5z m1320 -45 c8 -5 11 -10 5 -10 -5 0 -17 5 -25 10 -8 5
-10 10 -5 10 6 0 17 -5 25 -10z m-2877 -110 c-3 -12 -8 -19 -11 -16 -5 6 5 36
12 36 2 0 2 -9 -1 -20z m3155 -721 c13 -16 19 -29 14 -29 -18 0 -62 53 -61 74
0 20 1 20 12 2 7 -10 23 -32 35 -47z m-992 -293 c77 -80 121 -100 208 -93 54
4 80 1 109 -11 34 -15 37 -20 32 -46 -3 -16 -5 -37 -5 -48 0 -19 -1 -19 -19 3
-22 28 -38 20 -22 -9 14 -26 14 -88 0 -169 -13 -76 -34 -96 -115 -113 -58 -12
-105 -7 -141 16 -19 12 -23 24 -24 72 l-1 57 -15 -35 c-14 -31 -14 -39 0 -78
l15 -43 -36 3 c-29 2 -41 10 -60 38 -37 55 -16 118 58 168 23 15 27 22 16 22
-54 0 -116 -80 -116 -148 0 -37 -8 -39 -44 -11 -35 27 -35 77 -1 116 13 15 25
22 25 16 0 -7 5 -13 10 -13 6 0 10 16 10 35 0 33 1 35 28 29 l27 -7 -22 22
c-18 17 -23 33 -23 71 0 28 5 50 10 50 6 0 10 -14 10 -31 0 -17 4 -28 10 -24
15 10 12 72 -6 108 -9 18 -27 44 -41 58 -24 26 -24 28 -6 38 41 24 74 13 129
-43z m-356 -51 c-19 -23 -5 -29 25 -9 22 14 29 15 50 4 33 -17 32 -23 -10 -51
-19 -13 -35 -32 -35 -42 0 -10 3 -17 8 -15 4 2 31 16 60 31 48 25 54 26 69 12
8 -9 21 -14 28 -11 15 5 -4 -57 -23 -76 -12 -12 -17 -1 -13 30 1 6 -7 12 -19
12 -24 0 -26 -18 -3 -35 15 -11 15 -15 4 -29 -12 -14 -16 -14 -43 5 -27 20
-28 22 -13 39 9 10 30 24 46 30 25 11 40 30 24 30 -13 0 -104 -51 -111 -62 -5
-7 9 -26 36 -50 44 -37 44 -37 65 -18 12 11 25 20 30 20 16 0 -38 -50 -82 -76
l-44 -25 23 -19 c33 -26 17 -34 -31 -14 -34 13 -39 19 -31 34 25 47 -44 27
-153 -44 -24 -17 -27 -16 -46 3 -12 12 -21 25 -21 29 0 5 23 19 51 32 42 20
55 22 80 13 35 -13 40 3 5 18 -31 14 -24 43 15 59 15 7 34 19 41 28 11 13 10
14 -12 7 -14 -4 -34 -13 -45 -20 -18 -11 -24 -10 -44 6 -28 23 -76 24 -115 4
-35 -19 -37 -19 -30 0 7 17 57 42 94 47 14 2 34 11 44 21 11 9 27 17 35 17 10
0 6 -7 -11 -18 -31 -18 -38 -38 -10 -27 68 29 73 29 93 17 12 -8 24 -10 27 -7
11 10 -29 35 -57 36 l-26 0 23 16 c12 8 22 21 22 29 0 7 8 18 18 23 24 14 26
13 12 -4z m193 -15 c10 -10 7 -10 -11 -1 -12 7 -27 9 -32 6 -5 -3 -18 -1 -27
4 -14 9 -10 10 20 7 21 -2 44 -9 50 -16z m977 0 c9 -17 7 -28 -12 -58 -12 -20
-25 -55 -28 -78 l-5 -42 -180 54 c-225 68 -216 64 -187 75 16 6 30 4 48 -7 35
-24 92 -13 188 35 94 48 158 55 176 21z m-2310 7 c0 -2 -10 -12 -22 -23 l-23
-19 19 23 c18 21 26 27 26 19z m1055 -15 c-13 -11 -95 -43 -95 -37 0 6 81 44
95 45 5 0 5 -3 0 -8z m1299 -126 c2 -43 9 -83 15 -89 17 -17 13 -27 -9 -27
-27 0 -43 36 -37 79 6 33 5 35 -8 17 -8 -11 -15 -14 -15 -7 0 15 41 113 46
109 2 -2 5 -39 8 -82z m-2265 19 c23 -8 49 -21 57 -30 9 -8 19 -13 24 -10 5 3
10 1 12 -4 1 -5 23 -21 48 -35 31 -18 39 -26 25 -26 -18 -1 -19 -1 -2 -11 9
-5 17 -14 17 -20 0 -5 -11 -2 -25 7 -14 9 -29 13 -33 9 -4 -4 3 -14 15 -22
l23 -15 -22 -18 c-19 -15 -26 -16 -55 -4 -38 16 -43 17 -43 6 0 -5 12 -14 27
-21 18 -8 23 -15 16 -22 -7 -7 -23 -4 -51 10 -49 25 -52 25 -52 7 0 -7 10 -16
23 -20 21 -5 21 -7 -12 -26 -30 -19 -35 -20 -57 -5 -25 16 -54 20 -54 7 0 -5
17 -17 39 -26 37 -17 40 -17 79 3 51 26 60 26 39 3 -10 -11 -19 -43 -22 -82
-5 -51 -2 -69 14 -96 11 -18 16 -36 12 -39 -15 -9 -41 74 -43 136 -2 61 -11
76 -22 37 -10 -39 -6 -101 10 -143 9 -22 15 -46 14 -52 0 -7 -2 -24 -3 -37 -2
-21 -6 -23 -32 -19 -23 3 -39 -3 -67 -27 -21 -17 -38 -35 -38 -40 0 -9 76 -35
131 -44 21 -4 43 -13 50 -22 7 -9 30 -24 51 -35 21 -11 38 -21 38 -23 0 -15
-155 42 -380 139 -142 61 -380 156 -470 187 -139 48 -230 89 -240 107 -7 14
-2 21 21 35 16 9 29 15 29 12 0 -3 21 4 48 15 81 35 716 244 797 262 11 3 21
5 21 6 1 0 20 -6 43 -14z m1932 -39 c52 -18 126 -41 165 -51 66 -16 72 -20 81
-48 13 -45 64 -73 109 -59 19 5 34 9 34 7 0 -10 -317 -187 -740 -413 -129 -69
-275 -147 -325 -174 -49 -26 -199 -104 -331 -173 -265 -137 -278 -141 -382
-110 -71 21 -393 181 -384 190 4 5 1 5 -6 1 -8 -5 -122 39 -280 107 -147 63
-312 131 -367 151 -116 42 -338 128 -345 134 -3 2 3 10 14 17 10 8 16 21 13
29 -4 11 19 6 89 -20 78 -28 104 -43 142 -82 38 -38 66 -55 147 -86 55 -21
148 -60 206 -86 113 -51 192 -73 228 -63 13 3 46 0 75 -7 46 -11 61 -10 128 9
42 11 147 51 234 89 88 38 191 81 231 96 39 15 149 65 245 112 178 88 295 137
307 129 4 -2 20 -6 36 -9 15 -3 37 -14 49 -25 44 -41 114 -43 158 -4 12 11 21
12 37 4 11 -6 39 -11 63 -11 100 0 190 89 190 187 -1 31 8 66 24 100 14 28 27
60 29 70 2 10 4 19 4 21 3 8 39 -2 122 -32z m-1031 -23 c0 -8 -65 -53 -76 -53
-8 0 -37 30 -33 35 6 5 72 23 92 24 9 1 17 -2 17 -6z m-101 -88 c26 -8 27 -21
4 -21 -10 0 -30 -3 -45 -7 -33 -9 -35 1 -12 46 16 30 17 30 25 10 4 -12 17
-24 28 -28z m236 -35 c-3 -5 -12 -10 -18 -10 -7 0 -6 4 3 10 19 12 23 12 15 0z
m70 -37 l35 -17 -40 -22 c-22 -13 -134 -71 -248 -130 -114 -58 -213 -111 -219
-116 -20 -16 -15 -2 12 42 14 22 26 49 28 60 4 25 28 43 93 69 27 10 101 44
164 75 63 31 120 56 127 56 7 0 28 -8 48 -17z m-323 -14 c19 -10 19 -11 -9
-27 -59 -34 -68 -41 -61 -47 3 -4 16 -1 28 5 42 23 30 2 -14 -24 -56 -33 -60
-33 -41 4 8 16 15 38 15 49 0 18 34 51 53 51 5 0 17 -5 29 -11z m379 -80 c-18
-19 -490 -232 -611 -276 -20 -7 47 39 85 59 17 9 71 37 120 64 50 26 157 82
239 125 148 76 150 77 161 56 7 -12 9 -25 6 -28z m-2089 -59 c4 0 8 -15 8 -32
l-1 -33 -27 32 c-15 17 -32 45 -39 63 l-12 31 32 -30 c17 -17 34 -31 39 -31z
m1083 10 c-8 -16 -15 -47 -15 -70 0 -25 -4 -39 -10 -35 -19 12 -12 93 10 115
28 28 33 25 15 -10z m1 -175 c-5 -32 -56 -52 -56 -22 0 8 -9 22 -19 31 -15 14
-17 21 -9 30 9 10 20 8 49 -8 20 -11 36 -25 35 -31z m-171 -50 c30 -13 34 -19
25 -30 -19 -22 -42 -26 -83 -11 l-39 13 29 21 c15 12 29 22 29 22 1 0 18 -7
39 -15z m80 -13 c-3 -3 -11 0 -18 7 -9 10 -8 11 6 5 10 -3 15 -9 12 -12z m155
-47 c6 -4 19 -3 28 1 59 25 52 12 -13 -25 -64 -36 -69 -37 -53 -11 7 11 19 20
27 20 11 0 11 3 1 15 -11 13 -15 11 -32 -10 -22 -28 -38 -32 -38 -10 0 8 5 15
12 15 9 0 9 3 1 11 -16 16 -33 2 -33 -27 0 -16 7 -27 22 -33 16 -6 18 -9 7
-13 -8 -3 -34 6 -58 20 -49 29 -49 29 49 68 53 22 55 22 62 4 4 -10 12 -21 18
-25z m249 21 c-15 -14 -251 -108 -284 -112 -35 -6 -28 0 53 40 50 26 92 51 92
56 0 5 15 11 33 13 47 6 111 8 106 3z"/>
<path d="M1412 4018 c-17 -17 -15 -33 3 -18 12 10 18 10 30 0 8 -7 15 -19 15
-26 0 -8 5 -14 10 -14 15 0 12 22 -6 48 -17 25 -34 28 -52 10z"/>
<path d="M2446 4008 c-9 -12 -16 -29 -16 -38 1 -8 7 -3 16 13 8 15 17 27 19
27 3 0 11 -15 19 -32 16 -37 21 -14 6 26 -12 32 -24 33 -44 4z"/>
<path d="M2510 3877 c0 -20 5 -39 11 -42 7 -5 8 5 3 32 -9 51 -14 54 -14 10z"/>
<path d="M1526 3725 c4 -16 10 -79 13 -140 l7 -110 8 67 c9 75 2 137 -20 183
l-14 30 6 -30z"/>
<path d="M2329 3708 c-6 -24 -22 -64 -35 -90 -13 -27 -20 -48 -15 -48 13 0 59
97 67 143 9 50 -3 47 -17 -5z"/>
<path d="M2270 3536 c-6 -9 -10 -21 -8 -28 3 -8 9 -4 17 10 15 28 9 39 -9 18z"/>
<path d="M1509 3540 c-8 -45 -8 -60 -1 -60 14 0 23 43 12 54 -6 6 -10 8 -11 6z"/>
<path d="M2210 3481 c-14 -28 -12 -79 6 -141 l16 -53 19 42 c26 60 43 45 36
-33 -3 -33 -8 -70 -12 -81 -6 -19 -6 -19 9 -1 14 17 15 17 25 -15 l9 -34 1 36
c1 20 -2 39 -6 43 -4 4 -7 35 -8 69 0 51 -3 62 -18 65 -10 2 -27 -4 -37 -13
-18 -16 -19 -15 -26 20 -3 20 -4 54 -1 76 6 43 3 48 -13 20z"/>
<path d="M1241 3409 c0 -15 -7 -29 -15 -32 -16 -6 -36 -89 -36 -149 0 -27 15
-72 47 -139 26 -55 51 -99 55 -99 5 0 1 15 -8 33 -10 17 -23 55 -30 82 -37
136 11 154 71 28 27 -59 43 -68 24 -14 -19 54 15 89 38 39 9 -19 10 -15 11 28
0 29 8 68 18 90 l19 39 5 -60 6 -60 8 39 c5 21 20 58 33 82 14 24 23 50 20 56
-2 7 -12 -2 -21 -20 -14 -27 -20 -31 -31 -22 -8 7 -19 9 -26 5 -16 -10 -49
-85 -49 -113 0 -13 -4 -21 -9 -17 -5 3 -16 -2 -24 -10 -14 -13 -19 -11 -50 20
-41 41 -63 38 -76 -9 -8 -28 -9 -26 -10 24 -1 65 13 130 29 140 6 4 10 20 7
36 -4 28 -4 29 -6 3z"/>
<path d="M1730 3320 c-8 -5 -11 -12 -7 -16 4 -4 15 0 24 9 18 18 8 23 -17 7z"/>
<path d="M1635 3300 c-34 -22 -62 -55 -76 -89 -7 -18 -6 -30 6 -48 15 -22 14
-26 -8 -56 -60 -80 -83 -180 -51 -225 21 -30 47 -28 88 9 71 62 123 208 94
266 -13 25 -12 30 4 47 28 30 35 86 13 103 -25 17 -34 16 -70 -7z m58 -14 c12
-30 -56 -116 -91 -116 -23 0 -24 29 -2 65 34 56 81 82 93 51z m-47 -212 c7
-27 -7 -50 -25 -40 -12 8 -15 49 -4 59 13 13 23 7 29 -19z m-48 -46 c-2 -13
-7 -23 -13 -23 -5 0 -11 10 -13 23 -2 15 2 22 13 22 11 0 15 -7 13 -22z m52
-12 c0 -11 -19 -15 -25 -6 -3 5 1 10 9 10 9 0 16 -2 16 -4z m-77 -95 l22 11
-22 -22 c-25 -26 -53 -21 -53 10 0 20 1 20 16 6 12 -13 20 -14 37 -5z"/>
<path d="M2008 3296 c-42 -21 -36 -74 13 -131 l31 -35 -22 -52 c-19 -43 -21
-61 -15 -117 8 -74 16 -94 53 -133 41 -45 90 -32 113 29 23 61 2 191 -40 253
-12 18 -16 39 -13 71 3 40 0 51 -27 81 -36 41 -60 50 -93 34z m76 -47 c14 -17
26 -39 26 -49 0 -28 -11 -50 -24 -50 -15 0 -59 46 -76 78 -28 56 31 73 74 21z
m62 -213 c6 -26 -1 -46 -16 -46 -12 0 -24 46 -15 59 11 18 24 12 31 -13z m-36
-56 c0 -11 -4 -20 -10 -20 -5 0 -10 9 -10 20 0 11 5 20 10 20 6 0 10 -9 10
-20z m26 -119 c8 6 14 7 14 1 0 -5 -7 -15 -16 -23 -17 -14 -44 -4 -52 20 -3
10 0 10 17 1 17 -9 26 -9 37 1z"/>
<path d="M2621 3273 c-1 -12 4 -25 9 -28 12 -7 12 2 0 30 -8 19 -9 19 -9 -2z"/>
<path d="M2635 3150 c8 -74 -4 -112 -38 -121 -22 -6 -33 -2 -52 17 -19 19 -31
23 -48 18 -39 -11 -42 -24 -4 -17 29 4 38 2 43 -11 9 -25 -12 -64 -41 -78 -14
-6 -25 -15 -25 -20 0 -18 24 -6 62 32 23 22 51 40 62 40 19 -1 19 -2 -7 -25
-31 -28 -20 -34 18 -9 35 23 59 93 53 154 -3 28 -10 56 -17 63 -9 9 -10 -1 -6
-43z"/>
<path d="M1716 3133 c8 -33 12 -39 20 -30 9 9 -5 57 -16 57 -6 0 -8 -11 -4
-27z"/>
<path d="M2015 3116 c-9 -14 -15 -31 -13 -38 3 -7 12 2 22 20 21 41 14 54 -9
18z"/>
<path d="M2445 3090 c-3 -5 1 -10 9 -10 8 0 18 5 21 10 3 6 -1 10 -9 10 -8 0
-18 -4 -21 -10z"/>
<path d="M1910 2963 c8 -3 24 -10 35 -16 18 -9 19 -9 6 6 -7 10 -23 17 -35 16
-14 0 -16 -2 -6 -6z"/>
<path d="M1710 2951 c0 -5 9 -7 20 -4 11 3 20 7 20 9 0 2 -9 4 -20 4 -11 0
-20 -4 -20 -9z"/>
<path d="M1689 2910 l-24 -21 35 17 c43 21 47 24 28 24 -9 0 -26 -9 -39 -20z"/>
<path d="M1940 2922 c0 -5 7 -15 15 -22 8 -7 15 -8 15 -2 0 5 -7 15 -15 22 -8
7 -15 8 -15 2z"/>
<path d="M1295 2900 c-19 -8 -19 -9 3 -9 12 -1 22 4 22 9 0 6 -1 10 -2 9 -2 0
-12 -4 -23 -9z"/>
<path d="M1722 2873 c-38 -18 -62 -58 -62 -102 0 -22 9 -37 35 -57 79 -60 81
-128 5 -189 -20 -16 -20 -14 4 13 36 38 30 41 -20 7 -48 -33 -95 -40 -160 -26
-57 13 -80 30 -42 32 16 1 12 4 -15 11 -20 6 -42 19 -48 30 -13 25 -4 94 17
126 18 27 1 30 -19 2 -8 -11 -16 -17 -20 -14 -9 10 11 54 44 95 17 22 26 39
19 39 -6 0 -8 5 -5 10 9 15 -9 12 -31 -6 -18 -14 -18 -15 6 -8 21 6 19 1 -19
-42 -35 -40 -41 -53 -36 -74 4 -14 7 -41 7 -60 -1 -58 7 -79 43 -115 37 -36
76 -52 139 -58 32 -3 41 -9 52 -35 7 -18 18 -32 24 -32 5 0 10 -17 10 -38 0
-102 34 -205 84 -251 21 -20 32 -23 67 -18 25 3 52 15 65 29 32 32 64 126 64
190 1 64 14 76 116 107 91 27 210 123 220 178 8 43 -9 104 -36 128 -20 18 -20
18 -5 -18 25 -59 19 -92 -25 -151 -21 -30 -54 -64 -72 -77 l-33 -23 20 24 20
24 -30 -19 c-98 -63 -147 -69 -219 -29 -52 29 -83 68 -92 113 -7 33 -11 29 97
120 20 17 39 42 41 56 7 36 -24 79 -74 104 -53 25 -91 26 -136 4z m36 -415 c5
-7 13 -48 17 -91 11 -115 29 -112 22 4 -3 52 -3 85 0 75 3 -13 7 -15 12 -7 12
19 63 -27 56 -50 -5 -14 -2 -17 8 -13 11 4 17 -4 23 -28 16 -71 -5 -152 -48
-188 -31 -26 -35 -25 -30 10 3 18 0 30 -7 30 -6 0 -11 -10 -11 -22 0 -42 -14
-52 -43 -33 -45 29 -71 99 -75 196 -4 84 -3 87 23 108 32 24 39 26 53 9z"/>
<path d="M1735 2410 c3 -5 8 -10 11 -10 2 0 4 5 4 10 0 6 -5 10 -11 10 -5 0
-7 -4 -4 -10z"/>
<path d="M1750 2310 c0 -19 3 -21 12 -12 9 9 9 15 0 24 -9 9 -12 7 -12 -12z"/>
<path d="M1731 2218 c-1 -10 1 -18 3 -18 2 0 11 -3 20 -6 9 -3 16 -1 16 5 0 6
-6 11 -14 11 -8 0 -17 6 -19 13 -3 7 -6 5 -6 -5z"/>
<path d="M2240 2779 c7 -11 14 -19 16 -16 7 7 -7 37 -17 37 -6 0 -5 -9 1 -21z"/>
<path d="M2460 2722 c0 -5 7 -15 15 -22 8 -7 15 -8 15 -2 0 5 -7 15 -15 22 -8
7 -15 8 -15 2z"/>
<path d="M2450 2678 c0 -23 21 -68 32 -68 12 0 -2 52 -18 70 -12 12 -14 12
-14 -2z"/>
<path d="M2140 2655 c0 -17 -8 -42 -17 -55 -16 -24 -16 -24 1 -10 26 20 38 58
26 78 -8 14 -9 11 -10 -13z"/>
<path d="M1687 2643 c-4 -3 -7 -11 -7 -17 0 -6 5 -5 12 2 6 6 9 14 7 17 -3 3
-9 2 -12 -2z"/>
<path d="M2075 2573 l-17 -28 23 22 c12 12 20 25 17 28 -3 3 -13 -7 -23 -22z"/>
<path d="M1236 2572 c-3 -6 10 -12 29 -14 22 -2 34 0 32 6 -5 14 -53 20 -61 8z"/>
<path d="M3169 2555 c42 -19 47 -19 31 0 -7 8 -24 15 -39 15 -25 -1 -25 -1 8
-15z"/>
<path d="M2654 2486 c1 -49 3 -54 14 -39 8 11 11 30 7 48 -10 53 -23 48 -21
-9z"/>
<path d="M1290 2419 c0 -5 5 -7 10 -4 6 3 10 8 10 11 0 2 -4 4 -10 4 -5 0 -10
-5 -10 -11z"/>
<path d="M2942 2373 c13 -27 17 -48 13 -73 -5 -27 -4 -32 5 -23 18 16 15 77
-5 107 -26 39 -36 31 -13 -11z"/>
<path d="M2308 2358 c-28 -30 -51 -31 -42 0 2 9 -5 -3 -16 -28 -27 -56 -37
-62 -74 -43 l-31 16 19 -22 c11 -11 29 -21 41 -21 23 0 55 28 55 48 0 6 10 12
21 14 12 2 31 15 42 30 29 38 18 42 -15 6z"/>
<path d="M3543 2355 c-15 -13 -23 -25 -16 -25 6 0 15 5 18 11 4 6 16 14 28 18
12 5 16 10 9 14 -6 4 -23 -4 -39 -18z"/>
<path d="M4036 2368 c-4 -9 -2 -26 4 -38 16 -30 20 -22 11 20 -6 26 -10 31
-15 18z"/>
<path d="M4091 2315 c-1 -39 20 -85 39 -85 5 0 3 12 -5 28 -7 15 -18 43 -23
62 l-10 35 -1 -40z"/>
<path d="M2908 2324 c-5 -4 -8 -16 -8 -28 0 -14 3 -17 11 -9 6 6 9 19 7 28 -1
9 -6 13 -10 9z"/>
<path d="M2501 2292 c-7 -13 -11 -26 -8 -28 8 -8 29 25 25 38 -3 8 -9 4 -17
-10z"/>
<path d="M2130 2280 c0 -5 5 -10 11 -10 5 0 7 5 4 10 -3 6 -8 10 -11 10 -2 0
-4 -4 -4 -10z"/>
<path d="M1480 2205 c-7 -9 -11 -18 -8 -20 3 -3 11 1 18 10 7 9 11 18 8 20 -3
3 -11 -1 -18 -10z"/>
<path d="M3210 2150 c-6 -11 -7 -20 -3 -20 5 0 14 9 21 20 7 11 8 20 2 20 -5
0 -14 -9 -20 -20z"/>
<path d="M1330 2075 c-6 -8 -10 -19 -8 -26 2 -6 9 0 16 15 13 29 10 33 -8 11z"/>
<path d="M2242 2010 c-1 -8 -5 -33 -8 -55 -5 -31 -4 -37 5 -29 7 7 11 29 8 55
-2 24 -4 37 -5 29z"/>
<path d="M2161 1994 c0 -11 3 -14 6 -6 3 7 2 16 -1 19 -3 4 -6 -2 -5 -13z"/>
<path d="M3467 1997 c-14 -36 -7 -76 19 -104 24 -27 25 -27 12 -3 -7 14 -15
48 -18 75 -3 35 -7 45 -13 32z"/>
<path d="M2182 1926 c-15 -59 -68 -116 -106 -116 -14 0 -26 -4 -26 -10 0 -16
49 -12 81 7 37 22 71 91 67 135 -3 32 -3 31 -16 -16z"/>
<path d="M1485 1856 c-4 -24 -4 -54 0 -66 5 -15 3 -20 -3 -16 -6 4 -14 27 -18
51 -7 49 -24 52 -24 4 0 -18 9 -39 25 -55 13 -13 29 -42 35 -64 15 -56 50 -80
119 -80 31 0 69 -1 85 -1 23 -1 39 8 68 39 51 55 49 73 -2 22 -31 -31 -47 -40
-75 -40 -34 0 -46 12 -25 25 5 3 15 15 21 26 8 16 1 13 -33 -11 -61 -45 -96
-39 -125 20 -18 34 -23 61 -23 117 0 81 -15 98 -25 29z"/>
<path d="M3452 1858 c2 -6 15 -18 29 -27 l24 -15 -24 27 c-26 29 -35 34 -29
15z"/>
<path d="M4186 1823 c-4 -9 -2 -21 4 -27 7 -7 10 -2 10 17 0 31 -5 34 -14 10z"/>
<path d="M3080 1800 c0 -5 5 -21 12 -35 12 -28 34 -35 23 -7 -4 9 -10 25 -12
35 -6 18 -23 24 -23 7z"/>
<path d="M2030 1759 c0 -11 29 -19 45 -13 25 10 17 19 -15 19 -16 0 -30 -3
-30 -6z"/>
<path d="M3232 1721 c11 -18 58 -47 58 -35 0 7 -53 53 -63 54 -4 0 -2 -9 5
-19z"/>
<path d="M2440 1686 c0 -45 73 -117 117 -115 17 0 17 1 -1 12 -40 26 -80 63
-97 92 -15 23 -19 26 -19 11z"/>
<path d="M2380 1615 c0 -8 61 -37 67 -31 3 2 -9 12 -26 20 -31 17 -41 19 -41
11z"/>
<path d="M4461 1583 c0 -4 4 -17 9 -28 8 -19 9 -19 9 2 1 12 -3 25 -9 28 -5 3
-10 3 -9 -2z"/>
<path d="M4110 1540 c-8 -5 -11 -12 -7 -16 4 -4 15 0 24 9 18 18 8 23 -17 7z"/>
<path d="M1254 1521 c-35 -21 -64 -58 -64 -80 0 -8 14 2 33 22 17 21 50 46 72
57 35 17 37 19 15 20 -14 0 -39 -9 -56 -19z"/>
<path d="M3684 1524 c-18 -15 -17 -15 15 -10 18 3 38 6 43 6 5 0 6 5 3 10 -9
15 -39 12 -61 -6z"/>
<path d="M1355 1510 c3 -5 15 -10 26 -10 11 0 17 5 14 10 -3 6 -15 10 -26 10
-11 0 -17 -4 -14 -10z"/>
<path d="M4240 1518 c0 -3 7 -22 15 -42 9 -20 13 -41 10 -46 -4 -6 -1 -10 4
-10 20 0 12 66 -9 85 -11 10 -20 16 -20 13z"/>
<path d="M2500 1338 c0 -8 11 -25 25 -38 17 -16 25 -19 25 -9 0 17 -9 29 -32
48 -15 11 -18 11 -18 -1z"/>
<path d="M2236 1245 c9 -14 20 -25 25 -25 5 0 2 11 -7 25 -9 14 -20 25 -25 25
-5 0 -2 -11 7 -25z"/>
<path d="M2510 1107 c0 -23 4 -36 10 -32 13 8 13 35 0 55 -7 11 -10 5 -10 -23z"/>
<path d="M2315 993 c-38 -9 -42 -26 -5 -19 19 3 39 11 44 16 11 11 -3 12 -39
3z"/>
<path d="M578 2760 c-74 -13 -177 -50 -205 -75 l-27 -22 54 -204 c29 -112 73
-271 97 -354 25 -82 62 -220 83 -305 21 -85 57 -204 79 -265 22 -60 58 -162
81 -225 43 -117 77 -175 110 -185 37 -12 379 89 396 116 7 13 11 14 -177 -41
-95 -27 -183 -50 -195 -50 -42 0 -55 24 -152 295 -54 148 -107 335 -334 1168
-9 33 -8 41 8 57 18 17 135 58 212 75 17 3 32 11 32 16 0 5 -3 8 -7 8 -5 -1
-29 -5 -55 -9z"/>
<path d="M650 2760 c0 -5 7 -10 15 -10 8 0 15 5 15 10 0 6 -7 10 -15 10 -8 0
-15 -4 -15 -10z"/>
<path d="M1013 1698 c-36 -46 -43 -160 -13 -225 24 -53 43 -57 24 -5 -16 44
-18 153 -4 201 11 38 8 48 -7 29z"/>
<path d="M906 1628 c-9 -34 -7 -86 3 -92 5 -4 11 21 13 54 3 61 -5 79 -16 38z"/>
<path d="M1353 1288 c-35 -9 -45 -28 -15 -28 20 0 60 26 52 33 -3 2 -20 0 -37
-5z"/>
<path d="M3287 1376 c-4 -10 -5 -21 -2 -24 9 -9 17 6 13 25 -3 17 -4 17 -11
-1z"/>
<path d="M3570 1381 c0 -6 5 -13 10 -16 6 -3 10 1 10 9 0 9 -4 16 -10 16 -5 0
-10 -4 -10 -9z"/>
<path d="M3530 1286 c0 -31 6 -34 13 -6 3 11 1 23 -4 26 -5 3 -9 -6 -9 -20z"/>
<path d="M3467 1244 c-43 -49 -34 -59 14 -16 17 15 30 35 28 44 -3 12 -14 5
-42 -28z"/>
<path d="M2875 1350 c-18 -20 -11 -25 19 -14 17 6 23 34 8 34 -5 0 -17 -9 -27
-20z"/>
<path d="M2923 1289 c-24 -12 -41 -25 -38 -29 3 -5 18 -2 33 6 39 20 72 17 99
-8 19 -17 23 -19 23 -5 0 16 -45 57 -64 57 -6 0 -30 -9 -53 -21z"/>
<path d="M2954 1245 c22 -17 46 -20 46 -6 0 5 -10 11 -22 15 -37 9 -44 6 -24
-9z"/>
<path d="M2802 1188 c-18 -18 -14 -38 7 -38 27 0 37 19 19 36 -11 11 -16 12
-26 2z"/>
<path d="M2850 1190 c0 -5 5 -10 10 -10 6 0 10 5 10 10 0 6 -4 10 -10 10 -5 0
-10 -4 -10 -10z"/>
<path d="M1876 1270 c-35 -17 -41 -18 -60 -5 -23 17 -36 19 -36 7 0 -5 15 -17
33 -26 31 -17 33 -17 80 9 26 15 47 29 47 31 0 10 -28 3 -64 -16z"/>
<path d="M1640 1243 c-59 -20 -59 -21 -30 -43 14 -11 20 -20 14 -20 -6 0 -23
9 -37 20 -14 11 -29 20 -35 20 -5 0 -43 -15 -83 -34 l-74 -33 45 -21 c25 -11
53 -23 63 -26 29 -9 19 -20 -36 -41 -58 -22 -64 -39 -25 -68 37 -28 79 -25
128 7 40 26 41 28 25 46 -10 11 -27 22 -38 26 -15 5 -16 8 -7 14 9 5 25 -1 45
-16 19 -14 45 -24 65 -24 40 0 31 -14 -10 -16 -32 -2 -100 -49 -100 -70 0 -15
50 -44 76 -44 29 0 85 43 80 62 -3 13 1 15 17 9 20 -8 89 18 101 38 10 15 -55
64 -67 52 -19 -19 -39 -13 -32 8 10 32 -35 56 -77 42 l-33 -11 29 24 c16 13
41 27 56 30 15 3 41 17 56 31 28 24 29 25 10 40 -25 19 -68 18 -126 -2z m105
-13 c9 -14 -62 -42 -86 -35 -10 4 -19 11 -19 16 0 13 18 11 22 -3 3 -7 12 -9
22 -5 11 4 16 13 12 22 -4 11 1 15 19 15 13 0 27 -5 30 -10z m-196 -82 c-44
-15 -59 -16 -79 -7 -19 9 -21 13 -10 17 8 2 23 9 34 14 13 7 16 7 12 -1 -4 -7
1 -11 13 -11 25 0 39 20 14 21 -16 0 -16 1 2 8 13 5 28 3 44 -7 23 -16 23 -16
-30 -34z m121 -49 c0 -6 9 -8 20 -4 27 9 25 1 -5 -19 -20 -13 -29 -14 -50 -4
-27 12 -32 24 -12 31 22 9 47 7 47 -4z m-112 -47 l23 -18 -40 -22 c-39 -22
-40 -22 -76 -5 l-37 18 48 22 c60 27 54 26 82 5z m231 -5 c8 -11 5 -16 -15
-25 -31 -15 -61 -15 -69 -2 -3 6 0 10 8 10 8 0 20 7 27 15 15 19 34 19 49 2z
m-128 -88 c-27 -22 -44 -24 -71 -6 -19 11 -18 13 17 28 28 12 43 14 57 6 19
-9 19 -10 -3 -28z"/>
<path d="M1640 1090 c0 -5 5 -10 10 -10 6 0 10 5 10 10 0 6 -4 10 -10 10 -5 0
-10 -4 -10 -10z"/>
<path d="M1497 1044 c-12 -13 -7 -34 8 -34 8 0 15 4 15 9 0 5 6 8 13 7 6 0 13
4 15 9 3 12 -40 19 -51 9z"/>
<path d="M1625 969 c-4 -6 -5 -13 -2 -16 7 -7 27 6 27 18 0 12 -17 12 -25 -2z"/>
<path d="M1920 1217 c-49 -24 -60 -33 -43 -35 24 -4 92 28 112 52 19 22 6 19
-69 -17z"/>
<path d="M1305 1133 c-17 -8 -41 -22 -53 -30 l-24 -15 23 -24 c28 -30 21 -30
-26 -3 -28 17 -45 20 -78 15 -78 -12 -126 -35 -127 -58 0 -12 56 -37 99 -44
23 -4 41 -10 41 -14 0 -10 89 -56 136 -70 39 -12 44 -11 107 26 36 22 66 41
67 44 0 3 -27 18 -60 33 l-60 28 30 29 c17 17 37 30 45 30 26 0 16 25 -17 44
-41 25 -67 27 -103 9z m79 -44 c-11 -3 -22 -2 -25 4 -4 5 -11 7 -17 3 -6 -3
-12 0 -15 6 -3 9 -7 7 -12 -6 -5 -11 -3 -21 6 -27 22 -14 -18 -11 -44 3 -21
11 -20 13 27 34 46 21 51 22 74 6 22 -15 23 -16 6 -23z m-158 -58 c-3 -4 -23
-15 -44 -25 -33 -15 -45 -16 -83 -6 -41 12 -42 13 -20 21 15 6 28 5 36 -1 19
-16 62 -2 68 22 5 16 9 18 27 8 11 -6 18 -14 16 -19z m194 -70 c0 -3 -20 -18
-44 -32 l-44 -27 -61 20 c-34 11 -61 21 -59 23 2 1 17 7 35 13 26 9 31 8 26
-4 -4 -10 3 -14 22 -14 15 0 24 -4 20 -10 -11 -18 14 -11 35 10 27 27 25 30
-10 25 -39 -5 -48 11 -13 23 20 6 37 5 61 -6 17 -9 32 -18 32 -21z"/>
<path d="M1727 1143 c-10 -9 13 -33 32 -33 20 1 53 25 45 33 -4 4 -15 2 -26
-4 -13 -7 -23 -7 -32 0 -7 6 -16 8 -19 4z"/>
<path d="M1694 934 l-28 -27 29 -23 c16 -12 33 -20 39 -17 5 3 -1 15 -14 25
-22 18 -22 19 -4 33 24 18 26 18 50 0 21 -16 44 -20 44 -7 0 10 -54 42 -73 42
-8 0 -27 -12 -43 -26z"/>
<path d="M1458 921 c-86 -48 -86 -56 -7 -86 46 -17 47 -17 85 8 64 40 70 52
37 75 -45 32 -65 32 -115 3z m76 -52 c-34 -27 -35 -27 -74 -12 l-39 16 41 27
c40 27 43 27 74 12 l33 -15 -35 -28z"/>
<path d="M1493 888 c-13 -6 -23 -15 -23 -20 0 -14 27 -9 51 12 27 22 10 26
-28 8z"/>
<path d="M1806 871 c17 -28 74 -70 74 -54 0 11 -73 83 -83 83 -5 0 -1 -13 9
-29z"/>
<path d="M1582 847 c-50 -51 -51 -51 61 -98 l78 -32 29 28 c17 16 30 32 30 37
0 16 -25 7 -45 -16 l-20 -24 -72 35 -72 35 30 26 c30 24 32 25 59 9 42 -25 47
-21 15 13 -16 17 -34 30 -40 30 -6 0 -30 -20 -53 -43z"/>
<path d="M1760 851 c0 -12 50 -44 58 -36 4 3 -4 15 -18 25 -27 21 -40 25 -40
11z"/>
<path d="M1627 843 c-15 -15 -5 -30 29 -42 19 -7 38 -10 41 -8 8 9 -7 27 -22
27 -7 0 -15 7 -19 15 -6 16 -18 19 -29 8z"/>
<path d="M3706 1168 c-20 -62 -14 -84 18 -72 22 8 29 39 14 63 -15 24 -27 27
-32 9z"/>
<path d="M3770 1140 c0 -15 5 -20 18 -18 9 2 17 10 17 18 0 8 -8 16 -17 18
-13 2 -18 -3 -18 -18z"/>
<path d="M3060 965 c-44 -16 -360 -181 -373 -194 -13 -13 68 -90 128 -121 28
-14 63 -33 78 -43 15 -11 35 -16 43 -13 8 3 13 2 9 -3 -3 -5 16 -17 41 -27 46
-18 47 -17 93 6 25 14 49 29 53 35 4 5 8 7 8 2 0 -9 92 37 145 73 22 15 64 42
93 60 28 17 52 39 52 47 0 21 -70 83 -122 110 -175 89 -186 92 -248 68z m161
-51 l88 -46 -51 -34 c-28 -19 -117 -68 -198 -110 l-147 -75 -62 36 c-35 19
-77 45 -93 57 -29 20 -30 22 -12 35 33 24 355 183 371 183 8 0 55 -21 104 -46z
m160 -95 c16 -11 29 -25 29 -30 0 -6 -38 -28 -85 -51 l-84 -40 -36 22 c-19 12
-35 24 -35 26 0 3 5 2 10 -1 9 -5 66 27 80 46 5 6 80 48 88 49 2 0 17 -9 33
-21z m-195 -115 l25 -17 -73 -40 c-78 -42 -96 -46 -142 -28 l-29 12 48 25 c26
14 62 34 79 45 38 23 59 24 92 3z"/>
<path d="M1146 866 c6 -15 44 -33 79 -38 34 -5 22 24 -15 38 -48 17 -71 17
-64 0z"/>
<path d="M2562 650 c-27 -11 -39 -37 -24 -52 15 -15 67 7 87 38 15 23 15 24
-12 23 -16 0 -38 -4 -51 -9z"/>
<path d="M2622 618 c-17 -17 -15 -35 5 -42 22 -9 36 7 28 33 -7 24 -16 26 -33
9z"/>
<path d="M2216 421 c-10 -15 75 -67 88 -54 14 14 4 30 -29 46 -40 19 -51 21
-59 8z"/>
<path d="M2344 359 c-9 -16 12 -33 31 -25 14 5 15 9 5 21 -15 18 -26 19 -36 4z"/>
<path d="M2395 330 c-9 -15 4 -30 26 -30 12 0 19 7 19 20 0 21 -33 29 -45 10z"/>
<path d="M1020 3146 c0 -29 33 -100 52 -112 8 -5 9 -2 4 12 -5 10 -16 40 -26
67 -21 58 -30 68 -30 33z"/>
<path d="M4590 1659 c0 -4 12 -33 27 -65 22 -47 28 -74 28 -131 0 -84 16 -83
23 2 5 63 -13 122 -53 170 -13 17 -24 27 -25 24z"/>
<path d="M4731 1588 c0 -7 9 -35 19 -63 15 -42 19 -45 19 -22 1 15 -6 43 -13
62 -15 35 -27 46 -25 23z"/>
</g>
</svg>
