<?xml version="1.0" standalone="no"?>
<!DOCTYPE svg PUBLIC "-//W3C//DTD SVG 20010904//EN"
 "http://www.w3.org/TR/2001/REC-SVG-20010904/DTD/svg10.dtd">
<svg version="1.0" xmlns="http://www.w3.org/2000/svg"
 width="1024.000000pt" height="1024.000000pt" viewBox="0 0 1024.000000 1024.000000"
 preserveAspectRatio="xMidYMid meet">

<g transform="translate(0.000000,1024.000000) scale(0.100000,-0.100000)"
fill="#000000" stroke="none">
<path d="M7086 9389 c2 -4 -29 -14 -69 -24 -39 -9 -76 -20 -82 -23 -5 -4 -20
-5 -32 -4 -16 3 -37 -12 -72 -47 -28 -28 -48 -43 -44 -34 6 16 4 16 -18 -2
-33 -27 -40 -38 -34 -52 2 -7 1 -12 -3 -12 -22 4 -42 -2 -37 -11 10 -16 -7
-11 -19 5 -9 13 -22 4 -81 -56 -39 -40 -64 -68 -56 -64 9 5 12 4 7 -3 -4 -7
-12 -12 -17 -12 -31 0 -201 -165 -251 -241 -9 -15 -31 -42 -48 -60 -34 -36
-90 -114 -90 -124 0 -18 -68 -94 -84 -95 -20 0 -66 -47 -66 -67 0 -25 -67 -33
-82 -10 -4 7 -8 -2 -8 -20 0 -17 -5 -35 -10 -38 -6 -3 -9 -26 -8 -51 1 -34 5
-44 15 -40 8 3 11 1 8 -4 -8 -12 -3 -12 29 0 24 9 25 8 15 -17 -9 -26 -9 -26
31 -19 31 5 40 3 34 -5 -5 -9 -2 -10 11 -5 18 7 18 6 0 -14 -20 -22 -14 -26
17 -9 18 9 20 9 15 -4 -4 -10 1 -18 13 -22 12 -4 17 -12 13 -22 -5 -14 -1 -15
27 -10 28 6 31 5 20 -8 -7 -8 -16 -13 -20 -10 -4 3 -11 -2 -14 -10 -4 -12 0
-14 22 -9 26 5 26 5 8 -10 -23 -19 -5 -21 27 -4 20 10 21 10 8 -5 -7 -10 -10
-17 -5 -17 5 0 2 -5 -6 -11 -12 -8 -9 -10 12 -6 21 3 25 1 21 -12 -4 -9 -10
-21 -15 -28 -14 -18 0 -33 30 -33 l27 0 -24 -19 -25 -19 30 4 c16 2 23 1 17
-2 -24 -11 -13 -24 15 -18 l27 5 -28 -25 -28 -26 25 0 c27 0 34 -14 14 -26 -7
-5 -5 -11 8 -21 14 -11 16 -17 8 -31 -9 -13 -6 -20 12 -34 12 -10 27 -18 33
-18 6 0 8 -7 5 -15 -4 -9 0 -15 10 -15 9 0 16 -4 16 -10 0 -5 10 -11 23 -11
16 -1 18 -2 5 -6 -24 -6 -23 -23 2 -23 22 0 27 -15 9 -26 -8 -4 -4 -13 12 -25
27 -21 44 -25 33 -8 -4 7 -1 10 7 7 8 -3 13 -13 13 -22 -1 -12 7 -16 30 -16
21 0 27 -3 18 -9 -10 -6 -8 -10 10 -16 21 -8 21 -8 -9 -12 -20 -3 -33 -10 -33
-19 0 -8 4 -14 9 -14 14 0 66 -51 63 -61 -1 -5 6 -9 15 -10 15 0 15 -2 -2 -9
-18 -8 -18 -9 -2 -9 22 -1 69 -36 60 -45 -3 -3 9 -12 27 -19 25 -11 29 -15 15
-21 -9 -3 -25 -6 -36 -6 -10 0 -19 -4 -19 -10 0 -5 5 -10 10 -10 6 0 10 -11
10 -24 0 -20 -4 -23 -27 -18 -38 7 -27 -3 27 -22 36 -14 39 -16 13 -12 -28 5
-33 2 -33 -14 0 -10 4 -22 10 -25 5 -3 14 -15 20 -25 8 -16 6 -21 -12 -31 -22
-12 -22 -11 -8 6 8 10 11 16 5 13 -5 -3 -23 1 -40 8 -19 8 -23 13 -12 14 9 0
17 5 17 10 0 6 -5 9 -11 8 -6 -2 -13 7 -15 20 -7 42 -33 79 -84 122 -28 23
-49 48 -47 54 2 6 -2 17 -9 24 -7 7 -11 22 -9 33 2 12 -3 28 -11 36 -8 9 -13
21 -10 28 2 6 -9 27 -24 45 -16 19 -26 38 -23 43 3 5 -4 15 -16 23 -12 9 -19
20 -15 25 3 6 -3 13 -15 16 -14 3 -21 13 -21 28 0 15 -7 25 -21 28 -15 4 -20
11 -16 21 4 9 2 16 -3 16 -6 0 -10 6 -10 13 0 7 -20 33 -44 59 -25 25 -42 49
-39 52 4 3 -1 6 -10 6 -10 0 -17 6 -17 13 0 19 -45 41 -67 33 -10 -4 -13 -10
-7 -14 17 -11 24 -40 11 -46 -7 -2 -5 -5 5 -5 17 -1 19 -16 5 -38 -6 -9 -2
-13 11 -13 27 0 36 -37 11 -43 -25 -7 -24 -27 1 -27 22 0 27 -15 8 -23 -7 -3
-5 -6 6 -6 18 -1 18 -2 2 -20 -15 -17 -15 -19 0 -32 15 -12 14 -14 -3 -20 -14
-6 -15 -8 -2 -8 17 -1 22 -31 5 -32 -6 0 -2 -4 9 -9 18 -8 18 -9 -5 -10 -14
-1 -19 -4 -12 -7 6 -2 12 -16 12 -29 0 -13 5 -24 11 -24 8 0 8 -5 -1 -15 -9
-11 -9 -15 -1 -15 9 0 9 -5 1 -20 -6 -11 -7 -20 -1 -20 9 0 24 -30 17 -37 -2
-2 -68 6 -147 17 -184 28 -305 23 -417 -16 -83 -28 -121 -51 -165 -99 -18 -19
-25 -23 -19 -10 5 11 7 26 4 34 -3 10 0 11 9 5 11 -6 10 -3 -1 11 -9 11 -10
16 -2 11 6 -4 12 -2 12 3 0 6 -3 11 -7 11 -5 0 -8 19 -8 41 0 32 6 45 23 57
12 8 22 21 22 29 0 8 4 12 9 9 7 -5 21 15 21 30 0 14 -42 0 -55 -18 l-15 -23
2 27 c1 15 7 24 14 21 7 -2 17 5 23 16 10 17 9 20 -4 15 -8 -4 -15 -1 -15 4 0
6 -9 13 -19 17 -11 3 -22 14 -25 23 -2 9 -4 6 -3 -8 2 -20 -2 -25 -18 -23 -11
1 -14 0 -7 -3 16 -8 15 -24 -2 -24 -7 0 -16 -11 -18 -24 -4 -18 -1 -23 10 -19
12 5 13 -6 7 -68 -4 -41 -7 -93 -6 -116 l2 -43 -105 0 -105 0 -5 33 c-3 17 -5
82 -3 142 2 116 -4 145 -29 124 -11 -9 -14 -9 -14 0 0 7 -6 11 -12 10 -25 -3
-37 1 -41 14 -2 6 -2 2 0 -10 3 -20 1 -21 -23 -9 -26 14 -64 11 -64 -5 0 -5
-12 -9 -26 -9 -14 0 -23 -4 -20 -9 4 -5 0 -12 -6 -14 -10 -4 -10 -6 0 -6 7 -1
11 -5 8 -10 -4 -5 -2 -21 4 -36 7 -19 7 -24 -1 -19 -22 13 -28 -20 -8 -47 25
-35 24 -43 -6 -59 -21 -11 -33 -10 -87 8 -116 38 -181 45 -321 38 -73 -3 -147
-9 -166 -13 l-34 -6 21 24 c26 27 27 38 7 45 -8 4 -15 12 -15 20 0 8 -4 14
-10 14 -14 0 -13 -23 2 -38 7 -7 8 -12 4 -12 -5 0 -15 8 -22 18 -12 15 -13 15
-8 -8 2 -14 1 -18 -2 -10 -14 31 -37 51 -45 38 -4 -7 -11 -9 -16 -5 -4 5 3 16
16 26 13 10 21 23 17 29 -3 6 2 13 11 15 17 4 17 5 1 6 -21 1 -24 17 -5 24 9
4 9 8 -1 15 -11 8 -9 14 9 31 13 12 17 21 10 21 -9 0 -7 11 8 36 23 39 26 48
11 39 -5 -3 -10 -2 -10 4 0 5 9 12 19 16 13 4 17 12 14 25 -3 11 4 28 16 42
25 26 36 60 28 88 -3 11 -2 18 2 17 7 -2 11 7 11 28 0 8 -5 15 -11 15 -5 0 -7
-4 -4 -10 3 -5 0 -10 -8 -10 -8 0 -22 -9 -32 -20 -10 -11 -24 -20 -30 -20 -24
0 -67 -28 -53 -33 9 -4 7 -11 -10 -26 -13 -11 -21 -25 -18 -30 4 -5 -5 -18
-19 -29 -14 -11 -20 -22 -14 -24 6 -2 -9 -21 -35 -42 -35 -30 -43 -42 -35 -52
8 -10 7 -18 -5 -29 -9 -9 -16 -27 -16 -40 0 -18 -4 -23 -16 -18 -16 6 -58 -30
-47 -41 4 -3 2 -6 -4 -6 -11 0 -43 -59 -43 -79 0 -8 9 -7 28 2 15 8 36 17 48
21 18 6 20 3 16 -24 -2 -16 -9 -30 -14 -30 -5 0 -7 -4 -3 -9 3 -5 -6 -18 -20
-29 -26 -20 -33 -42 -14 -42 5 0 7 4 4 10 -4 6 1 7 11 3 20 -8 21 -7 -78 -43
-31 -12 -71 -34 -88 -50 -29 -27 -30 -31 -30 -114 0 -74 -2 -85 -14 -74 -8 7
-12 16 -9 21 2 4 1 7 -4 7 -10 0 -9 149 2 210 4 25 12 51 17 58 6 6 8 12 4 12
-3 0 0 15 8 34 9 22 11 37 4 44 -6 6 0 12 17 16 17 4 25 12 22 21 -3 7 1 19 9
25 8 7 14 18 14 26 0 7 8 17 17 23 14 8 15 12 4 25 -12 14 -10 16 13 16 15 0
25 4 22 9 -4 5 0 11 6 14 10 3 10 7 -1 20 -12 15 -10 17 13 17 23 0 26 3 21
20 -5 17 -1 21 24 26 25 5 29 9 20 20 -16 19 -7 59 13 58 11 -1 21 10 28 32 7
19 18 34 25 34 8 0 12 6 9 14 -3 8 5 25 18 38 13 13 23 25 24 28 3 17 20 47
33 58 12 10 13 15 4 18 -16 7 -5 34 14 34 10 0 12 6 8 19 -5 16 -2 18 14 14
21 -5 51 17 51 37 0 14 25 40 39 40 6 0 11 6 12 13 0 6 3 25 5 41 3 19 -1 36
-13 50 -11 11 -25 33 -32 48 -15 29 -41 45 -41 25 0 -15 -74 63 -123 129 -46
65 -69 77 -56 31 13 -46 12 -48 -15 -24 -17 15 -21 24 -13 29 7 4 3 10 -11 15
-13 5 -23 12 -23 16 2 18 0 21 -8 9 -6 -10 -10 -10 -21 3 -9 11 -9 15 -1 15 9
0 9 5 1 20 -6 11 -15 18 -21 15 -5 -4 -6 -12 -3 -18 4 -7 -15 11 -43 38 -27
28 -105 102 -173 165 -67 63 -144 134 -169 158 -29 27 -51 40 -61 36 -15 -6
-38 -12 -52 -13 -4 -1 -12 -10 -18 -21 -9 -16 -6 -22 20 -35 16 -8 30 -11 30
-6 0 5 -7 11 -15 15 -16 6 -21 36 -7 36 5 0 23 -15 39 -32 17 -18 46 -44 64
-57 49 -35 211 -202 204 -210 -4 -3 -18 8 -31 24 -21 27 -29 27 -25 2 1 -4 -7
-3 -18 3 -40 21 -40 9 -1 -26 22 -20 38 -40 35 -44 -3 -5 1 -12 8 -17 7 -4 26
-26 42 -48 16 -22 42 -53 57 -69 29 -31 39 -58 14 -37 -10 8 -16 9 -21 1 -4
-7 -13 -7 -27 1 -15 8 -19 8 -14 0 4 -6 0 -11 -10 -11 -12 0 -5 -10 22 -32 83
-68 170 -164 186 -205 18 -48 17 -51 -9 -25 -73 73 -228 177 -287 193 -23 6
-88 33 -144 60 -57 27 -108 49 -114 49 -5 0 -6 5 -3 10 3 6 -4 10 -18 10 -13
0 -24 -6 -24 -14 0 -7 7 -13 15 -12 8 1 17 -4 19 -10 6 -17 -38 -9 -49 9 -5 9
-19 22 -31 28 -21 12 -21 11 -5 -8 22 -24 23 -37 2 -29 -9 3 -12 2 -9 -5 4 -6
13 -8 21 -5 8 3 14 2 14 -2 0 -4 14 -16 31 -26 16 -10 28 -23 26 -29 -5 -17
-33 -15 -29 2 3 16 -26 40 -49 41 -9 0 -22 7 -29 15 -7 8 -18 15 -24 15 -16
-1 34 -40 51 -40 8 0 12 -4 9 -9 -3 -5 10 -23 29 -40 34 -29 47 -50 23 -35 -7
5 -8 3 -4 -5 5 -7 10 -10 13 -8 2 3 20 -11 39 -31 20 -20 31 -38 25 -40 -6 -2
-1 -13 10 -25 11 -12 17 -27 15 -34 -3 -7 0 -13 7 -13 14 0 57 -53 57 -70 0
-5 -6 -10 -12 -10 -7 0 2 -13 20 -30 18 -16 37 -30 41 -30 4 0 13 -16 21 -35
8 -19 19 -35 24 -35 6 0 5 -4 -2 -9 -7 -4 -25 -6 -40 -4 -19 3 -23 2 -13 -5
11 -8 11 -10 0 -15 -8 -3 -3 -6 11 -7 14 -1 19 -4 13 -7 -7 -2 -13 -13 -13
-23 0 -10 6 -21 13 -23 6 -3 -4 -6 -23 -8 -46 -3 -52 -2 -75 6 -18 7 -18 6 -4
-6 23 -20 32 -49 14 -49 -7 0 -17 5 -20 10 -3 6 -11 10 -17 10 -6 0 0 -9 13
-21 22 -19 22 -21 4 -19 -11 1 -29 1 -40 1 -18 -2 -17 -3 4 -12 14 -5 31 -7
39 -4 13 5 13 3 1 -11 -11 -13 -11 -18 -2 -21 8 -3 10 -15 6 -34 -3 -17 -1
-29 5 -29 5 0 13 -7 16 -16 6 -15 4 -15 -19 0 -26 17 -29 14 -28 -31 1 -15 -9
-17 -23 -3 -5 5 -15 5 -23 1 -11 -7 -9 -13 7 -29 24 -24 18 -36 -12 -20 -11 7
-24 11 -28 10 -5 -1 -8 3 -8 8 0 6 -6 10 -13 10 -8 0 -33 14 -55 30 -23 17
-42 28 -42 26 0 -9 -67 51 -122 109 -32 33 -58 65 -58 71 0 7 -7 14 -15 18 -8
3 -15 10 -15 16 0 6 6 8 13 4 6 -4 4 2 -5 13 -10 11 -18 27 -18 36 0 9 -12 23
-27 31 -24 13 -25 15 -8 16 15 0 17 2 6 9 -8 5 -10 14 -6 22 6 9 3 11 -9 6
-14 -6 -15 -3 -6 14 9 17 6 24 -17 47 -36 34 -62 68 -45 58 15 -9 16 6 2 20
-7 7 -6 11 6 11 20 0 119 -99 181 -180 52 -69 157 -185 185 -205 17 -12 17
-11 6 15 -7 15 -28 46 -48 68 -50 56 -120 152 -120 165 0 6 11 8 28 5 26 -5
26 -5 5 6 -13 7 -24 16 -24 21 -3 18 -6 25 -35 71 -16 26 -34 45 -39 43 -6 -2
-12 5 -12 17 -1 11 -6 23 -10 26 -18 13 -83 99 -83 110 0 6 -4 11 -10 11 -5 0
-16 14 -25 30 -18 34 -7 40 20 10 10 -11 22 -20 27 -20 13 0 -28 74 -62 111
-16 19 -30 37 -30 41 0 12 14 10 28 -4 10 -10 12 -5 10 24 -1 21 -8 40 -15 42
-7 3 -13 11 -13 18 0 9 3 9 12 0 16 -16 25 -15 32 3 3 8 -2 21 -10 30 -14 13
-14 15 0 15 19 0 20 5 6 30 -14 26 6 59 32 52 10 -2 18 1 18 7 0 6 -4 11 -9
11 -5 0 -8 11 -8 25 0 28 6 31 27 13 8 -7 6 -3 -4 10 -19 22 -19 22 1 22 14 0
23 9 27 25 4 15 16 27 30 31 17 4 23 11 19 22 -4 10 -3 13 6 8 7 -5 25 -3 41
4 21 9 34 9 52 0 19 -9 18 -8 -4 10 -16 12 -28 26 -28 32 0 6 6 5 15 -2 12
-10 19 -10 27 -2 8 8 18 6 37 -5 21 -12 23 -12 8 0 -11 9 -15 21 -10 32 4 13
3 16 -6 11 -11 -7 -40 18 -41 36 0 11 23 5 33 -7 6 -7 10 -6 13 2 3 7 12 9 21
6 12 -5 14 -3 8 7 -5 8 -3 11 6 8 8 -3 13 -11 12 -17 -2 -6 2 -11 7 -11 6 0
10 3 10 6 0 12 -35 64 -43 64 -4 0 -5 4 -2 10 3 5 0 7 -9 4 -9 -3 -17 2 -21
15 -3 11 -21 26 -40 32 -19 7 -31 17 -28 23 4 5 -1 7 -10 3 -10 -4 -17 -2 -17
4 0 7 -12 9 -32 5 -44 -9 -97 -7 -117 3 -17 10 -56 -11 -44 -22 3 -4 -1 -7
-11 -7 -11 0 -14 -4 -10 -12 5 -8 2 -9 -9 -5 -10 4 -17 2 -17 -5 0 -6 -10 -3
-22 8 -12 10 -18 13 -14 7 5 -9 1 -13 -11 -13 -11 0 -28 -7 -39 -16 -14 -11
-15 -14 -3 -11 19 6 20 -18 2 -48 -10 -16 -14 -17 -22 -6 -7 11 -10 10 -18 -4
-5 -9 -14 -15 -19 -13 -12 4 -52 -58 -64 -101 -44 -155 -1 -483 89 -677 21
-44 72 -133 115 -198 42 -64 86 -136 99 -159 33 -62 68 -114 126 -191 54 -70
110 -174 155 -286 29 -72 35 -93 43 -162 5 -45 8 -49 45 -60 25 -7 37 -16 34
-25 -3 -7 1 -13 9 -13 7 0 26 -5 40 -10 23 -9 25 -13 15 -25 -10 -12 -9 -15 4
-15 10 0 15 -4 12 -9 -3 -4 6 -13 20 -20 16 -7 24 -17 21 -25 -3 -8 1 -17 9
-20 9 -3 13 -10 9 -15 -3 -6 3 -15 14 -21 12 -6 18 -18 16 -30 -2 -11 1 -20 7
-20 5 0 8 -7 4 -15 -3 -9 6 -23 24 -37 17 -12 30 -30 30 -40 0 -10 4 -18 8
-18 10 0 12 -13 15 -65 1 -19 6 -35 11 -35 10 0 2 -102 -14 -175 -6 -27 -12
-66 -14 -85 -4 -48 -4 -47 -22 -64 -14 -15 -14 -16 0 -16 22 0 14 -42 -10 -51
-13 -5 -14 -8 -4 -8 23 -1 54 26 38 32 -7 3 -3 6 9 6 24 1 56 28 48 41 -3 4
12 16 32 25 32 16 35 19 18 25 -18 6 -17 8 8 25 16 10 26 24 23 31 -2 6 4 20
15 30 11 10 18 22 15 28 -4 11 36 88 60 117 8 8 15 24 18 35 7 36 30 84 41 84
5 0 3 4 -5 10 -12 7 -12 12 0 34 7 14 19 26 25 26 7 0 13 12 13 27 0 14 8 32
18 40 12 9 13 13 4 13 -7 0 -11 3 -8 6 4 3 16 0 28 -6 12 -7 20 -8 16 -2 -3 5
2 13 11 16 10 4 14 4 10 0 -4 -4 -1 -12 7 -18 8 -6 26 -42 41 -81 15 -38 34
-83 42 -100 12 -25 12 -27 0 -13 -8 10 -17 15 -21 11 -4 -4 -4 0 -1 9 4 11 -1
21 -17 29 -20 11 -22 11 -10 -3 9 -11 10 -18 2 -23 -5 -3 -10 -2 -10 4 0 6 -8
7 -17 4 -12 -5 -13 -8 -4 -11 9 -3 5 -12 -11 -30 -13 -14 -17 -22 -10 -18 8 5
12 0 12 -15 0 -16 5 -20 18 -17 15 4 18 0 17 -16 -2 -16 5 -26 24 -34 27 -12
50 -48 72 -114 7 -21 18 -38 24 -38 6 0 5 -3 -2 -8 -8 -5 -9 -19 -3 -47 5 -24
5 -46 -1 -58 -6 -10 -8 -21 -5 -25 3 -3 6 0 6 6 0 7 4 12 9 12 14 0 24 -38 14
-52 -10 -16 -11 -71 -2 -78 4 -3 4 -35 0 -72 -4 -37 -4 -76 1 -87 4 -12 3 -23
-3 -27 -6 -3 -8 -13 -4 -22 4 -10 -11 -31 -44 -63 -38 -36 -46 -50 -37 -59 8
-10 6 -12 -10 -8 -13 3 -21 0 -21 -9 0 -8 7 -11 19 -7 10 3 18 1 18 -5 0 -6
-5 -11 -12 -11 -6 0 -4 -8 6 -19 16 -17 16 -19 -6 -26 -13 -4 -29 -6 -37 -5
-11 1 -11 -1 0 -14 12 -13 15 -13 25 0 14 18 28 18 21 0 -3 -8 8 -20 31 -31
35 -16 36 -18 17 -31 -10 -8 -13 -14 -6 -14 7 0 9 -4 6 -10 -3 -5 -1 -10 4
-10 6 0 11 9 11 20 0 11 6 20 14 20 9 0 12 -8 8 -25 -3 -19 0 -25 12 -25 10 0
14 -4 11 -10 -3 -5 1 -10 10 -10 10 0 14 -5 10 -12 -4 -7 3 -2 15 12 11 14 39
46 61 73 22 26 45 47 52 47 6 0 -3 -13 -20 -29 -18 -16 -41 -44 -52 -62 -18
-30 -19 -33 -3 -45 14 -10 14 -14 3 -28 -11 -13 -11 -17 2 -22 9 -3 22 -3 29
1 7 4 4 -1 -6 -9 -23 -18 -18 -20 17 -7 25 10 31 1 15 -24 -4 -7 15 -11 55
-12 34 0 85 -3 112 -7 28 -3 43 -3 34 1 -10 5 -14 14 -10 26 6 16 11 15 51
-14 75 -54 125 -72 189 -65 31 3 65 6 76 6 l20 1 -20 9 c-17 7 -14 9 15 11 19
2 48 2 63 1 21 -2 26 1 21 10 -6 9 -3 9 9 -1 9 -7 22 -11 29 -9 7 3 22 2 33
-3 13 -5 1 -8 -39 -8 -33 -1 -57 -3 -55 -5 3 -3 49 -5 104 -5 55 0 112 -1 127
-1 15 0 29 4 33 10 3 5 12 10 18 10 7 0 6 -4 -3 -10 -11 -7 -6 -10 21 -10 25
0 36 4 36 15 0 12 -16 15 -80 15 -44 0 -78 2 -76 4 4 4 288 10 319 7 8 -1 2
-8 -15 -15 -27 -12 -18 -13 85 -10 63 2 132 3 153 3 22 0 56 11 83 27 53 31
147 118 137 127 -3 4 -1 7 5 7 16 0 24 -18 10 -23 -10 -3 -8 -9 5 -24 9 -11
15 -22 12 -25 -10 -10 30 -4 41 6 9 8 7 14 -10 24 -19 12 -19 13 9 5 49 -12
105 -6 127 14 11 10 30 17 42 15 17 -2 18 -1 6 7 -11 8 -4 11 29 11 38 0 42 2
30 16 -11 14 -8 15 29 9 23 -3 42 -2 42 3 0 5 -25 12 -55 15 -29 3 -62 11 -72
17 -19 12 -6 11 63 -6 19 -5 25 -4 20 5 -4 6 -3 11 2 11 17 0 8 35 -11 42 -11
5 -17 16 -15 28 2 14 -8 27 -37 44 -36 22 -37 24 -13 23 14 -1 24 -5 22 -9 -2
-4 0 -9 5 -12 5 -3 12 1 15 10 3 8 10 12 16 9 15 -9 12 -27 -2 -19 -7 4 -9 3
-5 -1 4 -5 14 -10 22 -11 13 -2 12 2 -2 26 -9 16 -20 27 -25 24 -4 -3 -8 0 -8
6 0 7 9 14 19 17 17 4 18 8 8 23 -6 10 -14 17 -18 14 -9 -5 -22 23 -25 54 l-3
24 20 -23 c25 -29 24 -15 -2 22 -11 16 -24 27 -29 24 -4 -3 -14 3 -21 13 -12
15 -12 16 2 5 9 -7 19 -10 22 -6 4 3 14 0 23 -8 16 -13 16 -12 5 9 -7 13 -10
36 -7 50 4 18 3 22 -2 14 -8 -11 -10 -11 -15 2 -3 8 -1 17 6 20 7 2 4 5 -5 5
-20 1 -24 31 -6 49 7 7 8 16 1 24 -5 7 -8 23 -7 36 0 12 -3 22 -7 22 -5 0 -9
9 -9 20 0 13 5 18 15 14 8 -4 13 -10 10 -14 -3 -5 3 -8 13 -7 17 1 28 27 12
27 -4 0 -7 7 -7 15 0 8 4 15 9 15 5 0 4 9 -2 20 -9 16 -8 20 5 20 8 0 15 9 15
20 0 11 -4 20 -10 20 -5 0 -7 7 -3 15 3 9 2 15 -3 14 -27 -5 -36 4 -14 13 15
6 20 12 13 15 -17 6 -16 19 5 65 14 32 24 40 60 49 26 7 42 17 42 27 0 12 9
14 47 8 26 -3 52 -11 57 -16 18 -18 27 -10 15 13 -12 22 -12 22 8 2 11 -11 18
-26 15 -33 -2 -7 8 -14 26 -18 17 -3 42 -19 56 -35 20 -22 36 -29 64 -30 20
-1 29 -3 20 -6 -24 -6 -23 -30 2 -38 11 -4 18 -11 15 -16 -4 -5 1 -9 9 -9 8 0
19 -6 23 -13 4 -7 31 -27 60 -44 39 -24 53 -28 56 -18 7 16 -23 45 -47 45 -10
0 -14 5 -10 11 3 6 0 16 -7 21 -10 7 -6 8 14 5 35 -5 35 1 0 14 -20 7 -24 12
-14 18 8 5 10 14 7 20 -4 6 0 11 8 11 9 0 16 7 16 15 0 8 -4 15 -10 15 -5 0
-7 6 -4 14 3 7 -2 20 -10 29 -21 20 -38 67 -32 84 3 7 15 13 27 13 16 0 20 5
16 18 -2 9 -6 24 -8 32 -2 8 -8 18 -14 22 -5 4 1 8 14 8 l25 0 -26 28 c-25 27
-25 27 -8 57 10 17 19 39 19 51 1 11 7 26 14 33 10 10 8 15 -6 26 -18 13 -17
14 2 20 21 6 29 25 11 25 -5 0 -1 9 10 20 15 15 19 29 15 55 -3 27 1 40 16 53
11 9 27 32 34 50 8 18 39 57 68 85 30 29 57 63 60 77 3 14 15 34 25 45 10 11
33 72 51 135 31 108 42 139 107 308 27 69 56 122 79 146 21 21 133 219 150
267 34 93 44 130 38 146 -4 11 -3 14 5 9 11 -6 17 12 13 37 -2 10 18 84 30
112 16 39 29 166 29 290 0 126 0 126 -22 119 -20 -6 -21 -5 -9 10 12 14 11 16
-5 16 -15 0 -16 2 -5 9 11 7 11 9 0 13 -11 4 -12 9 -1 27 6 11 12 26 11 33 0
7 -4 4 -8 -7 -8 -19 -9 -18 -21 8 -12 24 -11 29 5 41 18 13 14 36 -7 36 -7 0
-7 -5 1 -14 9 -11 8 -15 -5 -20 -21 -8 -26 -8 -20 3 3 5 -1 14 -9 21 -8 7 -15
19 -15 26 0 8 -4 14 -9 14 -5 0 -12 14 -16 31 -4 17 -10 28 -13 25 -3 -4 -15
2 -26 13 -25 22 -72 39 -62 22 4 -6 1 -11 -8 -11 -8 0 -17 4 -21 9 -3 5 -30 9
-59 8 -30 -1 -52 -5 -50 -8z m-168 -215 c25 -12 36 -13 53 -4 16 9 20 9 14 1
-5 -8 1 -10 18 -6 17 5 26 2 30 -9 4 -9 15 -16 26 -16 11 0 25 -9 31 -20 8
-14 8 -20 0 -20 -6 0 -8 -5 -4 -11 3 -6 14 -9 24 -6 18 5 34 -22 31 -50 -1 -7
2 -13 8 -13 5 0 11 6 14 13 3 6 10 0 16 -16 6 -16 15 -25 21 -22 6 4 10 -7 10
-24 0 -21 5 -31 15 -31 20 0 30 -46 15 -65 -12 -15 -11 -16 12 -19 14 -1 30
-66 17 -66 -5 0 -9 -11 -9 -24 0 -14 -5 -28 -10 -31 -6 -4 -8 -15 -5 -25 3
-11 0 -20 -10 -24 -17 -6 -21 -46 -4 -46 8 0 8 -5 -1 -15 -7 -8 -9 -22 -6 -31
3 -8 0 -25 -8 -36 -8 -11 -12 -26 -10 -32 2 -6 -9 -20 -26 -30 -25 -14 -29
-20 -19 -32 9 -11 8 -14 -7 -14 -11 0 -27 -14 -36 -30 -9 -17 -13 -30 -9 -30
5 0 12 7 15 16 4 9 9 14 13 11 3 -4 -15 -29 -41 -58 -25 -28 -46 -55 -46 -61
0 -5 -4 -7 -9 -3 -6 3 -10 -3 -10 -12 -1 -37 -8 -64 -19 -75 -7 -7 -12 -20
-12 -30 0 -10 -9 -23 -20 -30 -11 -7 -20 -18 -20 -24 0 -6 -7 -17 -15 -24 -8
-7 -12 -16 -10 -21 3 -4 -11 -27 -32 -51 l-38 -43 42 33 c23 18 67 61 98 95
57 63 192 256 187 269 -1 4 12 17 28 30 17 12 30 25 30 30 0 4 9 17 20 28 11
11 20 16 20 11 0 -5 -7 -14 -15 -21 -8 -7 -15 -19 -15 -26 0 -8 -5 -14 -11
-14 -5 0 -7 -5 -4 -11 4 -6 -2 -19 -14 -30 -12 -11 -19 -24 -16 -29 3 -4 2
-10 -2 -12 -5 -1 -16 -21 -27 -43 -10 -22 -22 -48 -27 -57 -6 -13 -5 -18 3
-18 8 -1 6 -6 -4 -14 -24 -18 -23 -29 2 -16 26 14 25 6 -2 -21 -13 -12 -17
-18 -9 -14 9 5 12 4 7 -3 -4 -7 -14 -12 -22 -12 -8 0 -12 -4 -9 -10 3 -5 2
-10 -3 -10 -5 0 -15 -13 -22 -30 -7 -16 -43 -60 -81 -97 -62 -61 -88 -96 -57
-77 7 4 8 3 4 -5 -4 -6 -12 -9 -17 -6 -16 10 -224 -177 -249 -224 -10 -19 -10
-25 1 -32 19 -12 18 -12 98 63 60 58 123 98 151 98 8 0 6 -29 -11 -143 -9 -59
-17 -84 -38 -105 -34 -37 -82 -66 -90 -55 -3 5 -17 9 -31 8 -16 0 -24 5 -22
14 2 9 -2 11 -15 6 -28 -12 -63 -9 -76 8 -7 8 -18 16 -24 18 -10 3 -9 10 2 32
13 26 13 27 -9 21 -20 -5 -24 -1 -30 28 -6 28 -3 37 24 61 27 24 29 31 8 28
-4 0 -5 6 -2 14 4 8 10 15 15 15 5 0 9 8 9 17 0 9 21 37 48 61 44 42 45 44 20
40 -30 -6 -41 18 -13 28 9 4 13 16 11 34 -2 20 1 27 9 23 7 -2 16 0 20 6 4 7
-2 10 -17 7 -13 -3 -26 -5 -30 -5 -5 -1 -8 -7 -8 -15 0 -8 -5 -18 -11 -22 -8
-5 -10 1 -7 20 3 16 0 33 -8 41 -9 9 -10 16 -4 20 13 8 13 25 -1 25 -5 0 -8
-4 -4 -9 3 -6 -7 -8 -22 -7 -16 2 -35 0 -44 -5 -11 -5 -16 -3 -16 6 0 8 4 12
9 9 4 -3 9 1 9 8 1 7 2 20 3 28 0 8 -6 21 -14 27 -11 9 -12 15 -4 20 6 5 19
23 28 41 9 17 20 32 25 32 5 0 9 12 9 27 0 15 5 29 11 31 9 3 9 7 1 18 -9 10
-8 21 4 45 11 22 13 35 6 39 -7 5 -8 15 -1 32 5 14 7 28 5 31 -3 3 0 8 7 13 8
5 10 3 5 -7 -4 -8 -1 -6 7 4 8 9 19 17 24 17 6 0 11 6 10 13 -1 33 4 47 18 47
8 0 15 9 15 20 0 14 7 20 23 21 21 0 21 1 2 9 -28 12 -37 12 -30 0 9 -15 -9
-12 -31 5 -18 15 -18 15 0 8 15 -5 17 -3 11 7 -6 10 -4 12 11 6 13 -5 16 -4 9
3 -14 14 -81 -2 -139 -35 -47 -26 -59 -46 -14 -24 22 11 22 11 -2 -10 -14 -11
-20 -20 -15 -19 6 1 21 1 34 0 l24 -1 -27 -21 c-14 -11 -24 -24 -21 -29 3 -4
-3 -6 -13 -3 -10 2 -29 -4 -42 -15 l-23 -19 21 -5 c12 -4 25 -1 29 4 4 7 1 8
-8 3 -8 -5 -11 -4 -6 0 4 5 16 9 27 10 18 2 19 0 5 -15 -8 -9 -12 -20 -8 -25
5 -4 3 -5 -3 -2 -7 4 -15 0 -18 -9 -9 -24 -1 -28 26 -13 22 12 22 11 8 -7 -8
-10 -23 -30 -35 -43 -11 -13 -14 -21 -7 -17 6 4 12 3 12 -3 0 -5 -8 -15 -17
-20 -13 -7 -14 -10 -4 -11 8 0 -15 -30 -51 -67 -44 -47 -78 -95 -108 -155 -24
-48 -49 -89 -57 -92 -19 -8 -17 4 21 92 29 70 32 82 20 103 -7 13 -13 19 -14
13 0 -22 -32 -25 -37 -4 -5 19 -6 19 -18 3 -11 -15 -12 -10 -4 31 5 27 7 52 4
54 -3 3 -5 -1 -6 -9 0 -8 -4 -3 -10 9 -5 13 -6 29 -2 35 11 18 14 35 18 125 3
51 1 82 -5 82 -6 0 -10 6 -10 14 0 8 -4 18 -10 21 -6 4 -8 -7 -5 -27 5 -29 4
-30 -5 -10 -6 14 -14 20 -22 16 -7 -5 -9 -2 -5 9 3 9 1 17 -5 19 -6 2 -1 18
11 38 11 19 24 42 28 50 11 24 30 40 38 32 5 -4 5 -1 1 6 -11 18 54 83 75 77
10 -3 19 1 23 11 5 14 4 15 -8 5 -10 -8 -16 -9 -21 -1 -4 6 -3 10 2 9 4 -1 22
4 38 11 l30 13 -25 7 -25 6 23 8 c19 6 22 13 18 31 -6 23 15 51 28 38 4 -4 4
1 0 10 -6 17 36 89 87 148 10 12 19 25 19 29 0 3 20 26 44 50 24 25 43 48 40
51 -5 8 38 20 45 13 3 -3 0 -8 -6 -12 -9 -6 -19 -24 -55 -104 -14 -34 2 -18
21 20 22 42 81 103 81 83 0 -11 3 -11 17 0 9 8 18 13 20 12 9 -8 33 -2 28 6
-3 6 3 8 15 6 11 -2 22 1 25 6 4 5 11 7 16 4 5 -4 9 -1 9 4 0 15 11 14 48 -5z
m-4075 -9 c-3 -9 -8 -14 -10 -11 -3 3 -2 9 2 15 9 16 15 13 8 -4z m3667 -160
c-7 -8 -20 -14 -29 -14 -13 1 -13 2 2 6 9 2 17 9 17 14 0 5 5 9 11 9 8 0 8 -5
-1 -15z m-60 -85 c0 -5 -4 -10 -10 -10 -5 0 -10 5 -10 10 0 6 5 10 10 10 6 0
10 -4 10 -10z m-110 -140 c0 -5 -2 -10 -4 -10 -3 0 -8 5 -11 10 -3 6 -1 10 4
10 6 0 11 -4 11 -10z m-24 -65 c-9 -7 -16 -19 -16 -27 0 -19 -20 -38 -39 -38
-13 1 -12 4 4 16 11 8 18 16 16 17 -3 1 -2 13 2 26 3 14 10 20 17 16 7 -4 14
2 18 16 5 21 7 22 10 5 2 -11 -3 -25 -12 -31z m-2591 -23 c-3 -3 -11 0 -18 7
-9 10 -8 11 6 5 10 -3 15 -9 12 -12z m85 -56 c-1 -6 -10 0 -22 14 -11 14 -27
24 -34 22 -15 -3 -19 10 -7 21 8 9 63 -42 63 -57z m2437 -18 c-3 -8 -6 -5 -6
6 -1 11 2 17 5 13 3 -3 4 -12 1 -19z m1078 -35 c-4 -10 -8 -28 -10 -41 -3 -29
-10 -36 -29 -29 -10 4 -13 13 -9 22 5 13 7 14 14 3 7 -10 9 -9 9 5 0 16 20 57
28 57 2 0 1 -8 -3 -17z m-3464 -140 c13 -16 12 -17 -3 -4 -10 7 -18 15 -18 17
0 8 8 3 21 -13z m-234 -27 c27 -4 104 -48 139 -81 15 -14 34 -25 42 -25 8 0
12 -3 9 -7 -4 -3 2 -13 13 -20 11 -8 18 -18 15 -22 -2 -5 7 -18 20 -31 13 -13
22 -27 19 -31 -2 -5 5 -18 17 -30 20 -20 20 -23 5 -31 -11 -6 -27 -4 -48 6
-53 27 -42 10 16 -22 54 -31 93 -67 45 -42 -19 10 -17 5 10 -24 19 -20 32 -36
28 -36 -4 0 -2 -10 4 -22 7 -13 -12 -1 -46 29 -61 55 -130 93 -205 114 l-45
13 35 5 35 6 -58 24 c-53 22 -91 48 -50 35 13 -4 11 0 -7 16 -24 21 -20 22 28
3 9 -4 0 8 -21 26 -21 19 -36 35 -34 37 2 2 27 -6 56 -17 78 -29 92 -20 35 20
-27 19 -51 38 -54 41 -3 3 -16 13 -30 22 -30 18 -40 64 -12 53 9 -4 27 -8 39
-9z m3008 -46 c-3 -5 -12 -10 -18 -10 -7 0 -6 4 3 10 19 12 23 12 15 0z m-40
-100 c-3 -5 -12 -10 -18 -10 -7 0 -6 4 3 10 19 12 23 12 15 0z m-3555 -260 c0
-5 -2 -10 -4 -10 -3 0 -8 5 -11 10 -3 6 -1 10 4 10 6 0 11 -4 11 -10z m510
-336 c0 -2 -7 -4 -15 -4 -8 0 -15 4 -15 10 0 5 7 7 15 4 8 -4 15 -8 15 -10z
m-198 -94 c51 -22 121 -100 112 -123 -6 -16 32 -44 44 -33 3 3 1 6 -5 6 -6 0
-10 11 -9 24 0 13 4 22 8 20 4 -3 19 9 34 25 20 23 31 28 48 22 11 -5 26 -7
31 -5 9 4 40 -39 56 -76 9 -21 -18 -80 -37 -80 -8 0 -12 -4 -9 -10 3 -5 1 -10
-4 -10 -6 0 -11 -7 -11 -15 0 -12 -7 -14 -27 -9 -22 4 -25 3 -13 -5 12 -9 9
-11 -15 -12 -22 0 -25 -2 -13 -7 17 -7 17 -8 0 -18 -14 -9 -28 -8 -58 3 -21 7
-48 16 -58 18 -10 2 -27 13 -37 24 -10 11 -26 24 -36 29 -12 7 -17 22 -16 47
1 20 -9 68 -22 106 -13 38 -20 69 -15 69 5 0 7 7 4 15 -8 19 -5 19 48 -5z
m898 -120 c0 -5 -11 -10 -24 -10 -13 0 -33 -2 -43 -5 -10 -3 -4 1 12 9 36 18
55 20 55 6z m1608 -7 c-15 -2 -42 -2 -60 0 -18 2 -6 4 27 4 33 0 48 -2 33 -4z
m-1420 -10 c-16 -2 -40 -2 -55 0 -16 2 -3 4 27 4 30 0 43 -2 28 -4z m1505 0
c-7 -2 -19 -2 -25 0 -7 3 -2 5 12 5 14 0 19 -2 13 -5z m-1701 -28 c-62 -13
-123 -27 -135 -31 -12 -4 -26 -9 -32 -10 -48 -9 -142 -38 -180 -54 -46 -20
-64 -13 -22 8 69 37 374 111 452 110 17 0 -21 -10 -83 -23z m1771 18 c-7 -2
-19 -2 -25 0 -7 3 -2 5 12 5 14 0 19 -2 13 -5z m50 -10 c-7 -2 -19 -2 -25 0
-7 3 -2 5 12 5 14 0 19 -2 13 -5z m127 -18 c47 -8 62 -13 40 -13 -19 -1 -62 5
-95 12 -77 18 -42 18 55 1z m-274 -16 c68 -12 99 -36 114 -88 7 -20 14 -43 17
-51 14 -36 4 -65 -25 -72 -13 -4 -32 11 -68 54 -30 37 -65 67 -91 78 -24 11
-43 24 -43 29 0 14 -68 2 -112 -20 -21 -11 -44 -19 -53 -19 -21 0 -19 27 3 39
12 8 13 10 3 11 -11 0 -9 4 5 15 10 8 42 15 69 16 l50 2 -55 7 c-50 6 -47 7
36 8 50 1 117 -3 150 -9z m-1328 -20 c2 -5 16 -6 30 -2 25 6 26 5 13 -11 -13
-15 -12 -18 7 -23 20 -5 26 -15 23 -35 0 -4 7 -4 17 -1 9 3 14 2 9 -2 -4 -5 0
-17 10 -27 9 -10 13 -21 10 -24 -3 -4 0 -12 7 -19 7 -7 12 -28 11 -47 -2 -18
2 -41 7 -50 5 -10 5 -18 1 -18 -4 0 -16 20 -26 45 -26 63 -73 124 -105 136
-15 6 -53 11 -84 11 -78 -1 -148 -33 -201 -92 -40 -45 -43 -46 -41 -21 1 14 3
28 4 31 1 3 3 10 5 15 1 6 3 15 5 20 1 6 3 15 4 20 1 6 6 23 10 39 6 20 5 31
-4 36 -8 5 9 13 46 20 32 7 64 14 69 16 19 6 170 -9 173 -17z m1767 6 c53 -17
34 -18 -35 0 -30 7 -44 13 -30 13 14 0 43 -5 65 -13z m-800 -14 c-50 -23 -83
-58 -100 -108 -8 -21 -14 -30 -15 -20 -1 41 59 116 110 136 43 17 47 10 5 -8z
m875 -11 c8 -5 11 -10 5 -10 -5 0 -17 5 -25 10 -8 5 -10 10 -5 10 6 0 17 -5
25 -10z m16 -27 c13 -5 15 -3 9 8 -8 12 -6 12 9 0 9 -8 22 -23 27 -33 10 -19
10 -19 -23 -1 -18 10 -46 24 -63 31 -28 11 -28 12 -3 7 14 -3 34 -8 44 -12z
m-1393 0 c-7 -2 -19 -2 -25 0 -7 3 -2 5 12 5 14 0 19 -2 13 -5z m-202 -20 c13
-16 12 -17 -3 -4 -10 7 -18 15 -18 17 0 8 8 3 21 -13z m719 -16 c0 -7 -7 -22
-15 -33 -13 -17 -14 -16 -4 14 11 33 19 41 19 19z m-1495 -7 c3 -5 1 -10 -4
-10 -6 0 -11 5 -11 10 0 6 2 10 4 10 3 0 8 -4 11 -10z m1465 -62 c0 -6 -3 -8
-7 -5 -3 4 -12 -1 -20 -11 -13 -15 -13 -15 -3 6 11 23 30 30 30 10z m268 -2
c9 -9 -20 -36 -38 -36 -21 0 -53 34 -43 44 8 8 71 1 81 -8z m-1351 -37 c6 -21
7 -21 19 -4 8 10 17 15 21 11 13 -13 -25 -34 -52 -28 -24 4 -33 21 -18 35 12
13 25 7 30 -14z m822 -13 c27 -12 56 -49 66 -83 l6 -23 -48 21 c-35 16 -70 22
-128 23 -70 1 -86 -2 -129 -26 l-48 -28 6 32 c11 58 50 87 130 98 58 7 110 3
145 -14z m190 -51 c21 0 24 -20 6 -38 -21 -22 -19 -29 8 -22 15 4 18 4 8 -3
-7 -5 -10 -15 -7 -21 4 -6 1 -11 -7 -11 -8 0 -17 10 -21 23 -9 33 -7 47 5 45
6 -2 13 2 16 8 2 7 -4 11 -14 10 -13 -1 -18 7 -20 29 -1 27 -1 28 5 5 4 -14
13 -25 21 -25z m-884 -44 c-18 -36 -62 -61 -102 -60 -28 1 -28 1 -3 8 38 9 65
32 91 76 28 47 40 25 14 -24z m1154 -28 c19 -13 45 -23 59 -23 22 0 92 43 100
61 1 3 9 15 17 25 14 18 14 18 15 0 0 -10 -17 -36 -39 -57 -32 -33 -45 -39
-80 -39 -76 0 -151 51 -151 103 0 16 4 13 23 -14 12 -18 38 -44 56 -56z m268
20 c-8 -15 -33 -46 -55 -67 -22 -22 -38 -46 -35 -53 3 -7 0 -13 -6 -13 -6 0
-16 -11 -21 -24 -5 -14 -21 -33 -35 -42 -18 -12 -22 -19 -14 -24 14 -9 3 -30
-17 -30 -8 0 -14 -4 -14 -10 0 -5 -7 -7 -15 -4 -8 4 -15 2 -15 -4 0 -6 6 -13
13 -15 6 -3 1 -6 -12 -6 -13 -1 -39 -11 -58 -22 -40 -25 -34 -33 40 -49 l42
-9 -46 4 c-53 5 -101 24 -93 36 3 5 -1 6 -9 3 -31 -12 -155 130 -143 162 3 8
2 13 -3 10 -5 -3 -14 8 -20 26 -14 39 -14 38 4 32 9 -4 15 0 15 7 1 10 5 8 14
-4 8 -10 17 -14 20 -8 4 5 18 6 34 2 15 -4 37 -3 49 2 17 7 47 5 108 -8 81
-17 88 -17 131 0 58 22 100 58 125 107 11 22 23 38 25 35 3 -3 -1 -18 -9 -34z
m-1611 -74 c13 -7 22 -14 20 -16 -7 -7 -54 27 -69 50 -8 12 -17 33 -21 47 -4
14 5 4 20 -21 14 -26 37 -53 50 -60z m872 68 c19 -12 55 -53 81 -92 117 -174
214 -300 246 -322 19 -13 35 -30 35 -38 0 -8 5 -16 10 -16 6 -1 14 -2 20 -3 5
0 24 -17 42 -37 18 -19 56 -54 85 -76 29 -22 51 -42 50 -44 -1 -3 3 1 8 7 8 9
109 33 152 36 7 1 10 5 8 9 -3 4 2 10 10 13 8 3 14 9 13 13 -5 18 14 86 21 75
12 -20 13 -113 1 -127 -7 -9 -6 -16 4 -24 11 -10 11 -21 0 -78 -22 -103 -65
-249 -84 -282 -6 -11 -3 -22 8 -35 16 -18 16 -18 -5 -12 -17 5 -23 3 -23 -7 0
-8 -3 -28 -6 -45 -6 -29 -4 -30 47 -47 30 -10 66 -30 81 -46 24 -26 25 -29 8
-34 -13 -4 -17 -12 -13 -23 6 -16 5 -16 -13 0 -24 21 -103 57 -125 58 -21 0
-32 -49 -16 -69 10 -12 9 -14 -5 -8 -13 4 -18 1 -19 -11 0 -14 -2 -14 -6 -2
-7 19 -33 40 -50 40 -7 0 -13 -10 -13 -22 0 -14 -23 -46 -59 -83 -62 -63 -139
-126 -111 -91 14 17 13 18 -5 13 -64 -19 -127 -16 -205 9 -44 14 -77 30 -74
35 3 5 0 9 -5 9 -6 0 -11 4 -11 9 0 5 10 7 21 4 17 -5 20 -3 13 9 -28 46 -72
99 -91 109 -22 12 -20 13 32 35 106 42 196 126 220 204 29 94 31 168 6 221
-46 97 -130 149 -269 165 -17 2 -22 -2 -18 -12 8 -22 -40 -29 -69 -10 -38 25
-167 22 -222 -5 -47 -23 -104 -83 -135 -143 -27 -53 -26 -145 3 -223 30 -80
113 -165 194 -198 33 -14 50 -25 39 -25 -23 0 -39 -25 -27 -42 3 -6 1 -8 -4
-5 -12 8 -47 -28 -39 -41 5 -9 -33 -47 -48 -47 -5 0 -11 -6 -14 -13 -2 -6 2
-10 10 -8 44 14 70 16 66 5 -2 -6 -33 -19 -68 -29 -36 -9 -94 -25 -129 -35
-87 -23 -124 -12 -196 61 -30 30 -55 52 -55 49 0 -3 -9 -1 -21 5 -14 8 -24 8
-33 1 -9 -8 -13 -6 -13 6 0 8 9 18 19 21 18 4 17 5 -3 16 -31 16 -36 36 -7 30
21 -4 21 -4 3 5 -11 4 -23 7 -27 4 -7 -4 -48 54 -48 68 0 4 12 10 28 14 l27 8
-33 10 c-29 9 -35 7 -48 -11 -8 -12 -20 -22 -26 -22 -7 0 -3 6 8 14 18 14 18
16 3 31 -11 11 -24 15 -39 10 -17 -6 -20 -12 -15 -33 5 -22 4 -24 -9 -13 -19
16 -6 55 20 59 33 7 35 17 8 71 -48 101 -94 350 -98 532 l-2 86 55 -25 c46
-21 76 -27 166 -30 60 -3 103 -8 94 -11 -8 -3 -29 -16 -45 -29 -16 -13 -44
-33 -63 -45 -19 -12 -35 -29 -37 -38 -2 -17 25 -18 141 -5 29 4 34 3 20 -4
-11 -5 -16 -9 -11 -9 5 -1 2 -9 -7 -19 -10 -10 -14 -22 -10 -25 3 -4 2 -7 -3
-7 -5 0 -10 -9 -10 -20 0 -11 4 -20 8 -20 4 0 8 -5 8 -11 0 -5 -5 -7 -12 -3
-7 4 -8 3 -4 -5 4 -6 0 -25 -8 -42 -14 -28 -14 -30 0 -25 12 5 15 2 10 -10 -4
-12 -2 -15 9 -10 17 6 16 -14 -1 -29 -7 -5 -15 -23 -19 -40 -11 -42 -12 -44
-16 -52 -1 -5 -3 -34 -3 -66 -1 -44 2 -56 12 -52 8 3 18 5 23 5 5 0 9 14 9 31
0 44 23 128 69 246 21 57 35 106 30 109 -5 3 -6 17 -3 31 6 22 4 25 -10 20
-13 -5 -15 -3 -7 12 6 10 8 21 5 24 -9 9 92 152 120 170 36 24 97 110 141 198
44 88 99 165 128 181 94 50 164 55 225 15z m209 -69 c-3 -8 -6 -5 -6 6 -1 11
2 17 5 13 3 -3 4 -12 1 -19z m-782 -89 c-1 -9 -8 -25 -16 -35 -12 -16 -12 -17
1 -9 10 5 8 1 -4 -13 -10 -12 -22 -20 -25 -17 -4 2 -7 -5 -8 -15 -2 -25 34
-57 48 -43 8 8 6 11 -6 10 -26 -3 -31 23 -6 30 11 3 19 9 16 13 -3 5 -1 12 5
15 6 4 10 3 9 -2 -5 -31 4 -33 26 -7 14 16 25 25 25 19 0 -5 8 3 18 19 10 17
27 30 40 31 25 2 24 2 16 -19 -3 -9 -11 -13 -17 -9 -6 3 -7 1 -3 -5 9 -15 -43
-91 -86 -127 -36 -31 -104 -65 -128 -64 -8 0 2 7 22 16 21 8 35 19 32 24 -3 6
-1 15 4 22 7 8 4 19 -9 35 l-18 23 -39 -30 c-37 -30 -102 -48 -102 -29 0 6 -9
8 -20 5 -11 -3 -18 -1 -15 3 3 5 -1 10 -7 13 -9 3 -6 11 9 24 20 18 21 22 8
39 -8 10 -15 15 -15 11 0 -4 -10 -2 -22 5 -13 7 -26 11 -30 10 -6 -1 -5 24 1
46 1 1 1 5 1 10 0 8 127 18 231 19 57 0 65 -2 64 -18z m-557 -114 c-3 -3 -9 2
-12 12 -6 14 -5 15 5 6 7 -7 10 -15 7 -18z m2005 -27 c-21 -29 -50 -63 -65
-76 -15 -12 -32 -39 -39 -60 -11 -35 -49 -94 -49 -76 0 4 -5 3 -12 -4 -7 -7
-22 -12 -34 -12 -13 0 -26 -4 -29 -10 -11 -17 -95 7 -120 35 -5 6 -20 22 -32
35 l-22 25 92 1 c141 1 228 43 303 145 20 27 38 49 41 49 2 0 -13 -24 -34 -52z
m-1507 -4 c-3 -8 -2 -12 4 -9 6 3 10 1 10 -4 0 -6 -7 -11 -15 -11 -8 0 -15 9
-15 20 0 11 5 20 11 20 6 0 8 -7 5 -16z m-435 -51 c13 -16 12 -17 -3 -4 -10 7
-18 15 -18 17 0 8 8 3 21 -13z m1692 -10 c-7 -2 -19 -2 -25 0 -7 3 -2 5 12 5
14 0 19 -2 13 -5z m241 -139 c9 -24 7 -28 -9 -14 -17 14 -20 30 -6 30 5 0 12
-7 15 -16z m-1476 -164 c3 -7 0 -10 -5 -7 -5 3 -18 -4 -28 -16 -18 -20 -20
-20 -23 -4 -6 30 6 47 30 44 12 -2 24 -10 26 -17z m441 -104 c20 -24 -29 -47
-94 -44 -30 2 -55 6 -55 10 0 13 74 46 106 47 17 1 37 -5 43 -13z m239 -11
c10 -10 -7 -17 -43 -19 -40 -2 -56 11 -34 25 13 9 67 5 77 -6z m783 -62 c13
-16 12 -17 -3 -4 -10 7 -18 15 -18 17 0 8 8 3 21 -13z m-81 -223 c0 -15 -5
-12 -26 11 -19 22 -19 22 4 10 12 -6 22 -16 22 -21z m-1913 14 c-3 -3 -12 -4
-19 -1 -8 3 -5 6 6 6 11 1 17 -2 13 -5z m13 -39 c0 -8 -4 -15 -10 -15 -5 0 -7
7 -4 15 4 8 8 15 10 15 2 0 4 -7 4 -15z m163 -25 c-12 -5 -57 -11 -100 -14
l-78 -5 70 10 c39 5 75 11 80 13 6 3 19 4 30 5 18 0 18 -1 -2 -9z m-153 -60
c0 -5 -8 -10 -17 -10 -15 0 -16 2 -3 10 19 12 20 12 20 0z m2044 -9 c3 -5 -1
-12 -10 -15 -9 -4 -13 -2 -8 5 4 8 -1 9 -17 4 -19 -5 -21 -4 -9 4 18 13 37 14
44 2z m-1996 -17 c-10 -10 -21 -13 -29 -8 -12 7 0 14 41 23 2 1 -3 -6 -12 -15z
m207 -64 c-10 -11 -20 -18 -23 -15 -7 6 18 35 31 35 5 0 2 -9 -8 -20z m179
-76 c3 -8 2 -12 -4 -9 -6 3 -10 10 -10 16 0 14 7 11 14 -7z m-54 -24 c0 -5 -6
-10 -12 -10 -9 0 -8 -4 2 -10 17 -11 10 -13 -14 -4 -12 5 -13 9 -3 20 14 16
27 18 27 4z m553 -87 c-7 -2 -19 -2 -25 0 -7 3 -2 5 12 5 14 0 19 -2 13 -5z"/>
<path d="M6712 9111 c2 -7 7 -12 11 -12 12 1 9 15 -3 20 -7 2 -11 -2 -8 -8z"/>
<path d="M7060 9070 c20 -13 33 -13 25 0 -3 6 -14 10 -23 10 -15 0 -15 -2 -2
-10z"/>
<path d="M6855 8950 c-7 -11 22 -26 32 -16 4 3 1 6 -6 6 -7 0 -9 5 -6 10 3 6
2 10 -4 10 -5 0 -13 -5 -16 -10z"/>
<path d="M6897 8949 c7 -7 15 -10 18 -7 3 3 -2 9 -12 12 -14 6 -15 5 -6 -5z"/>
<path d="M6860 8880 c-8 -5 -10 -10 -5 -10 6 0 17 5 25 10 8 5 11 10 5 10 -5
0 -17 -5 -25 -10z"/>
<path d="M7205 8830 c3 -5 8 -10 11 -10 2 0 4 5 4 10 0 6 -5 10 -11 10 -5 0
-7 -4 -4 -10z"/>
<path d="M7240 8829 c0 -5 5 -7 10 -4 6 3 10 8 10 11 0 2 -4 4 -10 4 -5 0 -10
-5 -10 -11z"/>
<path d="M6858 8804 c-3 -3 -31 -7 -60 -9 -51 -3 -126 -30 -115 -42 3 -2 17 3
31 12 13 9 49 18 78 20 50 3 122 23 87 24 -9 1 -18 -2 -21 -5z"/>
<path d="M6810 8750 c0 -5 -3 -9 -7 -9 -30 5 -59 -8 -121 -53 -39 -29 -70 -54
-68 -56 2 -2 21 5 43 16 21 10 49 22 63 25 14 4 41 20 60 37 18 16 37 30 42
30 4 0 8 5 8 10 0 6 -4 10 -10 10 -5 0 -10 -4 -10 -10z"/>
<path d="M6597 8708 c-26 -17 -45 -33 -43 -35 5 -6 82 43 91 57 8 13 7 13 -48
-22z"/>
<path d="M6344 8615 c-9 -37 0 -40 13 -5 6 17 7 30 2 30 -5 0 -11 -11 -15 -25z"/>
<path d="M6810 8580 c0 -5 4 -10 9 -10 6 0 13 5 16 10 3 6 -1 10 -9 10 -9 0
-16 -4 -16 -10z"/>
<path d="M7140 8505 c-7 -9 -11 -18 -8 -20 3 -3 11 1 18 10 7 9 11 18 8 20 -3
3 -11 -1 -18 -10z"/>
<path d="M6623 8078 c-11 -19 -12 -37 -2 -44 5 -3 8 0 7 8 -2 7 2 12 8 11 7
-1 10 6 7 17 -6 23 -9 24 -20 8z"/>
<path d="M6810 7935 c-13 -14 -20 -25 -16 -25 4 0 19 11 34 25 15 14 22 25 16
25 -6 0 -21 -11 -34 -25z"/>
<path d="M3780 8176 c0 -2 7 -7 16 -10 8 -3 12 -2 9 4 -6 10 -25 14 -25 6z"/>
<path d="M3490 7376 c62 -23 86 -27 45 -7 -22 11 -49 20 -60 20 -12 0 -6 -5
15 -13z"/>
<path d="M5625 6564 c11 -11 13 -19 6 -23 -12 -8 4 -68 68 -251 22 -63 41
-122 41 -130 1 -24 13 -36 42 -44 21 -5 26 -3 22 8 -3 7 -15 18 -27 24 -18 9
-19 11 -4 11 15 1 16 4 5 24 -7 12 -14 33 -15 47 -1 14 -6 26 -10 27 -5 2 -8
19 -7 38 1 20 -4 42 -12 49 -11 11 -11 15 -1 19 9 4 9 7 0 18 -7 7 -13 17 -13
22 0 5 6 5 13 -1 9 -8 12 -3 13 19 1 16 -1 27 -4 24 -9 -9 -32 17 -32 36 0 21
-26 26 -33 7 -4 -10 -6 -10 -6 0 -1 7 -6 10 -12 6 -7 -4 -7 1 1 16 11 20 10
22 -4 17 -10 -4 -15 -3 -11 3 7 12 -12 50 -26 50 -6 0 -3 -7 6 -16z"/>
<path d="M5766 6058 c7 -57 16 -74 34 -63 16 10 8 87 -10 102 -26 21 -30 14
-24 -39z"/>
<path d="M4516 5991 c-18 -7 -18 -8 5 -14 34 -9 36 -9 43 8 6 16 -15 19 -48 6z"/>
<path d="M5855 5980 c-3 -6 1 -7 9 -4 18 7 21 14 7 14 -6 0 -13 -4 -16 -10z"/>
<path d="M5770 5968 c0 -21 13 -34 49 -52 20 -11 30 -13 26 -5 -8 12 8 10 48
-6 17 -7 18 -6 6 13 -7 12 -27 24 -44 28 -16 3 -42 13 -57 20 -22 12 -28 12
-28 2z m66 -46 c-4 -3 -14 2 -24 12 -16 18 -16 18 6 6 13 -6 21 -14 18 -18z"/>
<path d="M4524 5932 c-10 -15 -8 -18 9 -20 22 -1 39 16 31 30 -9 14 -29 9 -40
-10z"/>
<path d="M5926 5915 c-4 -11 12 -23 60 -45 35 -16 71 -27 79 -24 26 10 -7 43
-63 64 -63 24 -68 24 -76 5z"/>
<path d="M4465 5880 c-3 -5 1 -10 10 -10 9 0 13 5 10 10 -3 6 -8 10 -10 10 -2
0 -7 -4 -10 -10z"/>
<path d="M4518 5883 c7 -3 16 -2 19 1 4 3 -2 6 -13 5 -11 0 -14 -3 -6 -6z"/>
<path d="M4540 5840 c-12 -8 -12 -10 5 -10 17 0 17 -2 5 -10 -13 -8 -13 -10 2
-10 11 0 16 7 15 20 -1 22 -5 24 -27 10z"/>
<path d="M5330 5820 c0 -5 5 -10 10 -10 6 0 10 5 10 10 0 6 -4 10 -10 10 -5 0
-10 -4 -10 -10z"/>
<path d="M5366 5802 c-2 -4 4 -8 14 -8 10 0 16 4 14 8 -3 4 -9 8 -14 8 -5 0
-11 -4 -14 -8z"/>
<path d="M3246 8786 c6 -15 20 -20 51 -19 7 1 11 -3 8 -7 -3 -5 12 -14 32 -21
58 -19 106 -40 101 -44 -2 -2 -55 14 -117 35 -109 39 -152 50 -123 31 8 -4 13
-10 12 -12 -1 -2 2 -11 5 -20 4 -12 18 -17 43 -17 l37 0 -45 19 c-42 18 -42
19 -11 14 18 -3 75 -22 125 -44 50 -21 102 -41 116 -45 l25 -7 -25 15 c-45 27
-7 16 65 -19 68 -33 69 -33 38 -6 -61 51 -230 135 -316 156 -22 6 -26 4 -21
-9z"/>
<path d="M3288 8699 c-10 -5 -18 -15 -18 -22 0 -8 4 -7 9 2 8 12 12 12 25 2
11 -9 16 -10 16 -2 0 6 8 11 18 11 14 0 15 2 2 10 -19 12 -30 12 -52 -1z"/>
<path d="M3360 8681 c0 -5 12 -12 28 -15 15 -4 41 -15 57 -26 l29 -19 -57 2
c-31 1 -57 5 -57 8 0 4 -9 9 -21 12 -19 5 -19 4 3 -16 13 -12 25 -19 26 -14 6
13 22 7 22 -8 0 -18 5 -19 33 -3 20 10 21 10 8 -5 -7 -10 -11 -17 -8 -17 14 0
57 24 57 32 0 4 9 8 19 8 24 0 36 16 20 26 -8 5 -9 3 -4 -6 11 -18 -25 -9 -97
24 -32 14 -58 22 -58 17z"/>
<path d="M3880 8680 c0 -5 5 -10 11 -10 5 0 7 5 4 10 -3 6 -8 10 -11 10 -2 0
-4 -4 -4 -10z"/>
<path d="M3277 8649 c7 -7 15 -10 18 -7 3 3 -2 9 -12 12 -14 6 -15 5 -6 -5z"/>
<path d="M3197 8579 c7 -7 15 -10 18 -7 3 3 -2 9 -12 12 -14 6 -15 5 -6 -5z"/>
<path d="M3360 8570 c8 -5 20 -10 25 -10 6 0 3 5 -5 10 -8 5 -19 10 -25 10 -5
0 -3 -5 5 -10z"/>
<path d="M2957 8559 c7 -7 15 -10 18 -7 3 3 -2 9 -12 12 -14 6 -15 5 -6 -5z"/>
<path d="M3234 8552 c0 -11 9 -18 23 -18 25 -2 22 10 -5 25 -14 7 -18 5 -18
-7z"/>
<path d="M3437 8539 c7 -7 15 -10 18 -7 3 3 -2 9 -12 12 -14 6 -15 5 -6 -5z"/>
<path d="M3480 8533 c8 -2 22 -7 30 -10 8 -4 18 -5 23 -5 4 1 7 -1 7 -5 0 -5
19 -9 43 -10 l42 -1 -50 18 c-27 10 -63 18 -80 18 -16 0 -23 -2 -15 -5z"/>
<path d="M3488 8513 c7 -3 16 -2 19 1 4 3 -2 6 -13 5 -11 0 -14 -3 -6 -6z"/>
<path d="M4783 8203 c9 -2 23 -2 30 0 6 3 -1 5 -18 5 -16 0 -22 -2 -12 -5z"/>
<path d="M4330 8046 c0 -9 7 -16 16 -16 9 0 14 5 12 12 -6 18 -28 21 -28 4z"/>
<path d="M5958 8033 c7 -3 16 -2 19 1 4 3 -2 6 -13 5 -11 0 -14 -3 -6 -6z"/>
<path d="M3129 7992 c16 -29 112 -132 134 -143 11 -6 -11 25 -49 69 -67 78
-105 111 -85 74z"/>
<path d="M3415 7750 c3 -5 8 -10 11 -10 2 0 4 5 4 10 0 6 -5 10 -11 10 -5 0
-7 -4 -4 -10z"/>
<path d="M4305 7580 c3 -5 10 -10 16 -10 5 0 9 5 9 10 0 6 -7 10 -16 10 -8 0
-12 -4 -9 -10z"/>
<path d="M4290 7550 c0 -5 5 -10 10 -10 6 0 10 5 10 10 0 6 -4 10 -10 10 -5 0
-10 -4 -10 -10z"/>
<path d="M4310 7514 c0 -8 5 -12 10 -9 6 3 10 10 10 16 0 5 -4 9 -10 9 -5 0
-10 -7 -10 -16z"/>
<path d="M3868 7383 c7 -3 16 -2 19 1 4 3 -2 6 -13 5 -11 0 -14 -3 -6 -6z"/>
<path d="M6775 6400 c-3 -6 1 -13 10 -16 11 -5 13 -9 6 -14 -7 -4 -2 -11 14
-18 15 -7 25 -8 25 -2 0 6 -6 10 -12 10 -10 0 -10 2 0 9 11 6 11 10 0 18 -26
20 -37 23 -43 13z"/>
<path d="M3538 6343 c-30 -8 -20 -20 12 -15 16 2 27 8 24 13 -5 9 -8 10 -36 2z"/>
<path d="M6775 6324 c-11 -12 -13 -20 -5 -29 8 -10 4 -14 -17 -20 -27 -6 -27
-7 -8 -21 16 -12 17 -17 6 -23 -10 -7 -8 -12 9 -24 l21 -15 -21 -15 c-16 -11
-18 -16 -8 -24 24 -18 44 -21 62 -8 17 13 17 14 -1 24 -16 9 -15 10 7 11 25 1
24 1 -10 30 l-35 30 34 -7 c28 -5 32 -4 25 8 -5 8 -7 22 -5 33 1 10 -3 23 -11
27 -11 7 -11 9 1 9 11 0 11 3 1 15 -16 19 -25 19 -45 -1z"/>
<path d="M3554 6312 c-12 -8 -26 -55 -14 -47 5 3 10 -1 13 -7 3 -11 37 40 37
57 0 7 -23 6 -36 -3z"/>
<path d="M3535 6215 c0 -14 5 -25 10 -25 6 0 3 -6 -7 -13 -20 -16 -24 -35 -12
-64 8 -20 10 -20 29 -6 16 13 17 15 3 10 -33 -12 -18 9 20 27 31 16 34 20 18
25 -20 8 -17 13 29 46 24 17 7 20 -43 6 -25 -8 -32 -7 -32 5 0 8 -3 14 -7 14
-5 0 -8 -11 -8 -25z"/>
<path d="M3624 6179 c-3 -5 9 -9 25 -9 17 0 31 3 31 8 0 10 -49 12 -56 1z"/>
<path d="M3658 6153 c-10 -2 -18 -11 -18 -18 0 -9 -6 -12 -17 -8 -10 4 -14 2
-9 -5 3 -6 -2 -12 -11 -15 -10 -2 2 -2 27 1 42 5 43 4 27 -12 -22 -23 -22 -29
2 -15 26 17 47 52 32 57 -6 2 -9 8 -5 13 5 9 1 10 -28 2z"/>
<path d="M6723 6117 c6 -16 -21 -50 -48 -61 -19 -8 -19 -9 5 -16 l25 -8 -27
-1 c-16 -1 -28 -5 -28 -11 0 -5 -4 -9 -9 -7 -5 1 -8 -2 -7 -8 0 -5 15 -10 33
-11 24 -1 42 8 74 38 26 25 48 37 57 33 12 -5 12 -1 -3 15 -11 12 -13 20 -6
20 7 0 9 5 6 11 -4 5 -12 8 -18 6 -7 -2 -23 0 -36 5 -17 6 -22 5 -18 -5z"/>
<path d="M4119 6099 c-3 -19 -5 -24 -12 -36 -9 -15 -1 -15 28 -3 14 6 15 9 5
10 -12 0 -12 3 3 14 17 13 16 14 -3 19 -11 3 -21 1 -21 -4z"/>
<path d="M3665 6040 c-4 -7 3 -8 22 -4 38 9 42 14 10 14 -14 0 -29 -5 -32 -10z"/>
<path d="M3695 5980 c-7 -12 2 -12 30 0 19 8 19 9 -2 9 -12 1 -25 -3 -28 -9z"/>
<path d="M6633 5953 c9 -2 23 -2 30 0 6 3 -1 5 -18 5 -16 0 -22 -2 -12 -5z"/>
<path d="M6206 5928 c3 -5 10 -6 15 -3 13 9 11 12 -6 12 -8 0 -12 -4 -9 -9z"/>
<path d="M6248 5913 c7 -3 16 -2 19 1 4 3 -2 6 -13 5 -11 0 -14 -3 -6 -6z"/>
<path d="M6465 5865 c47 -16 83 -19 70 -6 -6 4 -32 11 -60 14 l-50 5 40 -13z"/>
<path d="M3810 5770 c-18 -12 -2 -12 25 0 13 6 15 9 5 9 -8 0 -22 -4 -30 -9z"/>
<path d="M4265 5650 c-3 -5 -2 -10 4 -10 5 0 13 5 16 10 3 6 2 10 -4 10 -5 0
-13 -4 -16 -10z"/>
<path d="M5285 5600 c-3 -5 1 -10 9 -10 9 0 16 5 16 10 0 6 -4 10 -9 10 -6 0
-13 -4 -16 -10z"/>
<path d="M5330 5599 c0 -5 5 -7 10 -4 6 3 10 8 10 11 0 2 -4 4 -10 4 -5 0 -10
-5 -10 -11z"/>
<path d="M5547 5503 c-7 -11 10 -40 18 -31 4 4 3 14 -3 24 -5 9 -12 12 -15 7z"/>
<path d="M5385 5424 c-16 -7 -50 -14 -75 -14 -25 -1 -40 -4 -33 -6 7 -3 9 -12
6 -20 -6 -17 13 -19 21 -1 5 10 7 10 12 0 10 -22 54 -15 64 10 5 12 9 17 9 11
1 -12 51 -6 51 6 0 20 -26 27 -55 14z"/>
<path d="M3530 5338 c-13 -24 -51 -79 -85 -123 -123 -162 -201 -297 -258 -455
-47 -126 -140 -459 -157 -558 -24 -137 -26 -189 -4 -122 8 25 15 55 16 68 1
12 6 22 10 22 3 0 9 9 13 19 3 11 14 22 23 24 15 4 14 5 -2 6 -15 1 -17 6 -12
32 3 17 6 35 6 40 0 5 15 8 32 6 25 -2 36 -9 47 -32 7 -17 20 -43 27 -58 8
-16 14 -37 14 -48 0 -10 4 -19 8 -19 13 0 28 -39 41 -106 7 -32 15 -66 18 -74
3 -8 5 -22 4 -30 -1 -12 0 -12 7 -1 11 15 27 -2 17 -19 -3 -5 0 -20 8 -32 8
-13 15 -45 16 -72 1 -27 8 -74 16 -105 23 -93 39 -221 28 -232 -6 -6 -24 6
-50 33 -62 66 -103 86 -103 48 0 -13 -5 -18 -15 -14 -29 12 -14 -14 35 -59 27
-25 55 -58 61 -74 6 -15 15 -37 20 -48 23 -54 49 -132 49 -145 0 -9 13 -31 28
-50 38 -47 45 -67 26 -82 -37 -32 -42 -39 -37 -57 3 -10 20 -36 39 -56 19 -21
34 -41 34 -45 0 -5 6 -10 13 -13 6 -2 8 -8 4 -13 -5 -5 -14 -3 -20 6 -7 8 -19
16 -27 18 -8 2 -20 10 -27 18 -6 9 -18 16 -26 18 -8 1 -26 9 -40 19 -33 22
-37 21 -37 -3 0 -11 7 -20 16 -20 11 0 14 -6 9 -20 -4 -12 -2 -20 5 -20 7 0 9
-7 6 -16 -4 -12 -1 -14 14 -9 11 4 20 3 20 -2 0 -5 41 -51 90 -102 50 -51 88
-96 85 -100 -2 -5 -18 -14 -35 -21 -16 -7 -30 -16 -30 -20 0 -11 -59 -25 -85
-21 -44 6 -129 57 -159 96 -63 79 -80 118 -90 213 -4 37 -2 37 38 17 16 -9 32
-12 35 -9 3 4 0 9 -6 11 -7 3 -13 12 -13 22 0 9 -21 50 -47 91 -90 145 -113
202 -122 298 -8 84 -1 132 17 132 5 0 21 -9 35 -20 24 -19 47 -26 47 -15 0 7
-62 118 -69 125 -23 20 -57 104 -61 150 -5 50 -7 42 -20 -80 -8 -74 -15 -187
-15 -250 0 -104 4 -124 34 -213 l34 -98 -22 -39 c-11 -21 -24 -60 -27 -86 -3
-30 -35 -113 -79 -209 -47 -102 -85 -204 -105 -280 -18 -66 -45 -167 -62 -225
-16 -58 -34 -147 -40 -199 -10 -86 -9 -100 10 -160 12 -36 29 -89 37 -118 33
-107 146 -190 310 -229 74 -17 78 -17 90 0 26 35 95 267 95 318 0 28 -19 109
-46 200 -5 16 -2 16 29 3 82 -34 338 -39 452 -8 33 9 77 18 98 21 l37 4 0 -66
c0 -36 -5 -99 -11 -139 -10 -69 -9 -80 14 -148 14 -41 28 -94 32 -119 4 -25
17 -63 28 -85 12 -25 22 -67 24 -110 4 -65 2 -74 -26 -118 -19 -29 -36 -45
-43 -41 -7 4 -8 3 -4 -5 11 -18 -12 -40 -35 -34 -17 5 -20 11 -15 35 8 39 -6
28 -29 -22 -29 -64 -45 -52 -45 34 0 77 -6 106 -21 106 -5 0 -9 -39 -9 -88 0
-106 -11 -127 -71 -135 -57 -8 -69 -1 -69 39 0 39 -14 45 -25 12 -7 -21 -8
-20 -14 12 -7 34 -8 34 -20 -27 -10 -44 -17 -60 -27 -56 -7 3 -16 13 -19 24
-5 15 -10 17 -25 9 -10 -6 -33 -10 -50 -10 -29 0 -31 2 -30 33 1 17 2 38 1 45
-1 16 -19 16 -18 0 0 -7 -1 -24 -3 -38 -2 -24 -3 -24 -9 5 -7 30 -7 30 -15
-12 -7 -38 -11 -43 -34 -43 -33 0 -47 22 -51 77 -1 23 -7 55 -12 70 -7 22 -8
15 -5 -29 3 -32 2 -58 -2 -58 -4 0 -12 -12 -19 -26 -11 -24 -11 -26 10 -20 15
3 29 -2 45 -19 28 -29 70 -39 106 -25 40 15 103 12 138 -6 44 -23 120 -14 241
27 82 28 102 39 124 68 15 20 37 47 50 60 19 19 23 21 23 7 0 -14 2 -15 14 -4
8 7 11 17 8 22 -3 5 -1 6 4 3 6 -3 37 8 69 24 94 47 115 52 295 67 154 14
1422 8 1617 -7 84 -6 176 -12 205 -12 32 -1 60 -7 71 -17 16 -14 17 -12 17 40
0 41 5 61 20 78 18 21 40 79 40 107 0 7 16 60 35 117 33 98 35 114 35 230 0
68 2 131 5 138 5 11 20 7 73 -18 71 -35 207 -64 299 -64 68 0 218 35 260 61
18 11 33 17 33 12 0 -5 -11 -62 -25 -128 -27 -130 -31 -200 -15 -255 6 -19 11
-56 11 -82 0 -27 4 -48 9 -48 18 0 143 50 179 72 90 53 132 116 172 252 21 72
22 84 11 179 -7 60 -12 249 -12 457 0 202 -4 370 -10 390 -5 20 -23 57 -39 82
l-29 46 18 59 c9 32 21 102 25 156 7 105 -2 284 -15 270 -4 -4 -22 -46 -40
-93 -61 -164 -134 -274 -237 -360 -79 -66 -87 -69 -80 -32 5 26 4 30 -11 25
-9 -4 -27 -17 -39 -30 -12 -13 -26 -23 -30 -23 -4 -1 -26 -23 -47 -50 -36 -46
-70 -69 -83 -57 -6 7 28 87 38 87 4 0 10 16 13 35 8 43 58 141 88 175 13 14
24 38 26 53 3 26 1 28 -20 22 -13 -4 -47 -19 -76 -32 -29 -14 -55 -23 -58 -21
-2 3 24 27 59 55 34 28 83 72 110 98 31 32 52 45 63 41 12 -4 15 -2 10 9 -3 8
-1 15 4 15 6 0 10 -5 10 -11 0 -8 4 -8 14 0 8 7 25 9 38 6 18 -4 34 5 69 37
25 24 57 59 71 78 32 44 88 180 88 213 0 14 5 27 12 29 8 3 7 41 -6 149 -9 79
-28 242 -41 363 -21 181 -31 237 -60 323 -40 120 -147 356 -207 458 -91 154
-172 275 -185 275 -8 0 -11 -4 -8 -10 3 -5 1 -10 -5 -10 -7 0 -9 -7 -6 -16 3
-8 -2 -27 -12 -42 -9 -14 -11 -23 -4 -19 26 17 10 -13 -20 -37 -18 -14 -27
-26 -20 -26 10 0 9 -4 -3 -16 -9 -9 -14 -23 -11 -30 3 -8 -1 -14 -10 -14 -8 0
-12 -4 -9 -10 3 -5 1 -10 -4 -10 -6 0 -11 -5 -11 -11 0 -14 -26 -39 -40 -39
-6 0 -9 -4 -5 -9 3 -5 -4 -16 -15 -24 -11 -7 -17 -17 -13 -20 3 -4 -1 -7 -11
-7 -10 0 -14 -5 -11 -11 4 -6 -3 -13 -15 -16 -16 -4 -18 -8 -8 -14 10 -7 9 -9
-3 -9 -9 0 -19 -7 -23 -15 -3 -8 -13 -15 -21 -15 -9 0 -13 -4 -10 -10 3 -5 -3
-10 -14 -10 -25 0 -38 -20 -20 -31 11 -7 10 -9 -3 -9 -20 0 -32 -11 -103 -95
-27 -33 -67 -79 -89 -102 -21 -24 -35 -43 -30 -43 9 0 -33 -46 -130 -139 -177
-169 -200 -192 -181 -182 11 5 52 39 90 75 67 63 103 86 74 49 -7 -10 -1 -7
14 7 15 13 25 30 23 37 -3 6 0 10 7 8 7 -2 38 28 70 68 31 40 72 88 90 108 17
20 38 45 45 55 11 17 11 16 2 -3 -6 -13 -8 -23 -5 -23 2 0 -2 -17 -9 -37 -8
-21 -24 -90 -36 -153 -36 -193 -71 -351 -97 -435 -13 -44 -37 -122 -53 -174
-26 -83 -28 -95 -14 -108 13 -14 14 -13 8 12 -5 20 -4 26 5 21 10 -7 16 11 12
42 -1 6 3 12 9 12 5 0 10 6 10 14 0 16 20 83 62 211 16 49 40 132 53 185 13
52 28 107 33 121 6 15 9 29 6 32 -9 9 16 57 28 55 7 -2 12 5 12 14 -1 10 4 14
11 11 7 -2 16 5 20 16 3 12 10 19 15 16 4 -3 16 7 25 22 10 14 44 55 76 89 33
35 59 70 59 79 0 8 5 15 11 15 25 0 243 -159 291 -213 16 -18 16 -22 2 -56 -9
-20 -62 -153 -119 -296 -99 -251 -248 -577 -266 -583 -5 -2 -9 -9 -9 -17 0 -7
-7 -18 -15 -25 -9 -7 -13 -15 -10 -18 2 -3 -4 -21 -15 -41 -10 -20 -33 -66
-50 -103 -17 -37 -35 -70 -40 -73 -6 -3 -10 -15 -10 -25 0 -11 -10 -29 -23
-42 -43 -43 -48 -54 -38 -81 8 -21 7 -25 -4 -21 -8 3 -22 0 -32 -6 -16 -10
-16 -11 0 -6 10 3 17 0 17 -7 0 -14 -41 -53 -52 -49 -12 3 -9 -13 4 -26 6 -6
8 -15 4 -19 -4 -4 -11 -1 -15 6 -7 10 -12 8 -25 -10 -9 -13 -16 -29 -16 -36 0
-7 -9 -13 -19 -13 -14 0 -18 -5 -14 -18 5 -21 -46 -82 -69 -82 -10 0 -9 3 2
10 13 8 13 13 2 30 -8 13 -10 34 -6 57 5 26 4 34 -5 29 -7 -5 -11 1 -12 16 0
22 -1 22 -9 3 -6 -16 -9 -17 -13 -5 -15 42 -23 126 -20 201 l2 84 -25 -75
c-15 -41 -43 -129 -64 -195 -118 -378 -139 -447 -159 -520 -41 -149 -212 -647
-220 -640 -5 5 -7 50 -21 570 -6 198 -17 441 -25 540 -8 99 -15 234 -16 300 0
247 -36 530 -93 750 -23 84 -21 114 7 124 13 5 36 35 56 72 31 58 70 115 111
160 86 96 86 96 136 57 21 -16 0 8 -48 55 -93 92 -142 127 -282 200 -102 53
-123 56 -235 27 -159 -40 -228 -72 -401 -185 -52 -35 -121 -77 -152 -95 -32
-17 -58 -33 -58 -35 0 -8 65 19 72 29 4 6 8 8 8 3 0 -4 18 2 40 13 25 13 49
18 64 14 13 -3 57 -42 97 -87 41 -44 97 -105 124 -135 28 -30 50 -58 50 -63 0
-5 8 -18 19 -30 18 -21 18 -24 -8 -108 -26 -84 -59 -284 -91 -545 -22 -180
-35 -598 -35 -1143 0 -430 -5 -522 -25 -432 -5 20 -10 27 -15 20 -4 -8 -10 0
-15 21 -14 60 -58 187 -85 243 -52 109 -79 180 -157 410 -46 138 -115 340
-153 450 -94 279 -145 438 -232 725 -10 36 -28 92 -38 125 -67 214 -147 630
-150 774 0 41 -3 78 -5 82 -3 4 1 14 9 22 8 8 12 18 8 22 -4 5 -2 5 5 1 7 -4
10 -13 7 -20 -4 -11 39 -50 56 -51 3 0 20 -15 38 -32 17 -18 34 -33 38 -33 4
0 -31 42 -78 93 -46 50 -105 121 -130 157 -58 83 -103 131 -113 122 -5 -4 -5
1 -2 10 3 10 3 17 -1 17 -17 -3 -35 2 -29 7 3 3 -4 17 -16 29 -55 58 -73 82
-70 92 2 6 -3 17 -11 26 -8 8 -12 17 -9 21 4 3 1 6 -5 6 -7 0 -12 7 -12 15 0
8 -4 15 -8 15 -5 0 -7 13 -6 29 2 27 -26 71 -45 71 -4 0 -18 -19 -31 -42z
m-146 -386 c-17 -84 -13 -132 10 -132 8 0 16 -5 18 -11 2 -6 17 -11 33 -11 17
0 33 -5 37 -12 5 -8 15 -8 37 0 26 10 34 8 65 -14 20 -14 36 -34 36 -44 0 -11
5 -16 10 -13 21 13 9 -7 -21 -35 l-32 -28 -101 76 c-134 102 -139 108 -132
155 4 21 11 46 16 55 5 9 14 37 20 61 19 72 21 40 4 -47z m3449 -39 c-4 -10
-2 -14 4 -10 18 11 22 -31 4 -46 -33 -27 -147 -104 -177 -119 -28 -14 -34 -14
-58 1 -14 8 -26 20 -26 25 0 6 5 5 12 -2 14 -14 42 -17 34 -4 -6 10 64 52 87
52 8 0 17 4 19 8 2 4 20 21 41 36 23 18 37 37 37 51 0 12 3 25 6 28 12 11 23
-3 17 -20z m-2832 -150 l24 -26 -27 19 c-15 10 -28 22 -28 27 0 12 5 8 31 -20z
m-287 -55 c-3 -39 31 -88 61 -88 12 0 25 -3 29 -7 3 -4 21 -7 39 -7 41 -1 47
-15 92 -197 19 -79 42 -169 50 -199 8 -30 31 -118 51 -195 20 -77 40 -144 44
-149 5 -5 6 -15 3 -22 -3 -8 0 -14 6 -14 6 0 11 -13 11 -30 0 -16 5 -30 10
-30 6 0 8 -12 4 -27 -4 -22 -3 -25 5 -13 9 12 10 9 5 -12 -3 -16 -2 -28 3 -28
5 0 10 -12 11 -26 1 -15 7 -33 12 -39 6 -7 10 -17 9 -21 -1 -5 1 -16 4 -24 14
-32 56 -189 71 -265 9 -44 23 -111 31 -150 26 -123 36 -179 41 -229 3 -27 10
-61 15 -74 5 -14 7 -33 4 -43 -4 -12 -2 -19 6 -19 7 0 10 -2 7 -5 -10 -10 -38
8 -36 23 2 8 -3 17 -9 19 -17 6 -16 -18 2 -43 8 -12 12 -24 8 -27 -3 -3 -2
-14 2 -24 5 -10 9 -20 10 -23 0 -3 4 -15 9 -28 5 -15 2 -27 -8 -37 -23 -23
-43 -18 -58 15 -11 25 -14 27 -19 12 -6 -14 -9 -12 -18 12 -6 16 -9 37 -6 47
5 14 1 19 -13 19 -11 0 -22 -6 -25 -14 -6 -15 38 -154 54 -170 5 -6 9 -18 9
-27 0 -9 16 -24 36 -34 39 -18 32 -36 -12 -27 -14 2 -24 0 -24 -7 0 -7 -4 -10
-10 -6 -5 3 -7 12 -3 20 3 9 -1 15 -11 15 -9 0 -16 5 -16 10 0 6 -8 14 -17 17
-23 9 -34 20 -61 65 -12 20 -29 38 -36 41 -22 9 -224 322 -281 437 -29 58 -86
170 -128 250 -79 153 -149 312 -218 495 -22 61 -54 146 -71 190 -16 44 -48
133 -71 198 l-42 117 179 173 c140 134 251 235 262 237 0 0 -1 -14 -2 -32z
m1481 -59 c-18 -5 -33 -5 -39 1 -7 7 4 10 30 9 39 -1 39 -1 9 -10z m1735 -269
c0 -5 -5 -10 -11 -10 -6 0 -9 -7 -6 -15 4 -8 2 -17 -4 -20 -5 -4 -7 -10 -4
-15 3 -4 -4 -29 -15 -55 -11 -25 -19 -49 -18 -53 3 -15 -35 -102 -44 -102 -5
0 -8 -7 -8 -15 0 -8 -8 -31 -19 -52 -10 -21 -25 -52 -32 -70 -7 -17 -17 -29
-21 -27 -4 3 -9 0 -9 -5 -3 -26 -4 -30 -12 -37 -4 -5 -6 11 -5 34 2 23 6 42 9
42 3 0 11 23 18 50 7 28 17 50 22 50 4 0 6 7 3 15 -4 8 -1 15 5 15 6 0 11 7
11 15 0 8 5 15 11 15 6 0 9 9 6 20 -3 11 0 18 7 17 6 -1 11 5 11 13 0 8 5 22
10 30 5 8 8 23 7 33 -2 9 1 17 7 17 11 0 54 81 47 88 -6 5 16 31 27 32 4 0 7
-4 7 -10z m243 -83 c-8 -13 -14 -89 -14 -171 1 -85 -26 -183 -58 -217 -10 -11
-24 -39 -31 -62 -20 -66 -59 -142 -92 -178 -17 -18 -41 -50 -55 -71 -14 -21
-29 -38 -34 -38 -16 0 -19 19 -8 47 6 15 10 30 9 33 -3 10 -33 -2 -53 -21 -11
-10 -26 -19 -32 -19 -11 0 -16 42 -5 50 6 5 17 24 66 120 13 25 24 37 24 28 0
-10 3 -18 6 -18 9 0 33 32 34 44 0 5 -7 3 -15 -4 -12 -10 -15 -9 -15 4 0 9 7
19 15 22 10 4 13 14 9 29 -3 13 -1 25 4 29 5 3 7 16 5 29 -3 14 2 29 11 36 9
8 16 22 16 32 0 11 4 19 9 19 5 0 12 13 16 29 3 16 13 35 21 42 8 6 14 17 14
24 0 8 4 15 8 17 11 4 52 76 52 91 0 7 9 23 20 37 11 14 20 35 20 48 0 12 4
22 8 22 5 0 15 12 23 27 l14 26 6 -39 c4 -21 5 -42 2 -47z m-3956 -39 c-3 -7
-5 -2 -5 12 0 14 2 19 5 13 2 -7 2 -19 0 -25z m2096 -559 c-10 -17 -45 -59
-78 -93 -55 -57 -59 -55 -6 4 12 14 39 46 59 73 42 54 51 60 25 16z m-1 -61
c-23 -35 -58 -79 -79 -98 l-37 -35 34 40 c19 22 53 68 75 102 22 34 41 60 44
58 2 -3 -15 -33 -37 -67z m1563 -98 c-3 -5 -10 -10 -16 -10 -5 0 -9 5 -9 10 0
6 7 10 16 10 8 0 12 -4 9 -10z m-1685 -55 c0 -2 -6 -5 -13 -8 -8 -3 -14 1 -14
8 0 7 6 11 14 8 7 -3 13 -6 13 -8z m-128 -62 c-22 -27 -53 -59 -68 -73 l-29
-25 30 35 c45 53 99 110 103 110 2 0 -14 -21 -36 -47z m11 -68 c-27 -35 -53
-63 -59 -61 -13 5 -45 -79 -38 -98 3 -7 -2 -19 -11 -26 -8 -7 -15 -18 -15 -26
0 -7 -8 -17 -17 -23 -13 -7 -24 -1 -50 27 -18 20 -33 39 -33 43 0 20 14 39 28
39 10 0 7 7 -12 25 -29 27 -30 29 -16 55 6 11 16 17 25 14 9 -4 22 -1 30 6 11
9 19 9 35 -3 11 -7 17 -16 14 -20 -8 -8 5 -47 17 -47 5 0 15 16 24 36 8 19 19
33 24 30 5 -4 29 16 52 44 23 27 44 50 46 50 2 0 -18 -29 -44 -65z m1706 -227
c-8 -14 -14 -18 -17 -10 -4 13 17 46 25 38 3 -2 -1 -15 -8 -28z m406 -28 c17
0 21 -25 4 -35 -5 -4 -8 -12 -6 -18 5 -14 -59 -201 -81 -236 -25 -42 -67 -106
-72 -111 -3 -3 -22 -26 -42 -51 -29 -37 -50 -51 -100 -68 -35 -13 -71 -27 -81
-32 -10 -6 -27 -7 -37 -4 -10 3 -21 2 -24 -3 -3 -5 -18 -7 -33 -5 -26 5 -25 3
9 -16 31 -17 49 -20 125 -16 195 9 283 26 305 59 5 6 8 2 8 -11 0 -13 -10 -29
-22 -37 -31 -20 -126 -44 -201 -51 -34 -3 -75 -10 -92 -15 -16 -5 -43 -11 -60
-12 -16 -1 -34 -7 -38 -13 -6 -7 -10 -5 -14 4 -3 8 -8 9 -12 3 -9 -15 -164 7
-174 25 -4 7 -16 13 -25 13 -10 0 -33 8 -52 19 -19 10 -59 26 -87 35 -29 10
-53 22 -53 27 0 13 12 11 50 -8 43 -21 125 -29 144 -14 7 6 19 30 25 54 7 23
20 52 29 63 14 17 112 93 231 179 18 13 131 125 202 200 31 33 73 76 95 96
l39 36 12 -28 c7 -16 19 -29 28 -29z m-2895 -480 c19 -14 22 -22 13 -31 -13
-13 -33 -4 -33 17 0 8 -7 14 -15 14 -8 0 -15 5 -15 10 0 16 23 11 50 -10z m80
0 c0 -11 6 -23 14 -26 19 -7 38 -61 25 -69 -5 -4 -9 1 -9 9 0 12 -11 16 -44
16 l-43 0 10 45 c8 33 15 45 29 45 11 0 18 -7 18 -20z m20 -90 c0 -5 -12 -10
-26 -10 -14 0 -23 4 -19 10 3 6 15 10 26 10 10 0 19 -4 19 -10z m-1135 -17
c50 -3 97 -5 105 -5 8 0 57 4 108 8 65 4 92 3 92 -5 0 -6 -10 -11 -22 -12 -21
0 -21 -1 -4 -8 18 -7 18 -8 3 -14 -9 -3 -23 -4 -31 -1 -8 3 -17 0 -21 -5 -3
-6 -11 -9 -16 -5 -5 3 -15 1 -22 -4 -7 -5 -66 -8 -132 -7 -125 1 -191 19 -226
61 -13 16 -11 17 31 10 25 -3 86 -9 135 -13z m1152 -65 c2 -28 -1 -48 -6 -48
-6 0 -8 7 -5 15 3 8 -1 21 -9 30 -16 16 -47 21 -47 7 0 -8 -60 -46 -64 -40 -9
10 -26 48 -26 57 0 17 21 13 36 -6 9 -12 13 -13 14 -5 0 27 25 42 64 39 38 -2
39 -2 43 -49z m-654 -23 c-12 -9 -26 -15 -30 -14 -4 1 -15 0 -23 -3 -8 -3 -36
-13 -62 -23 -52 -18 -68 -33 -48 -45 9 -5 9 -9 1 -15 -14 -8 -4 -76 13 -87 7
-5 7 -8 -2 -8 -9 0 -12 -11 -10 -32 4 -39 -42 -98 -77 -98 -11 0 -25 -4 -30
-9 -16 -15 -132 6 -152 27 -10 10 -19 23 -20 28 -9 36 -40 111 -51 123 -7 7
-16 26 -19 42 -6 30 -12 34 -80 44 -22 4 -49 13 -60 20 -17 14 -17 14 2 15 11
0 36 -4 55 -10 80 -23 255 -11 455 30 168 34 165 34 138 15z m617 -77 c0 -10
-3 -18 -7 -18 -14 1 -43 27 -43 39 0 7 -4 10 -9 7 -5 -3 -14 1 -20 8 -10 12
-8 15 11 18 27 4 68 -29 68 -54z m2077 33 c181 -45 396 -51 555 -15 79 18 117
16 80 -4 -22 -13 -250 -53 -302 -54 l-25 -1 25 -11 c24 -10 31 -46 9 -46 -5 0
-8 -3 -7 -7 3 -18 -15 -62 -28 -67 -8 -3 -14 -14 -14 -25 0 -11 -5 -23 -11
-27 -7 -4 -9 -21 -6 -40 4 -23 2 -32 -5 -28 -5 4 -15 0 -20 -7 -7 -11 -11 -11
-15 -1 -2 6 -18 12 -34 12 -18 0 -28 -5 -26 -12 1 -7 -6 -13 -15 -12 -65 3
-70 4 -65 19 4 8 1 17 -5 21 -7 4 -8 3 -4 -4 5 -8 -1 -12 -17 -12 -30 0 -87
19 -87 30 0 4 -10 11 -22 15 -20 6 -20 8 -5 12 24 6 22 33 -3 33 -11 0 -20 5
-20 10 0 6 4 10 10 10 5 0 17 14 26 31 12 24 13 33 4 39 -18 11 4 46 35 54 14
4 25 13 25 21 0 8 5 15 11 15 5 0 7 5 4 10 -4 6 -10 8 -14 6 -12 -8 -126 29
-153 49 l-23 17 30 -5 c17 -3 67 -15 112 -26z m-2057 -65 c0 -3 -4 -8 -10 -11
-5 -3 -10 -1 -10 4 0 6 5 11 10 11 6 0 10 -2 10 -4z m17 -41 c-7 -17 -37 -21
-37 -5 0 6 7 10 15 10 8 0 15 5 15 12 0 6 3 9 6 5 4 -3 4 -13 1 -22z m31 -50
c-3 -3 -9 2 -12 12 -6 14 -5 15 5 6 7 -7 10 -15 7 -18z m2522 -11 c0 -8 -5
-12 -10 -9 -6 4 -8 11 -5 16 9 14 15 11 15 -7z"/>
<path d="M3584 4708 c-4 -7 -4 -10 1 -6 4 4 15 2 24 -5 14 -11 14 -10 2 6 -16
20 -18 21 -27 5z"/>
<path d="M4230 2731 c0 -5 7 -12 16 -15 14 -5 15 -4 4 9 -14 17 -20 19 -20 6z"/>
<path d="M4280 2680 c0 -5 5 -10 10 -10 6 0 10 5 10 10 0 6 -4 10 -10 10 -5 0
-10 -4 -10 -10z"/>
<path d="M4130 2630 c-8 -5 -10 -10 -5 -10 6 0 17 5 25 10 8 5 11 10 5 10 -5
0 -17 -5 -25 -10z"/>
<path d="M4140 2599 c0 -5 5 -7 10 -4 6 3 10 8 10 11 0 2 -4 4 -10 4 -5 0 -10
-5 -10 -11z"/>
<path d="M7041 2821 c-19 -21 -33 -41 -32 -46 2 -4 -3 -11 -10 -16 -8 -4 -11
-11 -7 -14 9 -10 50 34 43 45 -4 6 1 10 9 10 9 0 22 14 31 30 21 40 8 37 -34
-9z"/>
<path d="M6901 2709 c-29 -27 -51 -52 -49 -55 13 -13 128 74 128 97 0 21 -28
6 -79 -42z"/>
<path d="M4378 2483 c7 -3 16 -2 19 1 4 3 -2 6 -13 5 -11 0 -14 -3 -6 -6z"/>
<path d="M6513 2323 c4 -3 3 -11 -3 -17 -19 -24 4 -35 29 -14 21 16 22 21 10
29 -16 10 -46 12 -36 2z"/>
<path d="M6640 2300 c0 -5 5 -10 11 -10 5 0 7 5 4 10 -3 6 -8 10 -11 10 -2 0
-4 -4 -4 -10z"/>
<path d="M6705 2291 c-6 -5 -21 -11 -35 -14 -21 -3 -19 -5 8 -6 18 0 40 6 48
14 13 12 13 15 2 15 -8 0 -18 -4 -23 -9z"/>
<path d="M4145 4610 c27 -27 51 -50 54 -50 3 0 -17 23 -44 50 -27 28 -51 50
-54 50 -3 0 17 -22 44 -50z"/>
<path d="M3092 4260 c0 -14 2 -19 5 -12 2 6 2 18 0 25 -3 6 -5 1 -5 -13z"/>
<path d="M3003 3975 c0 -22 2 -30 4 -17 2 12 2 30 0 40 -3 9 -5 -1 -4 -23z"/>
<path d="M3019 3952 c-3 -20 -2 -29 4 -23 5 5 7 19 5 32 -3 20 -5 19 -9 -9z"/>
<path d="M2990 3861 c0 -35 2 -62 5 -60 9 10 12 97 4 110 -5 9 -9 -10 -9 -50z"/>
<path d="M6065 3730 c3 -5 8 -10 11 -10 2 0 4 5 4 10 0 6 -5 10 -11 10 -5 0
-7 -4 -4 -10z"/>
<path d="M6203 1380 c0 -25 2 -35 4 -22 2 12 2 32 0 45 -2 12 -4 2 -4 -23z"/>
<path d="M6390 1256 c-16 -59 -43 -88 -74 -80 -19 4 -24 2 -23 -13 3 -27 43
-44 127 -53 41 -4 89 -15 105 -24 17 -9 47 -16 68 -16 35 0 37 1 26 21 -7 14
-9 50 -6 100 3 45 2 81 -4 84 -9 6 -13 -15 -10 -44 2 -7 -2 -10 -7 -7 -5 3
-16 -20 -23 -52 -10 -39 -19 -58 -31 -60 -15 -3 -18 5 -18 53 0 37 -4 54 -11
50 -6 -4 -8 -14 -5 -22 3 -8 2 -12 -3 -9 -4 3 -13 -6 -19 -19 -24 -52 -61 -16
-62 60 -1 72 -14 87 -30 31z"/>
<path d="M3402 1240 c0 -14 2 -19 5 -12 2 6 2 18 0 25 -3 6 -5 1 -5 -13z"/>
<path d="M6836 1181 c-9 -30 -23 -65 -32 -78 -15 -23 -15 -24 5 -14 11 6 49
11 85 11 36 0 68 5 71 10 4 6 -6 10 -23 10 -34 0 -70 31 -78 68 -3 15 -7 32
-8 37 -2 6 -11 -14 -20 -44z"/>
<path d="M6691 1191 c-6 -11 -11 -26 -11 -33 0 -8 -8 -30 -18 -50 l-19 -36 24
-11 c33 -15 66 -14 89 4 17 13 17 14 2 15 -14 0 -18 9 -19 43 -1 23 -3 33 -6
22 -8 -38 -26 -75 -35 -75 -6 0 -8 7 -4 15 3 8 8 38 12 66 6 48 8 51 21 33 14
-19 15 -19 11 1 -4 27 -34 31 -47 6z"/>
</g>
</svg>
